<svg width="229" height="147" viewBox="0 0 229 147" fill="none" xmlns="http://www.w3.org/2000/svg">
<path d="M31.747 0.952997V38H28.037V20.669H7.95V38H4.24V0.952997H7.95V17.595H28.037V0.952997H31.747ZM52.82 38.424C50.0993 38.424 47.6437 37.8233 45.453 36.622C43.2976 35.3853 41.584 33.654 40.312 31.428C39.0753 29.1667 38.457 26.5343 38.457 23.531C38.457 20.5277 39.093 17.913 40.365 15.687C41.637 13.4257 43.3683 11.6943 45.559 10.493C47.7497 9.25633 50.2053 8.638 52.926 8.638C55.6467 8.638 58.1023 9.25633 60.293 10.493C62.519 11.6943 64.2503 13.4257 65.487 15.687C66.759 17.913 67.395 20.5277 67.395 23.531C67.395 26.499 66.759 29.1137 65.487 31.375C64.215 33.6363 62.466 35.3853 60.24 36.622C58.014 37.8233 55.5407 38.424 52.82 38.424ZM52.82 35.191C54.728 35.191 56.4947 34.767 58.12 33.919C59.7453 33.0357 61.0527 31.7283 62.042 29.997C63.0667 28.2303 63.579 26.075 63.579 23.531C63.579 20.987 63.0843 18.8493 62.095 17.118C61.1057 15.3513 59.7983 14.044 58.173 13.196C56.5477 12.3127 54.781 11.871 52.873 11.871C50.965 11.871 49.1983 12.3127 47.573 13.196C45.9477 14.044 44.6403 15.3513 43.651 17.118C42.697 18.8493 42.22 20.987 42.22 23.531C42.22 26.075 42.697 28.2303 43.651 29.997C44.6403 31.7283 45.93 33.0357 47.52 33.919C49.1453 34.767 50.912 35.191 52.82 35.191ZM112.259 9.062L103.196 38H99.4862L91.4832 13.726L83.4802 38H79.7172L70.6542 9.062H74.4172L81.6252 34.237L89.7342 9.062H93.4442L101.447 34.29L108.602 9.062H112.259ZM42.4 117.062L33.337 146H29.627L21.624 121.726L13.621 146H9.858L0.795 117.062H4.558L11.766 142.237L19.875 117.062H23.585L31.588 142.29L38.743 117.062H42.4ZM60.0661 146.424C57.3454 146.424 54.8897 145.823 52.6991 144.622C50.5437 143.385 48.8301 141.654 47.5581 139.428C46.3214 137.167 45.7031 134.534 45.7031 131.531C45.7031 128.528 46.3391 125.913 47.6111 123.687C48.8831 121.426 50.6144 119.694 52.8051 118.493C54.9957 117.256 57.4514 116.638 60.1721 116.638C62.8927 116.638 65.3484 117.256 67.5391 118.493C69.7651 119.694 71.4964 121.426 72.7331 123.687C74.0051 125.913 74.6411 128.528 74.6411 131.531C74.6411 134.499 74.0051 137.114 72.7331 139.375C71.4611 141.636 69.7121 143.385 67.4861 144.622C65.2601 145.823 62.7867 146.424 60.0661 146.424ZM60.0661 143.191C61.9741 143.191 63.7407 142.767 65.3661 141.919C66.9914 141.036 68.2987 139.728 69.2881 137.997C70.3127 136.23 70.8251 134.075 70.8251 131.531C70.8251 128.987 70.3304 126.849 69.3411 125.118C68.3517 123.351 67.0444 122.044 65.4191 121.196C63.7937 120.313 62.0271 119.871 60.1191 119.871C58.2111 119.871 56.4444 120.313 54.8191 121.196C53.1937 122.044 51.8864 123.351 50.8971 125.118C49.9431 126.849 49.4661 128.987 49.4661 131.531C49.4661 134.075 49.9431 136.23 50.8971 137.997C51.8864 139.728 53.1761 141.036 54.7661 141.919C56.3914 142.767 58.1581 143.191 60.0661 143.191ZM85.0553 122.203C85.8679 120.401 87.1046 119.005 88.7653 118.016C90.4613 117.027 92.5283 116.532 94.9663 116.532V120.401H93.9593C91.2739 120.401 89.1186 121.125 87.4933 122.574C85.8679 124.023 85.0553 126.443 85.0553 129.835V146H81.3453V117.062H85.0553V122.203ZM116.124 146L104.199 133.015V146H100.489V106.78H104.199V129.994L115.859 117.062H121.053L107.326 131.478L121.159 146H116.124ZM135.859 146.424C132.538 146.424 129.817 145.664 127.697 144.145C125.612 142.59 124.446 140.488 124.199 137.838H128.015C128.192 139.463 128.951 140.788 130.294 141.813C131.672 142.802 133.509 143.297 135.806 143.297C137.82 143.297 139.392 142.82 140.523 141.866C141.689 140.912 142.272 139.728 142.272 138.315C142.272 137.326 141.954 136.513 141.318 135.877C140.682 135.241 139.869 134.746 138.88 134.393C137.926 134.004 136.619 133.598 134.958 133.174C132.803 132.609 131.054 132.043 129.711 131.478C128.368 130.913 127.22 130.082 126.266 128.987C125.347 127.856 124.888 126.355 124.888 124.482C124.888 123.069 125.312 121.761 126.16 120.56C127.008 119.359 128.209 118.405 129.764 117.698C131.319 116.991 133.085 116.638 135.064 116.638C138.173 116.638 140.682 117.433 142.59 119.023C144.498 120.578 145.523 122.733 145.664 125.489H141.954C141.848 123.793 141.177 122.433 139.94 121.408C138.739 120.348 137.078 119.818 134.958 119.818C133.085 119.818 131.566 120.26 130.4 121.143C129.234 122.026 128.651 123.122 128.651 124.429C128.651 125.56 128.987 126.496 129.658 127.238C130.365 127.945 131.23 128.51 132.255 128.934C133.28 129.323 134.658 129.764 136.389 130.259C138.474 130.824 140.134 131.372 141.371 131.902C142.608 132.432 143.668 133.209 144.551 134.234C145.434 135.259 145.894 136.619 145.929 138.315C145.929 139.87 145.505 141.265 144.657 142.502C143.809 143.703 142.625 144.657 141.106 145.364C139.587 146.071 137.838 146.424 135.859 146.424ZM161.811 108.476C164.072 108.476 166.068 108.918 167.8 109.801C169.566 110.684 170.927 111.956 171.881 113.617C172.87 115.242 173.365 117.133 173.365 119.288C173.365 123.104 172.181 125.913 169.814 127.715C167.482 129.482 164.284 130.365 160.221 130.365L160.062 136.195H156.882L156.67 127.715H158.048C161.687 127.715 164.549 127.15 166.634 126.019C168.754 124.853 169.814 122.609 169.814 119.288C169.814 116.956 169.072 115.101 167.588 113.723C166.139 112.345 164.213 111.656 161.811 111.656C159.408 111.656 157.5 112.31 156.087 113.617C154.673 114.924 153.967 116.709 153.967 118.97H150.416C150.416 116.85 150.893 115.013 151.847 113.458C152.836 111.868 154.179 110.649 155.875 109.801C157.606 108.918 159.585 108.476 161.811 108.476ZM158.472 146.265C157.694 146.265 157.041 146 156.511 145.47C156.016 144.94 155.769 144.286 155.769 143.509C155.769 142.732 156.016 142.096 156.511 141.601C157.041 141.071 157.694 140.806 158.472 140.806C159.214 140.806 159.832 141.071 160.327 141.601C160.857 142.096 161.122 142.732 161.122 143.509C161.122 144.286 160.857 144.94 160.327 145.47C159.832 146 159.214 146.265 158.472 146.265Z" fill="#062D4A"/>
<path d="M17.066 92.371C12.72 92.371 9.15133 91.3463 6.36 89.297C3.56867 87.2123 2.067 84.2443 1.855 80.393H12.932C13.038 81.7003 13.4267 82.6543 14.098 83.255C14.7693 83.8557 15.635 84.156 16.695 84.156C17.649 84.156 18.4263 83.9263 19.027 83.467C19.663 82.9723 19.981 82.301 19.981 81.453C19.981 80.3577 19.4687 79.5097 18.444 78.909C17.4193 78.3083 15.7587 77.637 13.462 76.895C11.024 76.0823 9.04533 75.305 7.526 74.563C6.042 73.7857 4.73467 72.6727 3.604 71.224C2.50867 69.74 1.961 67.8143 1.961 65.447C1.961 63.0443 2.56167 60.995 3.763 59.299C4.96433 57.5677 6.625 56.2603 8.745 55.377C10.865 54.4937 13.2677 54.052 15.953 54.052C20.299 54.052 23.7617 55.0767 26.341 57.126C28.9557 59.14 30.3513 61.9843 30.528 65.659H19.239C19.2037 64.5283 18.8503 63.6803 18.179 63.115C17.543 62.5497 16.7127 62.267 15.688 62.267C14.9107 62.267 14.2747 62.4967 13.78 62.956C13.2853 63.4153 13.038 64.069 13.038 64.917C13.038 65.6237 13.303 66.242 13.833 66.772C14.3983 67.2667 15.0873 67.7083 15.9 68.097C16.7127 68.4503 17.914 68.9097 19.504 69.475C21.8713 70.2877 23.8147 71.1003 25.334 71.913C26.8887 72.6903 28.2137 73.8033 29.309 75.252C30.4397 76.6653 31.005 78.4673 31.005 80.658C31.005 82.884 30.4397 84.8803 29.309 86.647C28.2137 88.4137 26.606 89.8093 24.486 90.834C22.4013 91.8587 19.928 92.371 17.066 92.371ZM88.4045 54.635L79.2355 92H66.4625L61.3215 69.104L56.0745 92H43.3015L34.2385 54.635H45.4745L49.8205 80.181L55.7035 54.635H67.0985L72.8225 79.969L77.1685 54.635H88.4045ZM116.392 85.905H103.142L101.128 92H90.2099L103.831 54.635H115.809L129.377 92H118.406L116.392 85.905ZM113.795 77.955L109.767 65.871L105.792 77.955H113.795ZM162.225 67.09C162.225 69.3513 161.695 71.4183 160.635 73.291C159.61 75.1283 158.038 76.6123 155.918 77.743C153.833 78.8383 151.272 79.386 148.233 79.386H143.092V92H132.704V54.635H148.233C151.236 54.635 153.78 55.165 155.865 56.225C157.985 57.285 159.575 58.7513 160.635 60.624C161.695 62.4967 162.225 64.652 162.225 67.09ZM147.226 71.118C150.159 71.118 151.625 69.7753 151.625 67.09C151.625 64.3693 150.159 63.009 147.226 63.009H143.092V71.118H147.226ZM195.861 67.09C195.861 69.3513 195.331 71.4183 194.271 73.291C193.246 75.1283 191.674 76.6123 189.554 77.743C187.469 78.8383 184.907 79.386 181.869 79.386H176.728V92H166.34V54.635H181.869C184.872 54.635 187.416 55.165 189.501 56.225C191.621 57.285 193.211 58.7513 194.271 60.624C195.331 62.4967 195.861 64.652 195.861 67.09ZM180.862 71.118C183.794 71.118 185.261 69.7753 185.261 67.09C185.261 64.3693 183.794 63.009 180.862 63.009H176.728V71.118H180.862ZM214.073 92.371C209.727 92.371 206.159 91.3463 203.367 89.297C200.576 87.2123 199.074 84.2443 198.862 80.393H209.939C210.045 81.7003 210.434 82.6543 211.105 83.255C211.777 83.8557 212.642 84.156 213.702 84.156C214.656 84.156 215.434 83.9263 216.034 83.467C216.67 82.9723 216.988 82.301 216.988 81.453C216.988 80.3577 216.476 79.5097 215.451 78.909C214.427 78.3083 212.766 77.637 210.469 76.895C208.031 76.0823 206.053 75.305 204.533 74.563C203.049 73.7857 201.742 72.6727 200.611 71.224C199.516 69.74 198.968 67.8143 198.968 65.447C198.968 63.0443 199.569 60.995 200.77 59.299C201.972 57.5677 203.632 56.2603 205.752 55.377C207.872 54.4937 210.275 54.052 212.96 54.052C217.306 54.052 220.769 55.0767 223.348 57.126C225.963 59.14 227.359 61.9843 227.535 65.659H216.246C216.211 64.5283 215.858 63.6803 215.186 63.115C214.55 62.5497 213.72 62.267 212.695 62.267C211.918 62.267 211.282 62.4967 210.787 62.956C210.293 63.4153 210.045 64.069 210.045 64.917C210.045 65.6237 210.31 66.242 210.84 66.772C211.406 67.2667 212.095 67.7083 212.907 68.097C213.72 68.4503 214.921 68.9097 216.511 69.475C218.879 70.2877 220.822 71.1003 222.341 71.913C223.896 72.6903 225.221 73.8033 226.316 75.252C227.447 76.6653 228.012 78.4673 228.012 80.658C228.012 82.884 227.447 84.8803 226.316 86.647C225.221 88.4137 223.613 89.8093 221.493 90.834C219.409 91.8587 216.935 92.371 214.073 92.371Z" fill="url(#paint0_linear_57_2067)"/>
<defs>
<linearGradient id="paint0_linear_57_2067" x1="57" y1="86.6615" x2="234.535" y2="41.8725" gradientUnits="userSpaceOnUse">
<stop stop-color="#52B4FF"/>
<stop offset="1" stop-color="#7A85E5"/>
</linearGradient>
</defs>
</svg>
