<svg width="47" height="46" viewBox="0 0 47 46" fill="none" xmlns="http://www.w3.org/2000/svg">
<path d="M13.2431 17.0145L9.4741 18.9784V9.06324C9.4741 6.10473 11.8922 3.69788 14.8645 3.69788H19.0758L18.8653 4.23892C18.4656 5.26797 18.2551 6.29436 18.2431 7.29026C18.2405 7.50774 18.2405 7.77958 18.2431 8.10315L18.2458 8.50363H14.8658C14.5554 8.50363 14.3036 8.75426 14.3036 9.06324V16.4641L13.2444 17.0145H13.2431ZM29.2864 7.2823C29.289 7.5011 29.2904 7.77693 29.289 8.10315L29.2864 8.50363H32.665C32.9754 8.50363 33.2272 8.75426 33.2272 9.06324V14.3278H31.5526C31.2715 14.3278 31.0196 14.4724 30.8798 14.715C30.7385 14.9577 30.7385 15.2468 30.8798 15.4895L35.0111 22.6119C35.1524 22.8546 35.4042 22.9991 35.6853 22.9991C35.9664 22.9991 36.2182 22.8546 36.3581 22.6119L40.4895 15.4895C40.6307 15.2468 40.6307 14.9577 40.4895 14.715C40.3496 14.4724 40.0978 14.3278 39.8167 14.3278H38.0567V9.06324C38.0567 6.10473 35.6386 3.69788 32.6663 3.69788H28.4497L28.6615 4.24025C29.0625 5.26532 29.273 6.28906 29.2864 7.2823ZM33.2286 38.6549C33.2286 38.9639 32.9768 39.2145 32.6663 39.2145H14.8645C14.5541 39.2145 14.3023 38.9639 14.3023 38.6549V31.1864H16.1568C16.4379 31.1864 16.6897 31.0419 16.8296 30.7992C16.9708 30.5565 16.9708 30.2674 16.8296 30.0247L12.6982 22.9023C12.557 22.6596 12.3052 22.5151 12.0254 22.5151C11.7456 22.5151 11.4925 22.6596 11.3526 22.9023L7.22122 30.0247C7.08133 30.2674 7.08133 30.5565 7.22122 30.7992C7.36111 31.0419 7.61291 31.1864 7.89402 31.1864H9.4741V40.0752C9.4741 43.0337 11.8922 45.4405 14.8645 45.4405H32.665C35.6373 45.4405 38.0554 43.0337 38.0554 40.0752V28.761L33.2272 28.139V38.6549H33.2286ZM46.6819 27.057C46.6792 27.0092 46.6765 26.9628 46.6726 26.9137C46.6686 26.8647 46.6619 26.8143 46.6552 26.7639C46.6486 26.7148 46.6432 26.6658 46.6366 26.6167C46.6286 26.5663 46.6193 26.5159 46.6099 26.4655C46.6006 26.4164 46.5926 26.3674 46.5833 26.3196C46.5726 26.2693 46.5593 26.2202 46.5473 26.1698C46.5353 26.1234 46.5247 26.0756 46.5127 26.0292C46.4994 25.9802 46.4834 25.9324 46.4687 25.8847C46.4554 25.8409 46.4434 25.7958 46.4287 25.7547C46.4128 25.7057 46.3941 25.6606 46.3768 25.6155C46.3621 25.5784 46.3488 25.5386 46.3342 25.5028C46.3142 25.455 46.2929 25.4139 46.2715 25.3702C46.2569 25.3397 46.2436 25.3078 46.2289 25.2787C46.2049 25.2336 46.1796 25.1951 46.1543 25.1553C46.141 25.1354 46.129 25.1116 46.1157 25.093C46.077 25.0386 46.0371 24.9909 45.9971 24.9524C45.5987 24.5719 42.4119 22.8625 38.6043 20.8654L36.7258 24.1037C36.5792 24.3557 36.3541 24.5612 36.077 24.6567C35.5241 24.8477 34.9405 24.6103 34.6674 24.1369L30.6519 17.2134C30.556 17.0476 30.4734 16.8752 30.4188 16.6922C30.4081 16.6564 30.3988 16.6206 30.3908 16.5848C29.4209 16.0783 28.515 15.6048 27.7169 15.1831C27.8195 11.5178 27.8848 8.53678 27.8662 7.30484C27.8502 6.17236 27.5171 5.07569 27.0481 4.09703C26.8483 3.68197 26.6258 3.28679 26.39 2.92212C26.1808 2.59855 25.9623 2.30018 25.7452 2.02568C25.7279 2.00314 25.7092 1.97794 25.6919 1.9554C25.6532 1.90766 25.6159 1.86655 25.5786 1.82146C25.2642 1.44353 24.9538 1.11863 24.678 0.871982C24.654 0.850764 24.6341 0.834851 24.6101 0.81496C24.3303 0.572285 24.0878 0.402546 23.9173 0.333589C23.8893 0.321654 23.8693 0.321654 23.8453 0.31635C23.812 0.305741 23.7801 0.29248 23.7574 0.29248C23.7161 0.29248 23.6628 0.305741 23.6015 0.330937C23.3551 0.43172 22.9647 0.73009 22.5211 1.17698C22.4105 1.28837 22.2959 1.41037 22.1813 1.54033C21.6031 2.19011 20.981 3.05605 20.5013 4.04797C20.3095 4.44447 20.139 4.86086 20.0044 5.29184C19.8685 5.72282 19.7686 6.16838 19.7126 6.62191C19.6847 6.84867 19.6687 7.07808 19.666 7.30882C19.6513 8.54076 19.7193 11.5165 19.8245 15.1778C18.1845 16.0438 16.0888 17.1338 13.9026 18.2703L9.87378 20.3695C5.65979 22.5721 1.96673 24.54 1.53507 24.9511C1.4951 24.9896 1.45513 25.0373 1.4165 25.0917C1.40317 25.1103 1.39118 25.1341 1.37786 25.1553C1.35255 25.1951 1.32723 25.2323 1.30325 25.2773C1.2886 25.3039 1.27527 25.3357 1.26195 25.3635C1.24064 25.4086 1.21799 25.4511 1.198 25.5001C1.18335 25.5333 1.17136 25.5704 1.15803 25.6062C1.13938 25.6553 1.12073 25.703 1.10341 25.7534C1.09009 25.7932 1.0781 25.8356 1.06611 25.8754C1.05012 25.9258 1.03413 25.9762 1.01948 26.0279C1.00749 26.0703 0.998161 26.1141 0.987503 26.1579C0.97418 26.2122 0.960858 26.2653 0.948867 26.3196C0.939541 26.3634 0.93288 26.4072 0.923554 26.4509C0.912896 26.5066 0.902238 26.561 0.894244 26.6167C0.887583 26.6618 0.882253 26.7069 0.876924 26.7519C0.870263 26.8063 0.862269 26.8607 0.858272 26.9137C0.854276 26.9588 0.852943 27.0026 0.850279 27.0477C0.847614 27.0994 0.843617 27.1524 0.842285 27.2028C0.842285 27.2466 0.842285 27.2877 0.843617 27.3301C0.843617 27.3792 0.84495 27.4283 0.847614 27.476C0.850279 27.5171 0.855608 27.5556 0.859605 27.5953C0.864934 27.6404 0.870263 27.6842 0.876924 27.7266C0.883586 27.7638 0.892912 27.7969 0.900905 27.8314C0.910231 27.8698 0.920889 27.9096 0.93288 27.9454C0.943538 27.9773 0.958193 28.0051 0.970184 28.0343C0.984839 28.0661 0.999494 28.0979 1.01681 28.1258C1.0328 28.151 1.05145 28.1722 1.06877 28.1934C1.08876 28.2173 1.10874 28.2411 1.13139 28.2597C1.15271 28.277 1.17535 28.2902 1.19933 28.3035C1.22465 28.3181 1.25129 28.3313 1.27927 28.3406C1.30592 28.3486 1.33389 28.3525 1.3632 28.3565C1.40717 28.3618 1.4498 28.3685 1.4991 28.3618C1.62433 28.3459 1.75623 28.3287 1.89478 28.3101C2.1719 28.2743 2.47299 28.2345 2.79673 28.1934C3.60542 28.0886 4.54867 27.9666 5.57586 27.834C5.9862 27.781 6.40986 27.7266 6.84418 27.6709C7.02671 27.6471 7.21189 27.6232 7.39708 27.5993L10.9876 21.4105C11.1341 21.1585 11.3593 20.953 11.6364 20.8575C12.1893 20.6665 12.7728 20.9052 13.0459 21.3773L16.0116 26.4907C17.7129 26.2719 19.1824 26.0836 20.1696 25.9563C20.2828 29.3047 20.3948 36.2282 20.4787 39.2145H27.0774C27.1587 36.2282 27.2693 29.3073 27.3799 25.9589C31.1849 26.4483 42.0269 27.842 46.0317 28.3631C46.081 28.3698 46.1236 28.3631 46.1676 28.3578C46.1969 28.3539 46.2249 28.3512 46.2515 28.3419C46.2795 28.3326 46.3062 28.3194 46.3315 28.3048C46.3555 28.2915 46.3781 28.2783 46.3994 28.261C46.4221 28.2425 46.4421 28.2186 46.462 28.1947C46.4807 28.1735 46.4994 28.151 46.5153 28.1258C46.5327 28.0979 46.5473 28.0674 46.562 28.0356C46.5753 28.0064 46.5899 27.9773 46.6006 27.9454C46.6126 27.911 46.6219 27.8725 46.6312 27.8354C46.6406 27.7996 46.6499 27.7638 46.6566 27.7253C46.6632 27.6855 46.6685 27.6418 46.6739 27.5993C46.6792 27.5582 46.6845 27.5184 46.6872 27.4747C46.6899 27.4296 46.6912 27.3832 46.6912 27.3368C46.6912 27.2917 46.6939 27.2479 46.6925 27.2015C46.6925 27.1538 46.6885 27.1047 46.6859 27.0556L46.6819 27.057ZM27.232 43.4182H20.2988C19.726 43.4182 19.2557 42.9515 19.2557 42.3799C19.2557 41.8097 19.7246 41.3416 20.2988 41.3416H27.232C27.8049 41.3416 28.2752 41.8084 28.2752 42.3799C28.2752 42.9501 27.8062 43.4182 27.232 43.4182Z" fill="white"/>
</svg>
