<svg width="224" height="54" viewBox="0 0 224 54" fill="none" xmlns="http://www.w3.org/2000/svg">
<path d="M0.221191 42.9326H5.938V43.6594H1.05346V47.4635H5.15164V48.1903H1.05346V52.626H6.09297V53.3355H0.221191V42.9326Z" fill="url(#paint0_linear_561_352)"/>
<path d="M13.3021 49.843H9.2814L8.10475 53.3298H7.25527L10.8656 42.9298H11.7294L15.3569 53.3298H14.4615L13.2992 49.843H13.3021ZM13.0811 49.1479L12.4526 47.2704C11.982 45.8716 11.606 44.6834 11.3219 43.7028H11.2587C10.9976 44.6487 10.6245 45.8399 10.1452 47.2704L9.51673 49.1479H13.0811Z" fill="url(#paint1_linear_561_352)"/>
<path d="M18.0518 53.102C17.4606 52.8222 16.944 52.4415 16.5049 51.957L17.0243 51.3888C17.4118 51.8214 17.8652 52.156 18.3818 52.3983C18.9012 52.6405 19.4465 52.7616 20.0234 52.7616C20.7868 52.7616 21.3952 52.5771 21.8457 52.2079C22.2963 51.8387 22.5202 51.3571 22.5202 50.7572C22.5202 50.3563 22.4427 50.0304 22.2848 49.7795C22.127 49.5257 21.929 49.3209 21.6879 49.1652C21.4468 49.0066 21.111 48.8335 20.6834 48.6432L19.128 47.9481C18.5109 47.6741 18.0087 47.3425 17.6213 46.9531C17.2338 46.5638 17.0416 46.0273 17.0416 45.3438C17.0416 44.8506 17.1736 44.4036 17.4347 44.0114C17.6959 43.6162 18.0604 43.3105 18.5253 43.0885C18.9902 42.8664 19.5125 42.7568 20.0865 42.7568C20.6605 42.7568 21.2172 42.8722 21.7195 43.1029C22.2217 43.3336 22.6522 43.6335 23.008 44.0027L22.5374 44.5565C21.8687 43.8527 21.0508 43.498 20.0865 43.498C19.4264 43.498 18.8926 43.6624 18.4851 43.9883C18.0776 44.3142 17.8738 44.7526 17.8738 45.2977C17.8738 45.6553 17.9599 45.9581 18.1321 46.2061C18.3043 46.4542 18.5081 46.6474 18.7434 46.7887C18.9787 46.93 19.2801 47.0858 19.6474 47.2531L21.2029 47.9308C21.8945 48.2365 22.4283 48.5942 22.8043 49.0037C23.1802 49.4132 23.3696 49.9756 23.3696 50.6909C23.3696 51.2187 23.2319 51.6945 22.9535 52.1272C22.6751 52.5598 22.2848 52.8972 21.7769 53.1452C21.2689 53.3933 20.6863 53.5173 20.0262 53.5173C19.303 53.5173 18.6458 53.3788 18.0546 53.0991L18.0518 53.102Z" fill="url(#paint2_linear_561_352)"/>
<path d="M27.2612 49.1479L24.1531 42.9298H25.0313L26.5696 46.134C26.9139 46.8926 27.2698 47.6395 27.6372 48.375H27.7003C27.7204 48.3231 27.7491 48.2654 27.7864 48.2019C27.8237 48.1385 27.861 48.0664 27.9041 47.9798C27.9758 47.8328 28.1136 47.5703 28.3116 47.1896C28.5096 46.8118 28.6789 46.4599 28.8138 46.1312L30.3377 42.9269H31.1843L28.0906 49.145V53.3269H27.2583V49.145L27.2612 49.1479Z" fill="url(#paint3_linear_561_352)"/>
<path d="M38.7063 43.6566H35.4404V42.9298H42.8045V43.6566H39.5386V53.3298H38.7063V43.6566Z" fill="url(#paint4_linear_561_352)"/>
<path d="M46.1508 52.8482C45.5022 52.4011 44.9942 51.7695 44.6268 50.9533C44.2595 50.1371 44.0758 49.1883 44.0758 48.1039C44.0758 47.0195 44.2595 46.0764 44.6268 45.2717C44.9942 44.467 45.5022 43.847 46.1508 43.4086C46.7993 42.9731 47.5369 42.7539 48.3634 42.7539C49.19 42.7539 49.9448 42.9731 50.5933 43.4086C51.2419 43.8441 51.747 44.467 52.1086 45.2717C52.4702 46.0764 52.651 47.0195 52.651 48.1039C52.651 49.1883 52.4702 50.1371 52.1086 50.9533C51.747 51.7695 51.2419 52.4011 50.5933 52.8482C49.9448 53.2952 49.2014 53.5202 48.3634 53.5202C47.5254 53.5202 46.7993 53.2981 46.1508 52.8482ZM50.1629 52.1848C50.6823 51.8012 51.0812 51.259 51.3653 50.5582C51.6466 49.8603 51.7901 49.0412 51.7901 48.1039C51.7901 47.1665 51.6495 46.3532 51.3653 45.6582C51.0812 44.9631 50.6823 44.4296 50.1629 44.0575C49.6434 43.6855 49.0465 43.498 48.3663 43.498C47.6861 43.498 47.0892 43.6855 46.5755 44.0575C46.0618 44.4324 45.6657 44.966 45.3816 45.6582C45.0975 46.3532 44.9569 47.1665 44.9569 48.1039C44.9569 49.0412 45.0975 49.8458 45.3816 50.5496C45.6629 51.2533 46.0647 51.7984 46.5841 52.182C47.1036 52.5655 47.6976 52.7588 48.3663 52.7588C49.035 52.7588 49.6463 52.5655 50.1629 52.182V52.1848Z" fill="url(#paint5_linear_561_352)"/>
<path d="M58.7897 42.9327H64.5065V43.6595H59.622V47.4636H63.7202V48.1904H59.622V52.6261H64.6615V53.3356H58.7897V42.9327Z" fill="url(#paint6_linear_561_352)"/>
<path d="M69.061 47.951L66.1883 42.9327H67.098L68.7482 45.9322L69.5805 47.3684H69.6436C69.9995 46.6647 70.252 46.186 70.3984 45.9322L72.0486 42.9327H72.9124L70.0397 47.9972L73.1162 53.3298H72.2064L70.4644 50.2064L69.5231 48.5653H69.4599L68.5961 50.2064L66.8541 53.3298H65.9902L69.0668 47.9481L69.061 47.951Z" fill="url(#paint7_linear_561_352)"/>
<path d="M75.1997 42.9327H77.8687C79.0941 42.9327 80.0268 43.1606 80.6726 43.6191C81.3154 44.0777 81.6397 44.8276 81.6397 45.8687C81.6397 46.9099 81.3154 47.6424 80.6668 48.1558C80.0182 48.672 79.1056 48.9287 77.9347 48.9287H76.0348V53.3327H75.2026V42.9327H75.1997ZM77.7424 48.2336C78.7784 48.2336 79.5447 48.0462 80.0441 47.6741C80.5406 47.3021 80.7902 46.6993 80.7902 45.8658C80.7902 45.0323 80.5406 44.4699 80.0441 44.1383C79.5476 43.8066 78.7583 43.6422 77.6821 43.6422H76.032V48.2336H77.7424Z" fill="url(#paint8_linear_561_352)"/>
<path d="M84.1824 42.9327H89.8992V43.6595H85.0147V47.4636H89.1129V48.1904H85.0147V52.6261H90.0542V53.3356H84.1824V42.9327Z" fill="url(#paint9_linear_561_352)"/>
<path d="M98.3137 53.3298L95.5816 48.6288H93.4464V53.3298H92.6141V42.9298H95.6132C96.7009 42.9298 97.5503 43.1548 98.1559 43.6018C98.7643 44.0489 99.0656 44.7526 99.0656 45.7072C99.0656 46.5176 98.8389 47.1637 98.3826 47.6482C97.9263 48.1327 97.2921 48.4384 96.4741 48.5624L99.2837 53.3269H98.3109L98.3137 53.3298ZM95.4238 47.9337C96.3335 47.9337 97.028 47.7491 97.5044 47.38C97.9808 47.0108 98.219 46.4542 98.219 45.7072C98.219 44.9602 97.9865 44.4411 97.5216 44.121C97.0567 43.8008 96.3565 43.6393 95.4266 43.6393H93.4493V47.9308H95.4266L95.4238 47.9337Z" fill="url(#paint10_linear_561_352)"/>
<path d="M101.531 42.9327H102.363V53.3327H101.531V42.9327Z" fill="url(#paint11_linear_561_352)"/>
<path d="M105.692 42.9327H111.409V43.6595H106.524V47.4636H110.623V48.1904H106.524V52.6261H111.564V53.3356H105.692V42.9327Z" fill="url(#paint12_linear_561_352)"/>
<path d="M114.124 42.9327H114.988L119.227 50.1112L120.389 52.2108H120.452L120.42 51.6109C120.409 51.4004 120.395 51.0341 120.375 50.515C120.354 49.9958 120.343 49.5286 120.343 49.1191V42.9327H121.129V53.3327H120.265L116.027 46.1513L114.864 44.069H114.801L114.833 44.6689C114.844 44.8593 114.859 45.2025 114.879 45.7014C114.899 46.2004 114.91 46.6561 114.91 47.0656V53.3298H114.124V42.9298V42.9327Z" fill="url(#paint13_linear_561_352)"/>
<path d="M125.902 52.8568C125.242 52.4156 124.728 51.7868 124.355 50.9706C123.985 50.1544 123.798 49.2056 123.798 48.1212C123.798 47.0368 123.988 46.0908 124.364 45.2804C124.74 44.4699 125.265 43.847 125.933 43.4115C126.602 42.976 127.377 42.7568 128.258 42.7568C128.823 42.7568 129.34 42.875 129.805 43.1115C130.27 43.348 130.66 43.6451 130.976 44.0027L130.488 44.5565C129.871 43.8527 129.128 43.498 128.258 43.498C127.535 43.498 126.906 43.6855 126.367 44.0575C125.827 44.4324 125.411 44.966 125.118 45.6582C124.826 46.3532 124.679 47.1665 124.679 48.1039C124.679 49.0412 124.823 49.8603 125.11 50.5669C125.397 51.2706 125.804 51.8128 126.335 52.1935C126.863 52.5713 127.489 52.7616 128.212 52.7616C128.726 52.7616 129.188 52.6578 129.601 52.4531C130.014 52.2483 130.405 51.931 130.772 51.4984L131.26 52.0349C130.841 52.5194 130.385 52.8857 129.885 53.1395C129.389 53.3933 128.815 53.5173 128.166 53.5173C127.317 53.5173 126.565 53.2952 125.905 52.8539L125.902 52.8568Z" fill="url(#paint14_linear_561_352)"/>
<path d="M133.659 42.9327H139.376V43.6595H134.491V47.4636H138.59V48.1904H134.491V52.6261H139.531V53.3356H133.659V42.9327Z" fill="url(#paint15_linear_561_352)"/>
<path d="M147.759 43.6566H144.493V42.9298H151.857V43.6566H148.591V53.3298H147.759V43.6566Z" fill="url(#paint16_linear_561_352)"/>
<path d="M154.133 42.9327H154.965V47.4607H160.352V42.9327H161.184V53.3327H160.352V48.1875H154.965V53.3327H154.133V42.9327Z" fill="url(#paint17_linear_561_352)"/>
<path d="M164.513 42.9327H170.23V43.6595H165.346V47.4636H169.444V48.1904H165.346V52.6261H170.385V53.3356H164.513V42.9327Z" fill="url(#paint18_linear_561_352)"/>
<path d="M175.316 42.9327H176.179L177.451 48.9777C177.597 49.7362 177.827 50.861 178.142 52.355H178.205C178.383 51.5244 178.639 50.3996 178.975 48.9777L180.562 42.9327H181.394L182.981 48.9777L183.782 52.355H183.845C184.003 51.608 184.143 50.8783 184.27 50.1631L184.505 48.9806L185.776 42.9356H186.577L184.301 53.3356H183.36L181.537 46.3619L181.46 46.0475L181.004 44.0287H180.94L180.705 44.9919C180.662 45.139 180.608 45.3525 180.542 45.6322C180.473 45.912 180.418 46.1542 180.375 46.3648L178.57 53.3385H177.643L175.318 42.9385L175.316 42.9327Z" fill="url(#paint19_linear_561_352)"/>
<path d="M190.124 52.8482C189.475 52.4011 188.968 51.7695 188.6 50.9533C188.233 50.1371 188.049 49.1883 188.049 48.1039C188.049 47.0195 188.233 46.0764 188.6 45.2717C188.968 44.467 189.475 43.847 190.124 43.4086C190.773 42.9731 191.51 42.7539 192.337 42.7539C193.163 42.7539 193.918 42.9731 194.567 43.4086C195.215 43.8441 195.72 44.467 196.082 45.2717C196.444 46.0764 196.624 47.0195 196.624 48.1039C196.624 49.1883 196.444 50.1371 196.082 50.9533C195.72 51.7695 195.215 52.4011 194.567 52.8482C193.918 53.2952 193.175 53.5202 192.337 53.5202C191.499 53.5202 190.773 53.2981 190.124 52.8482ZM194.136 52.1848C194.656 51.8012 195.055 51.259 195.339 50.5582C195.62 49.8603 195.763 49.0412 195.763 48.1039C195.763 47.1665 195.623 46.3532 195.339 45.6582C195.055 44.9631 194.656 44.4296 194.136 44.0575C193.617 43.6855 193.02 43.498 192.34 43.498C191.659 43.498 191.063 43.6855 190.549 44.0575C190.035 44.4324 189.639 44.966 189.355 45.6582C189.071 46.3532 188.93 47.1665 188.93 48.1039C188.93 49.0412 189.071 49.8458 189.355 50.5496C189.636 51.2533 190.038 51.7984 190.557 52.182C191.077 52.5655 191.671 52.7588 192.34 52.7588C193.008 52.7588 193.62 52.5655 194.136 52.182V52.1848Z" fill="url(#paint20_linear_561_352)"/>
<path d="M205.01 53.3298L202.278 48.6288H200.143V53.3298H199.311V42.9298H202.31C203.397 42.9298 204.247 43.1548 204.852 43.6018C205.461 44.0489 205.762 44.7526 205.762 45.7072C205.762 46.5176 205.535 47.1637 205.079 47.6482C204.623 48.1327 203.988 48.4384 203.171 48.5624L205.98 53.3269H205.007L205.01 53.3298ZM202.12 47.9337C203.03 47.9337 203.724 47.7491 204.201 47.38C204.677 47.0108 204.915 46.4542 204.915 45.7072C204.915 44.9602 204.683 44.4411 204.218 44.121C203.753 43.8008 203.053 43.6393 202.123 43.6393H200.146V47.9308H202.123L202.12 47.9337Z" fill="url(#paint21_linear_561_352)"/>
<path d="M208.227 42.9327H209.06V52.6203H213.769V53.3298H208.227V42.9298V42.9327Z" fill="url(#paint22_linear_561_352)"/>
<path d="M215.939 42.9327H218.358C219.928 42.9327 221.11 43.3884 221.908 44.2969C222.703 45.2083 223.102 46.4772 223.102 48.1068C223.102 49.7363 222.703 51.0168 221.908 51.9426C221.113 52.8684 219.939 53.3298 218.39 53.3298H215.939V42.9298V42.9327ZM218.295 52.6203C219.615 52.6203 220.599 52.2166 221.254 51.4119C221.908 50.6072 222.235 49.5055 222.235 48.1068C222.235 46.708 221.908 45.6149 221.254 44.8247C220.599 44.0344 219.612 43.6422 218.295 43.6422H216.771V52.6203H218.295Z" fill="url(#paint23_linear_561_352)"/>
<path d="M7.17791 30.3436C4.96236 29.7581 3.16008 28.9794 1.77393 28.0046L4.47448 21.9077C5.77741 22.77 7.28697 23.4679 9.00603 23.9957C10.7222 24.5264 12.4154 24.7888 14.0771 24.7888C17.2368 24.7888 18.8153 23.9957 18.8153 22.4095C18.8153 21.5731 18.3647 20.9559 17.4636 20.5521C16.5624 20.1484 15.116 19.7244 13.1214 19.2774C10.9317 18.8044 9.1036 18.2968 7.63423 17.7517C6.16485 17.2095 4.90496 16.3385 3.85172 15.1416C2.79847 13.9447 2.27328 12.3296 2.27328 10.2964C2.27328 8.51401 2.75829 6.90758 3.72831 5.47131C4.69833 4.03792 6.14475 2.90159 8.07044 2.06809C9.99613 1.23171 12.358 0.816406 15.1562 0.816406C17.0675 0.816406 18.953 1.03271 20.807 1.46244C22.6638 1.89505 24.2996 2.52666 25.7116 3.36304L23.1775 9.50324C20.4052 8.00064 17.719 7.2479 15.116 7.2479C13.4802 7.2479 12.2892 7.49304 11.543 7.97757C10.794 8.46498 10.4209 9.09947 10.4209 9.87817C10.4209 10.6569 10.8628 11.2423 11.7496 11.6317C12.6364 12.021 14.0628 12.4248 16.0315 12.843C18.247 13.316 20.0838 13.8236 21.5388 14.3687C22.9938 14.9109 24.2537 15.7761 25.3213 16.9586C26.3889 18.1411 26.9227 19.7504 26.9227 21.7836C26.9227 23.5372 26.4377 25.1234 25.4677 26.5452C24.4976 27.9642 23.0426 29.1005 21.1026 29.9485C19.1625 30.7964 16.8064 31.2232 14.0369 31.2232C11.6808 31.2232 9.39633 30.9319 7.18078 30.3465L7.17791 30.3436Z" fill="url(#paint24_linear_561_352)"/>
<path d="M82.1507 1.39899L72.7174 30.6349H63.9068L58.3364 12.843L52.5192 30.6349H43.7086L34.2753 1.39899H42.753L48.6133 20.0676L54.7634 1.39899H62.3284L68.1887 20.2349L74.2987 1.39899H82.1535H82.1507Z" fill="url(#paint25_linear_561_352)"/>
<path d="M97.1114 24.9561L94.827 30.6349H86.4325L99.2753 1.39899H107.38L120.263 30.6349H111.702L109.417 24.9561H97.1114ZM107.004 18.8592L103.264 9.50324L99.5249 18.8592H107.007H107.004Z" fill="url(#paint26_linear_561_352)"/>
<path d="M148.565 2.71413C150.506 3.59089 152.001 4.84546 153.054 6.47208C154.107 8.10158 154.632 10.0166 154.632 12.2143C154.632 14.4119 154.107 16.3212 153.054 17.9363C152.001 19.5514 150.506 20.7973 148.565 21.674C146.625 22.5508 144.341 22.9892 141.709 22.9892H136.638V30.632H128.41V1.39899H141.709C144.341 1.39899 146.628 1.83737 148.565 2.71413ZM145.033 15.3695C145.891 14.6311 146.321 13.5813 146.321 12.2172C146.321 10.853 145.891 9.79453 145.033 9.04179C144.175 8.28905 142.897 7.91412 141.21 7.91412H136.638V16.4769H141.21C142.9 16.4769 144.175 16.1078 145.033 15.3695Z" fill="url(#paint27_linear_561_352)"/>
<path d="M184.6 2.71413C186.54 3.59089 188.035 4.84546 189.088 6.47208C190.141 8.10158 190.667 10.0166 190.667 12.2143C190.667 14.4119 190.141 16.3212 189.088 17.9363C188.035 19.5514 186.54 20.7973 184.6 21.674C182.66 22.5508 180.375 22.9892 177.744 22.9892H172.672V30.632H164.445V1.39899H177.744C180.375 1.39899 182.663 1.83737 184.6 2.71413ZM181.067 15.3695C181.925 14.6311 182.355 13.5813 182.355 12.2172C182.355 10.853 181.925 9.79453 181.067 9.04179C180.209 8.28905 178.932 7.91412 177.244 7.91412H172.672V16.4769H177.244C178.935 16.4769 180.209 16.1078 181.067 15.3695Z" fill="url(#paint28_linear_561_352)"/>
<path d="M204.256 30.3436C202.04 29.7581 200.238 28.9794 198.852 28.0046L201.552 21.9077C202.855 22.77 204.365 23.4679 206.084 23.9957C207.8 24.5264 209.493 24.7888 211.155 24.7888C214.314 24.7888 215.893 23.9957 215.893 22.4095C215.893 21.5731 215.442 20.9559 214.541 20.5521C213.64 20.1484 212.194 19.7244 210.199 19.2774C208.009 18.8044 206.181 18.2968 204.712 17.7517C203.242 17.2095 201.983 16.3385 200.929 15.1416C199.876 13.9447 199.351 12.3296 199.351 10.2964C199.351 8.51401 199.836 6.90758 200.806 5.47131C201.776 4.03792 203.222 2.90159 205.148 2.06809C207.074 1.23171 209.436 0.816406 212.234 0.816406C214.145 0.816406 216.031 1.03271 217.885 1.46244C219.741 1.89505 221.377 2.52666 222.789 3.36304L220.255 9.50324C217.483 8.00064 214.797 7.2479 212.194 7.2479C210.558 7.2479 209.367 7.49304 208.621 7.97757C207.872 8.46498 207.499 9.09947 207.499 9.87817C207.499 10.6569 207.94 11.2423 208.827 11.6317C209.714 12.021 211.14 12.4248 213.109 12.843C215.325 13.316 217.161 13.8236 218.616 14.3687C220.071 14.9109 221.331 15.7761 222.399 16.9586C223.466 18.1411 224 19.7504 224 21.7836C224 23.5372 223.515 25.1234 222.545 26.5452C221.575 27.9642 220.12 29.1005 218.18 29.9485C216.24 30.7964 213.884 31.2232 211.115 31.2232C208.758 31.2232 206.474 30.9319 204.258 30.3465L204.256 30.3436Z" fill="url(#paint29_linear_561_352)"/>
<defs>
<linearGradient id="paint0_linear_561_352" x1="238.148" y1="53.0165" x2="3.87099" y2="48.3004" gradientUnits="userSpaceOnUse">
<stop stop-color="#686BE1"/>
<stop offset="1" stop-color="#52B4FF"/>
</linearGradient>
<linearGradient id="paint1_linear_561_352" x1="238.148" y1="53.0165" x2="3.87099" y2="48.3004" gradientUnits="userSpaceOnUse">
<stop stop-color="#686BE1"/>
<stop offset="1" stop-color="#52B4FF"/>
</linearGradient>
<linearGradient id="paint2_linear_561_352" x1="238.148" y1="53.0165" x2="3.87099" y2="48.3004" gradientUnits="userSpaceOnUse">
<stop stop-color="#686BE1"/>
<stop offset="1" stop-color="#52B4FF"/>
</linearGradient>
<linearGradient id="paint3_linear_561_352" x1="238.148" y1="53.0165" x2="3.87099" y2="48.3004" gradientUnits="userSpaceOnUse">
<stop stop-color="#686BE1"/>
<stop offset="1" stop-color="#52B4FF"/>
</linearGradient>
<linearGradient id="paint4_linear_561_352" x1="238.148" y1="53.0165" x2="3.87099" y2="48.3004" gradientUnits="userSpaceOnUse">
<stop stop-color="#686BE1"/>
<stop offset="1" stop-color="#52B4FF"/>
</linearGradient>
<linearGradient id="paint5_linear_561_352" x1="238.148" y1="53.0165" x2="3.87099" y2="48.3004" gradientUnits="userSpaceOnUse">
<stop stop-color="#686BE1"/>
<stop offset="1" stop-color="#52B4FF"/>
</linearGradient>
<linearGradient id="paint6_linear_561_352" x1="238.148" y1="53.0165" x2="3.87099" y2="48.3004" gradientUnits="userSpaceOnUse">
<stop stop-color="#686BE1"/>
<stop offset="1" stop-color="#52B4FF"/>
</linearGradient>
<linearGradient id="paint7_linear_561_352" x1="238.148" y1="53.0165" x2="3.87099" y2="48.3004" gradientUnits="userSpaceOnUse">
<stop stop-color="#686BE1"/>
<stop offset="1" stop-color="#52B4FF"/>
</linearGradient>
<linearGradient id="paint8_linear_561_352" x1="238.148" y1="53.0165" x2="3.87099" y2="48.3004" gradientUnits="userSpaceOnUse">
<stop stop-color="#686BE1"/>
<stop offset="1" stop-color="#52B4FF"/>
</linearGradient>
<linearGradient id="paint9_linear_561_352" x1="238.148" y1="53.0165" x2="3.87099" y2="48.3004" gradientUnits="userSpaceOnUse">
<stop stop-color="#686BE1"/>
<stop offset="1" stop-color="#52B4FF"/>
</linearGradient>
<linearGradient id="paint10_linear_561_352" x1="238.148" y1="53.0165" x2="3.87099" y2="48.3004" gradientUnits="userSpaceOnUse">
<stop stop-color="#686BE1"/>
<stop offset="1" stop-color="#52B4FF"/>
</linearGradient>
<linearGradient id="paint11_linear_561_352" x1="238.148" y1="53.0165" x2="3.87099" y2="48.3004" gradientUnits="userSpaceOnUse">
<stop stop-color="#686BE1"/>
<stop offset="1" stop-color="#52B4FF"/>
</linearGradient>
<linearGradient id="paint12_linear_561_352" x1="238.148" y1="53.0165" x2="3.87099" y2="48.3004" gradientUnits="userSpaceOnUse">
<stop stop-color="#686BE1"/>
<stop offset="1" stop-color="#52B4FF"/>
</linearGradient>
<linearGradient id="paint13_linear_561_352" x1="238.148" y1="53.0165" x2="3.87099" y2="48.3004" gradientUnits="userSpaceOnUse">
<stop stop-color="#686BE1"/>
<stop offset="1" stop-color="#52B4FF"/>
</linearGradient>
<linearGradient id="paint14_linear_561_352" x1="238.148" y1="53.0165" x2="3.87099" y2="48.3004" gradientUnits="userSpaceOnUse">
<stop stop-color="#686BE1"/>
<stop offset="1" stop-color="#52B4FF"/>
</linearGradient>
<linearGradient id="paint15_linear_561_352" x1="238.148" y1="53.0165" x2="3.87099" y2="48.3004" gradientUnits="userSpaceOnUse">
<stop stop-color="#686BE1"/>
<stop offset="1" stop-color="#52B4FF"/>
</linearGradient>
<linearGradient id="paint16_linear_561_352" x1="238.148" y1="53.0165" x2="3.87099" y2="48.3004" gradientUnits="userSpaceOnUse">
<stop stop-color="#686BE1"/>
<stop offset="1" stop-color="#52B4FF"/>
</linearGradient>
<linearGradient id="paint17_linear_561_352" x1="238.148" y1="53.0165" x2="3.87099" y2="48.3004" gradientUnits="userSpaceOnUse">
<stop stop-color="#686BE1"/>
<stop offset="1" stop-color="#52B4FF"/>
</linearGradient>
<linearGradient id="paint18_linear_561_352" x1="238.148" y1="53.0165" x2="3.87099" y2="48.3004" gradientUnits="userSpaceOnUse">
<stop stop-color="#686BE1"/>
<stop offset="1" stop-color="#52B4FF"/>
</linearGradient>
<linearGradient id="paint19_linear_561_352" x1="238.148" y1="53.0165" x2="3.87099" y2="48.3004" gradientUnits="userSpaceOnUse">
<stop stop-color="#686BE1"/>
<stop offset="1" stop-color="#52B4FF"/>
</linearGradient>
<linearGradient id="paint20_linear_561_352" x1="238.148" y1="53.0165" x2="3.87099" y2="48.3004" gradientUnits="userSpaceOnUse">
<stop stop-color="#686BE1"/>
<stop offset="1" stop-color="#52B4FF"/>
</linearGradient>
<linearGradient id="paint21_linear_561_352" x1="238.148" y1="53.0165" x2="3.87099" y2="48.3004" gradientUnits="userSpaceOnUse">
<stop stop-color="#686BE1"/>
<stop offset="1" stop-color="#52B4FF"/>
</linearGradient>
<linearGradient id="paint22_linear_561_352" x1="238.148" y1="53.0165" x2="3.87099" y2="48.3004" gradientUnits="userSpaceOnUse">
<stop stop-color="#686BE1"/>
<stop offset="1" stop-color="#52B4FF"/>
</linearGradient>
<linearGradient id="paint23_linear_561_352" x1="238.148" y1="53.0165" x2="3.87099" y2="48.3004" gradientUnits="userSpaceOnUse">
<stop stop-color="#686BE1"/>
<stop offset="1" stop-color="#52B4FF"/>
</linearGradient>
<linearGradient id="paint24_linear_561_352" x1="235.004" y1="15.274" x2="141.491" y2="-90.2639" gradientUnits="userSpaceOnUse">
<stop stop-color="#686BE1"/>
<stop offset="1" stop-color="#52B4FF"/>
</linearGradient>
<linearGradient id="paint25_linear_561_352" x1="235.004" y1="15.274" x2="141.491" y2="-90.2639" gradientUnits="userSpaceOnUse">
<stop stop-color="#686BE1"/>
<stop offset="1" stop-color="#52B4FF"/>
</linearGradient>
<linearGradient id="paint26_linear_561_352" x1="235.004" y1="15.274" x2="141.491" y2="-90.2639" gradientUnits="userSpaceOnUse">
<stop stop-color="#686BE1"/>
<stop offset="1" stop-color="#52B4FF"/>
</linearGradient>
<linearGradient id="paint27_linear_561_352" x1="235.004" y1="15.274" x2="141.491" y2="-90.2639" gradientUnits="userSpaceOnUse">
<stop stop-color="#686BE1"/>
<stop offset="1" stop-color="#52B4FF"/>
</linearGradient>
<linearGradient id="paint28_linear_561_352" x1="235.004" y1="15.274" x2="141.491" y2="-90.2639" gradientUnits="userSpaceOnUse">
<stop stop-color="#686BE1"/>
<stop offset="1" stop-color="#52B4FF"/>
</linearGradient>
<linearGradient id="paint29_linear_561_352" x1="235.004" y1="15.274" x2="141.491" y2="-90.2639" gradientUnits="userSpaceOnUse">
<stop stop-color="#686BE1"/>
<stop offset="1" stop-color="#52B4FF"/>
</linearGradient>
</defs>
</svg>
