<svg width="73" height="71" viewBox="0 0 73 71" fill="none" xmlns="http://www.w3.org/2000/svg">
<path d="M19.4982 26.2971L13.5721 29.3856V13.7929C13.5721 9.14037 17.3741 5.35534 22.0475 5.35534H28.6691L28.3382 6.20619C27.7097 7.82447 27.3787 9.43858 27.3599 11.0047C27.3557 11.3467 27.3557 11.7742 27.3599 12.2831L27.3641 12.9129H22.0496C21.5615 12.9129 21.1656 13.307 21.1656 13.7929V25.4316L19.5003 26.2971H19.4982ZM44.7235 10.9922C44.7277 11.3363 44.7298 11.7701 44.7277 12.2831L44.7235 12.9129H50.0359C50.5239 12.9129 50.9199 13.307 50.9199 13.7929V22.072H48.2867C47.8447 22.072 47.4488 22.2993 47.2289 22.681C47.0068 23.0626 47.0068 23.5172 47.2289 23.8988L53.7248 35.0996C53.9468 35.4812 54.3427 35.7085 54.7847 35.7085C55.2267 35.7085 55.6226 35.4812 55.8426 35.0996L62.3385 23.8988C62.5605 23.5172 62.5605 23.0626 62.3385 22.681C62.1185 22.2993 61.7226 22.072 61.2806 22.072H58.5134V13.7929C58.5134 9.14037 54.7114 5.35534 50.038 5.35534H43.408L43.7411 6.20828C44.3716 7.8203 44.7026 9.43024 44.7235 10.9922ZM50.922 60.3289C50.922 60.8148 50.526 61.209 50.038 61.209H22.0475C21.5595 61.209 21.1635 60.8148 21.1635 60.3289V48.5839H24.0795C24.5215 48.5839 24.9174 48.3566 25.1373 47.9749C25.3594 47.5933 25.3594 47.1387 25.1373 46.7571L18.6414 35.5563C18.4194 35.1747 18.0235 34.9474 17.5836 34.9474C17.1437 34.9474 16.7457 35.1747 16.5257 35.5563L10.0298 46.7571C9.80984 47.1387 9.80984 47.5933 10.0298 47.9749C10.2497 48.3566 10.6457 48.5839 11.0877 48.5839H13.5721V62.5624C13.5721 67.215 17.3741 71 22.0475 71H50.0359C54.7093 71 58.5113 67.215 58.5113 62.5624V44.7697L50.9199 43.7916V60.3289H50.922ZM72.075 42.0899C72.0708 42.0148 72.0666 41.9418 72.0604 41.8647C72.0541 41.7875 72.0436 41.7083 72.0331 41.629C72.0226 41.5519 72.0143 41.4747 72.0038 41.3975C71.9912 41.3183 71.9766 41.2391 71.9619 41.1598C71.9472 41.0827 71.9347 41.0055 71.92 40.9304C71.9032 40.8512 71.8823 40.774 71.8634 40.6948C71.8446 40.6218 71.8278 40.5467 71.809 40.4737C71.788 40.3966 71.7629 40.3215 71.7399 40.2464C71.7189 40.1776 71.7001 40.1067 71.677 40.042C71.6519 39.9649 71.6225 39.894 71.5953 39.8231C71.5723 39.7647 71.5513 39.7021 71.5283 39.6458C71.4969 39.5707 71.4633 39.5061 71.4298 39.4373C71.4068 39.3893 71.3858 39.3392 71.3628 39.2934C71.3251 39.2225 71.2853 39.162 71.2455 39.0994C71.2245 39.0681 71.2057 39.0306 71.1847 39.0014C71.124 38.9159 71.0611 38.8408 70.9983 38.7804C70.372 38.1818 65.3613 35.4937 59.3744 32.3531L56.4207 37.4457C56.1903 37.8419 55.8363 38.1652 55.4006 38.3153C54.5313 38.6156 53.6137 38.2423 53.1843 37.4978L46.8707 26.6099C46.7198 26.3492 46.59 26.0781 46.5041 25.7903C46.4873 25.734 46.4726 25.6777 46.4601 25.6214C44.9351 24.8248 43.5106 24.0803 42.2559 23.4171C42.4172 17.653 42.5198 12.965 42.4905 11.0277C42.4653 9.24673 41.9416 7.52209 41.2043 5.98305C40.8901 5.33032 40.5402 4.70886 40.1695 4.13538C39.8406 3.62653 39.497 3.15732 39.1556 2.72564C39.1284 2.69018 39.099 2.65056 39.0718 2.61511C39.011 2.54003 38.9524 2.47539 38.8937 2.40448C38.3994 1.81014 37.9113 1.29921 37.4777 0.911326C37.44 0.877959 37.4085 0.852934 37.3708 0.821653C36.9309 0.440022 36.5497 0.173089 36.2816 0.0646478C36.2376 0.0458791 36.2061 0.0458791 36.1684 0.0375375C36.1161 0.0208541 36.0658 0 36.0302 0C35.9652 0 35.8814 0.0208541 35.7851 0.060477C35.3976 0.218968 34.7838 0.688187 34.0862 1.39097C33.9124 1.56615 33.7322 1.758 33.5521 1.96237C32.6429 2.98423 31.6647 4.346 30.9105 5.90589C30.6089 6.52943 30.3408 7.18425 30.1292 7.86201C29.9155 8.53977 29.7584 9.24047 29.6704 9.95368C29.6264 10.3103 29.6013 10.6711 29.5971 11.0339C29.5741 12.9713 29.6809 17.6509 29.8464 23.4088C27.2677 24.7705 23.9726 26.4848 20.5351 28.272L14.2005 31.5732C7.57472 35.037 1.76799 38.1318 1.08928 38.7783C1.02644 38.8387 0.963598 38.9138 0.902849 38.9993C0.881901 39.0285 0.863048 39.0661 0.842101 39.0994C0.8023 39.162 0.762499 39.2204 0.724793 39.2913C0.701751 39.333 0.680803 39.383 0.659855 39.4268C0.626339 39.4977 0.590727 39.5645 0.559306 39.6416C0.536263 39.6938 0.51741 39.7522 0.496462 39.8085C0.467135 39.8856 0.437809 39.9607 0.410576 40.0399C0.389629 40.1025 0.370776 40.1692 0.351923 40.2318C0.326785 40.3111 0.301648 40.3903 0.278605 40.4716C0.259752 40.5384 0.245089 40.6072 0.228331 40.676C0.207383 40.7615 0.186435 40.8449 0.167582 40.9304C0.152919 40.9992 0.142445 41.0681 0.127781 41.1369C0.111023 41.2245 0.094265 41.31 0.0816963 41.3975C0.0712224 41.4685 0.0628433 41.5394 0.0544642 41.6103C0.0439903 41.6958 0.0314217 41.7813 0.0251373 41.8647C0.018853 41.9356 0.0167582 42.0044 0.0125687 42.0753C0.00837911 42.1566 0.00209478 42.2401 0 42.3193C0 42.3881 0 42.4528 0.00209478 42.5195C0.00209478 42.5967 0.00418956 42.6738 0.00837911 42.7489C0.0125687 42.8135 0.0209478 42.874 0.0272321 42.9366C0.0356112 43.0075 0.0439903 43.0763 0.0544642 43.143C0.0649381 43.2014 0.0796016 43.2536 0.0921702 43.3078C0.106834 43.3683 0.123592 43.4308 0.142445 43.4871C0.159203 43.5372 0.182246 43.581 0.201099 43.6269C0.224141 43.6769 0.247184 43.727 0.274416 43.7708C0.299553 43.8104 0.32888 43.8437 0.356112 43.8771C0.387534 43.9146 0.418956 43.9522 0.454567 43.9814C0.488083 44.0085 0.523694 44.0293 0.5614 44.0502C0.601201 44.0731 0.643097 44.094 0.687087 44.1086C0.728983 44.1211 0.772973 44.1274 0.819058 44.1336C0.888186 44.142 0.955219 44.1524 1.03273 44.142C1.22963 44.1169 1.43702 44.0898 1.65487 44.0606C2.09059 44.0043 2.56401 43.9418 3.07304 43.8771C4.34457 43.7124 5.82767 43.5205 7.44275 43.312C8.08794 43.2285 8.75408 43.143 9.43697 43.0555C9.72396 43.0179 10.0151 42.9804 10.3063 42.9428L15.9517 33.2102C16.1822 32.814 16.5362 32.4907 16.9719 32.3406C17.8412 32.0403 18.7587 32.4157 19.1882 33.1581L23.8511 41.1994C26.5262 40.8553 28.8367 40.5592 30.3889 40.359C30.567 45.6247 30.743 56.5126 30.8749 61.209H41.2504C41.3781 56.5126 41.552 45.6289 41.7259 40.3632C47.7086 41.1327 64.7559 43.3245 71.0528 44.144C71.1303 44.1545 71.1973 44.144 71.2664 44.1357C71.3125 44.1294 71.3565 44.1253 71.3984 44.1107C71.4424 44.0961 71.4843 44.0752 71.5241 44.0523C71.5618 44.0314 71.5974 44.0106 71.6309 43.9835C71.6665 43.9543 71.698 43.9167 71.7294 43.8792C71.7587 43.8458 71.788 43.8104 71.8132 43.7708C71.8404 43.727 71.8634 43.679 71.8865 43.6289C71.9074 43.5831 71.9305 43.5372 71.9472 43.4871C71.9661 43.4329 71.9808 43.3724 71.9954 43.314C72.0101 43.2577 72.0247 43.2014 72.0352 43.141C72.0457 43.0784 72.0541 43.0096 72.0624 42.9428C72.0708 42.8782 72.0792 42.8156 72.0834 42.7468C72.0876 42.6759 72.0897 42.6029 72.0897 42.5299C72.0897 42.459 72.0939 42.3902 72.0918 42.3172C72.0918 42.2421 72.0855 42.165 72.0813 42.0878L72.075 42.0899ZM41.4934 67.8197H30.5921C29.6914 67.8197 28.9519 67.0857 28.9519 66.1869C28.9519 65.2901 29.6893 64.554 30.5921 64.554H41.4934C42.3941 64.554 43.1336 65.2881 43.1336 66.1869C43.1336 67.0836 42.3962 67.8197 41.4934 67.8197Z" fill="url(#paint0_linear_561_356)"/>
<defs>
<linearGradient id="paint0_linear_561_356" x1="22.2606" y1="70.3072" x2="36.416" y2="26.2757" gradientUnits="userSpaceOnUse">
<stop stop-color="#686BE1"/>
<stop offset="1" stop-color="#52B4FF"/>
</linearGradient>
</defs>
</svg>
