<svg width="143" height="35" viewBox="0 0 143 35" fill="none" xmlns="http://www.w3.org/2000/svg">
<path d="M0.678711 27.5879H4.31459V28.05H1.20803V30.469H3.81447V30.9312H1.20803V33.7518H4.41315V34.203H0.678711V27.5897V27.5879Z" fill="white"/>
<path d="M8.99812 31.982H6.44096L5.69261 34.1993H5.15234L7.44849 27.5861H7.99789L10.305 34.1993H9.73552L8.9963 31.982H8.99812ZM8.85758 31.5401L8.45785 30.3462C8.15851 29.4567 7.9194 28.7011 7.7387 28.0776H7.69855C7.53245 28.6791 7.29518 29.4365 6.99036 30.3462L6.59063 31.5401H8.85758Z" fill="white"/>
<path d="M12.019 34.0545C11.643 33.8766 11.3144 33.6345 11.0352 33.3264L11.3655 32.9651C11.6119 33.2402 11.9003 33.4529 12.2289 33.607C12.5592 33.761 12.906 33.838 13.2729 33.838C13.7584 33.838 14.1454 33.7207 14.4319 33.4859C14.7185 33.2512 14.8609 32.9449 14.8609 32.5635C14.8609 32.3085 14.8116 32.1013 14.7112 31.9417C14.6108 31.7804 14.4849 31.6501 14.3315 31.5511C14.1782 31.4502 13.9647 31.3402 13.6927 31.2192L12.7034 30.7772C12.311 30.603 11.9916 30.3921 11.7452 30.1445C11.4988 29.8969 11.3765 29.5558 11.3765 29.1211C11.3765 28.8075 11.4604 28.5233 11.6265 28.2738C11.7926 28.0226 12.0244 27.8282 12.3201 27.687C12.6158 27.5458 12.948 27.4761 13.3131 27.4761C13.6781 27.4761 14.0322 27.5494 14.3516 27.6961C14.671 27.8429 14.9448 28.0336 15.1711 28.2683L14.8718 28.6205C14.4465 28.173 13.9263 27.9474 13.3131 27.9474C12.8933 27.9474 12.5538 28.0519 12.2946 28.2592C12.0354 28.4664 11.9058 28.7452 11.9058 29.0918C11.9058 29.3192 11.9606 29.5118 12.0701 29.6695C12.1796 29.8272 12.3092 29.9501 12.4588 30.0399C12.6085 30.1298 12.8002 30.2288 13.0338 30.3352L14.0231 30.7662C14.463 30.9606 14.8025 31.188 15.0416 31.4484C15.2807 31.7088 15.4011 32.0665 15.4011 32.5213C15.4011 32.8569 15.3135 33.1595 15.1365 33.4346C14.9594 33.7097 14.7112 33.9242 14.3881 34.082C14.0651 34.2397 13.6945 34.3185 13.2747 34.3185C12.8148 34.3185 12.3968 34.2305 12.0208 34.0526L12.019 34.0545Z" fill="white"/>
<path d="M17.8762 31.5401L15.8994 27.5861H16.4579L17.4363 29.6236C17.6553 30.1059 17.8816 30.5809 18.1153 31.0486H18.1554C18.1682 31.0155 18.1864 30.9789 18.2102 30.9385C18.2339 30.8982 18.2576 30.8523 18.285 30.7973C18.3306 30.7038 18.4182 30.5369 18.5442 30.2948C18.6701 30.0546 18.7778 29.8308 18.8636 29.6217L19.8328 27.5842H20.3713L18.4036 31.5382V34.1975H17.8743V31.5382L17.8762 31.5401Z" fill="white"/>
<path d="M25.1552 28.0482H23.0781V27.5861H27.7617V28.0482H25.6846V34.1993H25.1552V28.0482Z" fill="white"/>
<path d="M29.89 33.8931C29.4775 33.6088 29.1544 33.2072 28.9208 32.6882C28.6871 32.1692 28.5703 31.5658 28.5703 30.8762C28.5703 30.1867 28.6871 29.587 28.9208 29.0753C29.1544 28.5636 29.4775 28.1693 29.89 27.8905C30.3025 27.6136 30.7716 27.4742 31.2972 27.4742C31.8229 27.4742 32.3029 27.6136 32.7154 27.8905C33.1279 28.1675 33.4492 28.5636 33.6792 29.0753C33.9091 29.587 34.0241 30.1867 34.0241 30.8762C34.0241 31.5658 33.9091 32.1692 33.6792 32.6882C33.4492 33.2072 33.1279 33.6088 32.7154 33.8931C32.3029 34.1773 31.8302 34.3204 31.2972 34.3204C30.7643 34.3204 30.3025 34.1792 29.89 33.8931ZM32.4416 33.4713C32.772 33.2273 33.0257 32.8826 33.2064 32.4369C33.3853 31.9931 33.4766 31.4723 33.4766 30.8762C33.4766 30.2802 33.3871 29.763 33.2064 29.321C33.0257 28.879 32.772 28.5398 32.4416 28.3032C32.1113 28.0666 31.7316 27.9474 31.299 27.9474C30.8665 27.9474 30.4868 28.0666 30.1601 28.3032C29.8334 28.5416 29.5815 28.8809 29.4008 29.321C29.2201 29.763 29.1307 30.2802 29.1307 30.8762C29.1307 31.4723 29.2201 31.9839 29.4008 32.4314C29.5797 32.8789 29.8352 33.2255 30.1656 33.4694C30.4959 33.7133 30.8738 33.8362 31.299 33.8362C31.7243 33.8362 32.1131 33.7133 32.4416 33.4694V33.4713Z" fill="white"/>
<path d="M37.9282 27.5879H41.5641V28.05H38.4575V30.469H41.064V30.9312H38.4575V33.7518H41.6627V34.203H37.9282V27.5897V27.5879Z" fill="white"/>
<path d="M44.4608 30.779L42.6338 27.5879H43.2124L44.2619 29.4952L44.7912 30.4085H44.8313C45.0577 29.961 45.2183 29.6566 45.3114 29.4952L46.3609 27.5879H46.9103L45.0832 30.8083L47.0399 34.1993H46.4613L45.3534 32.2131L44.7547 31.1696H44.7145L44.1651 32.2131L43.0572 34.1993H42.5078L44.4645 30.7771L44.4608 30.779Z" fill="white"/>
<path d="M48.3647 27.5879H50.0622C50.8416 27.5879 51.4348 27.7328 51.8455 28.0244C52.2543 28.316 52.4606 28.7928 52.4606 29.4549C52.4606 30.1169 52.2543 30.5827 51.8418 30.9092C51.4293 31.2375 50.8489 31.4007 50.1042 31.4007H48.8959V34.2011H48.3666V27.5879H48.3647ZM49.9819 30.9587C50.6408 30.9587 51.1282 30.8395 51.4458 30.6029C51.7615 30.3663 51.9203 29.983 51.9203 29.453C51.9203 28.923 51.7615 28.5654 51.4458 28.3545C51.13 28.1436 50.628 28.039 49.9436 28.039H48.8941V30.9587H49.9819Z" fill="white"/>
<path d="M54.0781 27.5879H57.714V28.05H54.6074V30.469H57.2139V30.9312H54.6074V33.7518H57.8126V34.203H54.0781V27.5897V27.5879Z" fill="white"/>
<path d="M63.0654 34.1993L61.3277 31.2099H59.9698V34.1993H59.4404V27.5861H61.3478C62.0396 27.5861 62.5798 27.7291 62.965 28.0134C63.3519 28.2976 63.5436 28.7451 63.5436 29.3522C63.5436 29.8675 63.3994 30.2783 63.1092 30.5864C62.8189 30.8945 62.4156 31.0889 61.8954 31.1678L63.6823 34.1975H63.0635L63.0654 34.1993ZM61.2273 30.768C61.8059 30.768 62.2476 30.6506 62.5506 30.4158C62.8536 30.1811 63.0051 29.8271 63.0051 29.3522C63.0051 28.8772 62.8573 28.547 62.5616 28.3435C62.2659 28.1399 61.8205 28.0372 61.2292 28.0372H59.9716V30.7661H61.2292L61.2273 30.768Z" fill="white"/>
<path d="M65.1113 27.5879H65.6406V34.2011H65.1113V27.5879Z" fill="white"/>
<path d="M67.7583 27.5879H71.3942V28.05H68.2876V30.469H70.8941V30.9312H68.2876V33.7518H71.4927V34.203H67.7583V27.5897V27.5879Z" fill="white"/>
<path d="M73.1206 27.5879H73.67L76.3659 32.1526L77.1051 33.4877H77.1453L77.1252 33.1062C77.1179 32.9724 77.1087 32.7395 77.096 32.4093C77.0832 32.0792 77.0759 31.7821 77.0759 31.5217V27.5879H77.576V34.2011H77.0266L74.3307 29.6346L73.5915 28.3105H73.5514L73.5714 28.6919C73.5787 28.813 73.5879 29.0312 73.6006 29.3485C73.6134 29.6658 73.6207 29.9555 73.6207 30.2159V34.1993H73.1206V27.5861V27.5879Z" fill="white"/>
<path d="M80.6113 33.8986C80.1915 33.618 79.8648 33.2182 79.6275 32.6992C79.3921 32.1802 79.2734 31.5768 79.2734 30.8872C79.2734 30.1977 79.3939 29.5961 79.633 29.0808C79.8721 28.5654 80.2061 28.1693 80.6314 27.8924C81.0567 27.6155 81.5495 27.4761 82.1099 27.4761C82.4694 27.4761 82.798 27.5513 83.0937 27.7016C83.3894 27.852 83.6376 28.0409 83.8384 28.2683L83.5281 28.6205C83.1356 28.173 82.6629 27.9474 82.1099 27.9474C81.6499 27.9474 81.2502 28.0666 80.907 28.3032C80.5639 28.5416 80.2992 28.8809 80.1131 29.321C79.9269 29.763 79.8338 30.2802 79.8338 30.8762C79.8338 31.4723 79.925 31.9931 80.1076 32.4424C80.2901 32.8899 80.5493 33.2347 80.887 33.4768C81.2228 33.717 81.6207 33.838 82.0807 33.838C82.4074 33.838 82.7012 33.772 82.9641 33.6418C83.2269 33.5116 83.4751 33.3099 83.7088 33.0348L84.0191 33.3759C83.7526 33.684 83.4624 33.9169 83.1448 34.0783C82.829 34.2397 82.464 34.3185 82.0515 34.3185C81.5112 34.3185 81.033 34.1773 80.6132 33.8967L80.6113 33.8986Z" fill="white"/>
<path d="M85.5449 27.5879H89.1808V28.05H86.0742V30.469H88.6807V30.9312H86.0742V33.7518H89.2794V34.203H85.5449V27.5897V27.5879Z" fill="white"/>
<path d="M94.5127 28.0482H92.4355V27.5861H97.1191V28.0482H95.042V34.1993H94.5127V28.0482Z" fill="white"/>
<path d="M98.5664 27.5879H99.0957V30.4672H102.522V27.5879H103.051V34.2011H102.522V30.9293H99.0957V34.2011H98.5664V27.5879Z" fill="white"/>
<path d="M105.168 27.5879H108.804V28.05H105.697V30.469H108.304V30.9312H105.697V33.7518H108.902V34.203H105.168V27.5897V27.5879Z" fill="white"/>
<path d="M112.039 27.5879H112.588L113.397 31.4318C113.49 31.9142 113.636 32.6294 113.836 33.5794H113.877C113.99 33.0512 114.152 32.336 114.366 31.4318L115.375 27.5879H115.904L116.914 31.4318L117.423 33.5794H117.463C117.564 33.1044 117.653 32.6404 117.733 32.1856L117.883 31.4337L118.692 27.5897H119.201L117.753 34.203H117.155L115.996 29.7685L115.946 29.5686L115.656 28.2848H115.616L115.466 28.8973C115.439 28.9909 115.404 29.1266 115.362 29.3045C115.319 29.4824 115.284 29.6364 115.256 29.7703L114.108 34.2048H113.519L112.04 27.5916L112.039 27.5879Z" fill="white"/>
<path d="M121.457 33.8931C121.044 33.6088 120.721 33.2072 120.488 32.6882C120.254 32.1692 120.137 31.5658 120.137 30.8762C120.137 30.1867 120.254 29.587 120.488 29.0753C120.721 28.5636 121.044 28.1693 121.457 27.8905C121.869 27.6136 122.338 27.4742 122.864 27.4742C123.39 27.4742 123.87 27.6136 124.282 27.8905C124.695 28.1675 125.016 28.5636 125.246 29.0753C125.476 29.587 125.591 30.1867 125.591 30.8762C125.591 31.5658 125.476 32.1692 125.246 32.6882C125.016 33.2072 124.695 33.6088 124.282 33.8931C123.87 34.1773 123.397 34.3204 122.864 34.3204C122.331 34.3204 121.869 34.1792 121.457 33.8931ZM124.009 33.4713C124.339 33.2273 124.593 32.8826 124.773 32.4369C124.952 31.9931 125.043 31.4723 125.043 30.8762C125.043 30.2802 124.954 29.763 124.773 29.321C124.593 28.879 124.339 28.5398 124.009 28.3032C123.678 28.0666 123.299 27.9474 122.866 27.9474C122.433 27.9474 122.054 28.0666 121.727 28.3032C121.4 28.5416 121.148 28.8809 120.968 29.321C120.787 29.763 120.698 30.2802 120.698 30.8762C120.698 31.4723 120.787 31.9839 120.968 32.4314C121.147 32.8789 121.402 33.2255 121.732 33.4694C122.063 33.7133 122.441 33.8362 122.866 33.8362C123.291 33.8362 123.68 33.7133 124.009 33.4694V33.4713Z" fill="white"/>
<path d="M130.924 34.1993L129.187 31.2099H127.829V34.1993H127.299V27.5861H129.207C129.898 27.5861 130.439 27.7291 130.824 28.0134C131.211 28.2976 131.402 28.7451 131.402 29.3522C131.402 29.8675 131.258 30.2783 130.968 30.5864C130.678 30.8945 130.274 31.0889 129.754 31.1678L131.541 34.1975H130.922L130.924 34.1993ZM129.086 30.768C129.665 30.768 130.107 30.6506 130.41 30.4158C130.712 30.1811 130.864 29.8271 130.864 29.3522C130.864 28.8772 130.716 28.547 130.42 28.3435C130.125 28.1399 129.679 28.0372 129.088 28.0372H127.83V30.7661H129.088L129.086 30.768Z" fill="white"/>
<path d="M132.97 27.5879H133.5V33.7481H136.495V34.1993H132.97V27.5861V27.5879Z" fill="white"/>
<path d="M137.875 27.5879H139.413C140.412 27.5879 141.164 27.8777 141.671 28.4554C142.177 29.0349 142.43 29.8418 142.43 30.878C142.43 31.9142 142.177 32.7285 141.671 33.3172C141.165 33.9058 140.419 34.1993 139.433 34.1993H137.875V27.5861V27.5879ZM139.373 33.7481C140.213 33.7481 140.839 33.4914 141.255 32.9797C141.671 32.468 141.879 31.7675 141.879 30.878C141.879 29.9885 141.671 29.2935 141.255 28.791C140.839 28.2885 140.211 28.039 139.373 28.039H138.404V33.7481H139.373Z" fill="white"/>
<path d="M5.10294 19.5827C3.69385 19.2105 2.54761 18.7153 1.66602 18.0954L3.38357 14.2184C4.21222 14.7668 5.1723 15.2106 6.26562 15.5462C7.35711 15.8837 8.434 16.0506 9.49082 16.0506C11.5004 16.0506 12.5043 15.5462 12.5043 14.5375C12.5043 14.0057 12.2177 13.6132 11.6446 13.3565C11.0715 13.0997 10.1516 12.8301 8.88301 12.5459C7.49036 12.2451 6.32768 11.9223 5.39316 11.5757C4.45863 11.2309 3.65735 10.6771 2.98749 9.91599C2.31762 9.1549 1.98361 8.12789 1.98361 6.83496C1.98361 5.70157 2.29207 4.68006 2.909 3.76676C3.52593 2.85528 4.44586 2.13271 5.67059 1.6027C6.89533 1.07085 8.3975 0.806763 10.1771 0.806763C11.3927 0.806763 12.5919 0.944309 13.771 1.21757C14.9519 1.49266 15.9923 1.89429 16.8903 2.42614L15.2786 6.33062C13.5155 5.37513 11.807 4.89647 10.1516 4.89647C9.11116 4.89647 8.35369 5.05236 7.87913 5.36046C7.40274 5.6704 7.16546 6.07387 7.16546 6.56903C7.16546 7.0642 7.44655 7.43649 8.01055 7.68408C8.57455 7.93166 9.48169 8.18841 10.7338 8.45433C12.1429 8.7551 13.311 9.07788 14.2364 9.42449C15.1618 9.76927 15.9631 10.3195 16.6421 11.0714C17.3211 11.8233 17.6606 12.8466 17.6606 14.1396C17.6606 15.2546 17.3521 16.2633 16.7352 17.1674C16.1183 18.0697 15.1929 18.7923 13.959 19.3315C12.7251 19.8707 11.2266 20.1421 9.46526 20.1421C7.96674 20.1421 6.51385 19.9569 5.10477 19.5846L5.10294 19.5827Z" fill="white"/>
<path d="M52.7856 1.17725L46.786 19.768H41.1825L37.6397 8.45436L33.94 19.768H28.3365L22.3369 1.17725H27.7287L31.4558 13.0484L35.3673 1.17725H40.1786L43.9058 13.1548L47.7917 1.17725H52.7874H52.7856Z" fill="white"/>
<path d="M70.1253 16.157H62.3005L60.8476 19.768H55.5088L63.6767 1.17725H68.8312L77.0247 19.768H71.58L70.1271 16.157H70.1253ZM68.5921 12.28L66.2138 6.33065L63.8355 12.28H68.5939H68.5921Z" fill="white"/>
<path d="M95.0252 2.01353C96.2591 2.57105 97.21 3.36882 97.8799 4.40316C98.5497 5.43935 98.8838 6.65709 98.8838 8.05456C98.8838 9.45203 98.5497 10.6661 97.8799 11.6931C97.21 12.7201 96.2591 13.5124 95.0252 14.0699C93.7913 14.6274 92.3385 14.9062 90.6647 14.9062H87.4395V19.7662H82.2065V1.17725H90.6647C92.3385 1.17725 93.7932 1.45601 95.0252 2.01353ZM92.7783 10.0609C93.3241 9.59141 93.5979 8.92385 93.5979 8.05639C93.5979 7.18893 93.3241 6.51587 92.7783 6.03721C92.2326 5.55855 91.4204 5.32014 90.3471 5.32014H87.4395V10.7651H90.3471C91.4222 10.7651 92.2326 10.5304 92.7783 10.0609Z" fill="white"/>
<path d="M117.943 2.01353C119.177 2.57105 120.128 3.36882 120.797 4.40316C121.467 5.43935 121.801 6.65709 121.801 8.05456C121.801 9.45203 121.467 10.6661 120.797 11.6931C120.128 12.7201 119.177 13.5124 117.943 14.0699C116.709 14.6274 115.256 14.9062 113.582 14.9062H110.357V19.7662H105.124V1.17725H113.582C115.256 1.17725 116.711 1.45601 117.943 2.01353ZM115.696 10.0609C116.242 9.59141 116.515 8.92385 116.515 8.05639C116.515 7.18893 116.242 6.51587 115.696 6.03721C115.15 5.55855 114.338 5.32014 113.265 5.32014H110.357V10.7651H113.265C114.34 10.7651 115.15 10.5304 115.696 10.0609Z" fill="white"/>
<path d="M130.444 19.5827C129.035 19.2105 127.888 18.7153 127.007 18.0954L128.724 14.2184C129.553 14.7668 130.513 15.2106 131.606 15.5462C132.698 15.8837 133.775 16.0506 134.832 16.0506C136.841 16.0506 137.845 15.5462 137.845 14.5375C137.845 14.0057 137.559 13.6132 136.985 13.3565C136.412 13.0997 135.492 12.8301 134.224 12.5459C132.831 12.2451 131.668 11.9223 130.734 11.5757C129.799 11.2309 128.998 10.6771 128.328 9.91599C127.658 9.1549 127.324 8.12789 127.324 6.83496C127.324 5.70157 127.633 4.68006 128.25 3.76676C128.867 2.85528 129.787 2.13271 131.011 1.6027C132.236 1.07085 133.738 0.806763 135.518 0.806763C136.734 0.806763 137.933 0.944309 139.112 1.21757C140.293 1.49266 141.333 1.89429 142.231 2.42614L140.619 6.33062C138.856 5.37513 137.148 4.89647 135.492 4.89647C134.452 4.89647 133.694 5.05236 133.22 5.36046C132.744 5.6704 132.506 6.07387 132.506 6.56903C132.506 7.0642 132.787 7.43649 133.351 7.68408C133.915 7.93166 134.822 8.18841 136.075 8.45433C137.484 8.7551 138.652 9.07788 139.577 9.42449C140.503 9.76927 141.304 10.3195 141.983 11.0714C142.662 11.8233 143.001 12.8466 143.001 14.1396C143.001 15.2546 142.693 16.2633 142.076 17.1674C141.459 18.0697 140.534 18.7923 139.3 19.3315C138.066 19.8707 136.567 20.1421 134.806 20.1421C133.308 20.1421 131.855 19.9569 130.446 19.5846L130.444 19.5827Z" fill="white"/>
</svg>
