<svg width="102" height="102" viewBox="0 0 102 102" fill="none" xmlns="http://www.w3.org/2000/svg">
<path d="M25.0921 63.665C24.6412 63.665 24.2088 63.8441 23.89 64.1629C23.5712 64.4817 23.3921 64.9141 23.3921 65.365V71.451C23.3921 71.9154 23.5766 72.3607 23.9049 72.6891C24.2333 73.0175 24.6787 73.202 25.1431 73.202C25.6075 73.202 26.0529 73.0175 26.3812 72.6891C26.7096 72.3607 26.8941 71.9154 26.8941 71.451V65.416C26.9016 65.1796 26.8598 64.9443 26.7712 64.7251C26.6826 64.5058 26.5492 64.3074 26.3797 64.1427C26.2101 63.9779 26.008 63.8503 25.7863 63.768C25.5646 63.6858 25.3281 63.6507 25.0921 63.665Z" fill="white"/>
<path d="M26.8428 53.261C26.8428 52.7966 26.6583 52.3512 26.33 52.0229C26.0016 51.6945 25.5562 51.51 25.0918 51.51C24.6274 51.51 24.1821 51.6945 23.8537 52.0229C23.5253 52.3512 23.3408 52.7966 23.3408 53.261V59.347C23.3408 59.8114 23.5253 60.2568 23.8537 60.5852C24.1821 60.9135 24.6274 61.098 25.0918 61.098C25.5562 61.098 26.0016 60.9135 26.33 60.5852C26.6583 60.2568 26.8428 59.8114 26.8428 59.347V53.261Z" fill="white"/>
<path d="M36.584 54.553H43.792C44.2564 54.553 44.7018 54.3685 45.0302 54.0402C45.3585 53.7118 45.543 53.2664 45.543 52.802C45.543 52.3376 45.3585 51.8923 45.0302 51.5639C44.7018 51.2355 44.2564 51.051 43.792 51.051H36.584C36.1196 51.051 35.6742 51.2355 35.3459 51.5639C35.0175 51.8923 34.833 52.3376 34.833 52.802C34.833 53.2664 35.0175 53.7118 35.3459 54.0402C35.6742 54.3685 36.1196 54.553 36.584 54.553Z" fill="white"/>
<path d="M61.081 65.212C61.081 64.7611 60.9019 64.3287 60.5831 64.0099C60.2643 63.6911 59.8319 63.512 59.381 63.512H36.584C36.1196 63.512 35.6742 63.6964 35.3459 64.0248C35.0175 64.3532 34.833 64.7986 34.833 65.263C34.833 65.7274 35.0175 66.1727 35.3459 66.5011C35.6742 66.8295 36.1196 67.014 36.584 67.014H59.33C59.5664 67.0215 59.8017 66.9796 60.0209 66.891C60.2402 66.8025 60.4385 66.6691 60.6033 66.4995C60.7681 66.3299 60.8957 66.1278 60.978 65.9061C61.0602 65.6844 61.0953 65.448 61.081 65.212Z" fill="white"/>
<path d="M36.584 70.21C36.1196 70.21 35.6742 70.3944 35.3459 70.7228C35.0175 71.0512 34.833 71.4966 34.833 71.961C34.833 72.4254 35.0175 72.8707 35.3459 73.1991C35.6742 73.5275 36.1196 73.712 36.584 73.712H53.584C54.0484 73.712 54.4938 73.5275 54.8222 73.1991C55.1505 72.8707 55.335 72.4254 55.335 71.961C55.335 71.4966 55.1505 71.0512 54.8222 70.7228C54.4938 70.3944 54.0484 70.21 53.584 70.21H36.584Z" fill="white"/>
<path d="M95.1998 56.8139L86.9038 35.6999L91.7998 30.8889C93.0697 29.6108 93.8465 27.9247 93.9928 26.1289C94.075 25.3642 93.9831 24.5907 93.724 23.8665C93.4649 23.1423 93.0454 22.4861 92.4968 21.9469C91.9533 21.3968 91.2954 20.973 90.5697 20.7056C89.844 20.4383 89.0684 20.3339 88.2978 20.3999C86.5148 20.5569 84.8429 21.3327 83.5718 22.5929L78.6418 27.5229L57.6128 19.2949C57.2957 19.1615 56.9455 19.1274 56.6086 19.1972C56.2717 19.267 55.9639 19.4374 55.7258 19.6859L51.8838 23.5279C51.706 23.701 51.5681 23.9109 51.48 24.1429C51.3919 24.3749 51.3557 24.6234 51.3738 24.8709C51.4028 25.2992 51.5836 25.7031 51.8838 26.0099C51.9326 26.0643 51.9901 26.1103 52.0538 26.1459L56.2528 29.4099L55.7258 29.9369C55.3967 30.2661 55.2118 30.7125 55.2118 31.1779C55.2118 31.6434 55.3967 32.0898 55.7258 32.4189C56.055 32.7481 56.5014 32.933 56.9668 32.933C57.4323 32.933 57.8787 32.7481 58.2079 32.4189L59.0408 31.5859L62.0158 33.8979L61.4718 34.4419C61.1427 34.7711 60.9578 35.2175 60.9578 35.6829C60.9578 36.1484 61.1427 36.5948 61.4718 36.9239C61.801 37.2531 62.2474 37.438 62.7128 37.438C63.1783 37.438 63.6247 37.2531 63.9538 36.9239L64.8038 36.0739L67.7788 38.3859L62.0329 44.1999L61.1318 45.1689L55.5728 43.0269C55.2562 42.8993 54.9085 42.87 54.575 42.9428C54.2414 43.0155 53.9375 43.187 53.7028 43.4349L51.2378 45.8999C51.068 46.0589 50.9326 46.2511 50.84 46.4646C50.7475 46.6781 50.6997 46.9083 50.6997 47.1409C50.6997 47.3736 50.7475 47.6038 50.84 47.8173C50.9326 48.0307 51.068 48.2229 51.2378 48.3819L56.4568 53.6009C56.3718 53.9069 56.2699 54.2129 56.2019 54.5189C56.0712 55.0403 56.0778 55.5867 56.2211 56.1048C56.3645 56.6229 56.6396 57.095 57.0197 57.4751C57.3998 57.8552 57.8719 58.1303 58.39 58.2736C58.9081 58.417 59.4544 58.4236 59.9758 58.2929L60.8769 58.0379L66.1128 63.2569C66.2717 63.4241 66.4628 63.5572 66.6747 63.6482C66.8866 63.7391 67.1148 63.7861 67.3454 63.7861C67.5759 63.7861 67.8041 63.7391 68.016 63.6482C68.2279 63.5572 68.419 63.4241 68.5778 63.2569L71.0598 60.7749C71.3049 60.5383 71.4732 60.2335 71.5429 59.9C71.6126 59.5666 71.5805 59.2199 71.4508 58.9049L69.3258 53.3459C69.6488 53.0569 69.9718 52.7679 70.2778 52.4619L76.0238 46.6989L78.3528 49.6909L77.5028 50.5239C77.333 50.6829 77.1976 50.8751 77.105 51.0886C77.0125 51.3021 76.9647 51.5323 76.9647 51.7649C76.9647 51.9976 77.0125 52.2278 77.105 52.4413C77.1976 52.6547 77.333 52.8469 77.5028 53.0059C77.6619 53.1758 77.8541 53.3112 78.0675 53.4037C78.281 53.4963 78.5112 53.5441 78.7438 53.5441C78.9765 53.5441 79.2067 53.4963 79.4202 53.4037C79.6336 53.3112 79.8258 53.1758 79.9848 53.0059L80.5118 52.4789L82.8408 55.4539L82.0079 56.2869C81.8449 56.4499 81.7156 56.6434 81.6274 56.8563C81.5392 57.0692 81.4938 57.2975 81.4938 57.5279C81.4938 57.7584 81.5392 57.9866 81.6274 58.1996C81.7156 58.4125 81.8449 58.606 82.0079 58.7689C82.1708 58.9319 82.3643 59.0612 82.5772 59.1494C82.7902 59.2376 83.0184 59.283 83.2488 59.283C83.4793 59.283 83.7075 59.2376 83.9205 59.1494C84.1334 59.0612 84.3269 58.9319 84.4898 58.7689L84.9998 58.2419L88.2638 62.4409L88.4168 62.6109C88.7217 62.904 89.1176 63.0839 89.5388 63.1209C89.7891 63.1417 90.0409 63.1067 90.2761 63.0185C90.5112 62.9303 90.7239 62.7911 90.8988 62.6109L94.7408 58.7519C95.0114 58.5182 95.2015 58.2051 95.2839 57.8572C95.3663 57.5093 95.3369 57.1442 95.1998 56.8139ZM57.7998 49.9799L54.8928 47.0729L55.3348 46.6479L58.9049 48.0079C58.5036 48.6463 58.1348 49.3044 57.7998 49.9799ZM55.7598 24.5989L57.4598 22.8989L76.0068 30.1579L70.3458 35.8189L55.7598 24.5989ZM67.3368 59.4999L64.4468 56.6099C65.1098 56.2699 65.7729 55.8959 66.4018 55.5049L67.7788 59.0749L67.3368 59.4999ZM67.7958 49.9459C65.5612 52.1748 62.8019 53.8058 59.7718 54.6889C60.6667 51.6298 62.3286 48.8502 64.5998 46.6139L86.0538 25.0749C86.7375 24.3909 87.6404 23.9695 88.6038 23.8849C88.8569 23.8616 89.112 23.8953 89.3503 23.9836C89.5886 24.0718 89.804 24.2124 89.9808 24.3949C90.1746 24.5877 90.319 24.8243 90.4019 25.0847C90.4847 25.3451 90.5036 25.6217 90.4568 25.8909C90.3782 26.8376 89.9619 27.7245 89.2838 28.3899L67.7958 49.9459ZM89.8108 58.6499L78.5228 44.1999L84.2008 38.5389L91.4428 57.0859L89.8108 58.6499Z" fill="white"/>
<path d="M36.584 54.553H43.792C44.2564 54.553 44.7018 54.3685 45.0302 54.0402C45.3585 53.7118 45.543 53.2664 45.543 52.802C45.543 52.3376 45.3585 51.8923 45.0302 51.5639C44.7018 51.2355 44.2564 51.051 43.792 51.051H36.584C36.1196 51.051 35.6742 51.2355 35.3459 51.5639C35.0175 51.8923 34.833 52.3376 34.833 52.802C34.833 53.2664 35.0175 53.7118 35.3459 54.0402C35.6742 54.3685 36.1196 54.553 36.584 54.553Z" fill="white"/>
<path d="M34.8332 65.212C34.8332 65.6629 35.0123 66.0953 35.3311 66.4141C35.6499 66.7329 36.0823 66.912 36.5332 66.912H59.3132C59.7776 66.912 60.223 66.7276 60.5513 66.3992C60.8797 66.0708 61.0642 65.6254 61.0642 65.161C61.0642 64.6967 60.8797 64.2513 60.5513 63.9229C60.223 63.5945 59.7776 63.41 59.3132 63.41H36.5842C36.3478 63.4025 36.1125 63.4444 35.8933 63.533C35.674 63.6215 35.4757 63.7549 35.3109 63.9245C35.1461 64.0941 35.0185 64.2962 34.9362 64.5179C34.854 64.7396 34.8189 64.976 34.8332 65.212Z" fill="white"/>
<path d="M36.584 70.21C36.1196 70.21 35.6742 70.3944 35.3459 70.7228C35.0175 71.0512 34.833 71.4966 34.833 71.961C34.833 72.4254 35.0175 72.8707 35.3459 73.1991C35.6742 73.5275 36.1196 73.712 36.584 73.712H53.584C54.0484 73.712 54.4938 73.5275 54.8222 73.1991C55.1505 72.8707 55.335 72.4254 55.335 71.961C55.335 71.4966 55.1505 71.0512 54.8222 70.7228C54.4938 70.3944 54.0484 70.21 53.584 70.21H36.584Z" fill="white"/>
<path d="M84.6942 67.2519C84.2433 67.2519 83.8109 67.431 83.4921 67.7498C83.1733 68.0686 82.9942 68.501 82.9942 68.9519V78.6929C82.9898 78.8478 82.9251 78.9948 82.814 79.1027C82.7029 79.2106 82.5541 79.271 82.3992 79.2709H12.0022L14.5692 75.8709C14.8063 75.5708 14.9354 75.1994 14.9354 74.8169C14.9354 74.4344 14.8063 74.063 14.5692 73.7629L10.6932 68.6629L14.5692 63.5629C14.8022 63.2642 14.9287 62.8962 14.9287 62.5174C14.9287 62.1386 14.8022 61.7706 14.5692 61.4719L10.6932 56.0999L14.5692 50.9999C14.8022 50.7012 14.9287 50.3332 14.9287 49.9544C14.9287 49.5756 14.8022 49.2076 14.5692 48.9089L12.0022 45.5089H42.3302C42.7946 45.5089 43.2399 45.3244 43.5683 44.9961C43.8967 44.6677 44.0812 44.2223 44.0812 43.7579C44.0812 43.2935 43.8967 42.8481 43.5683 42.5198C43.2399 42.1914 42.7946 42.0069 42.3302 42.0069H18.8532L20.3832 34.8159L49.3002 40.7999C49.5234 40.8479 49.7539 40.8515 49.9786 40.8104C50.2032 40.7693 50.4175 40.6844 50.6093 40.5604C50.8011 40.4365 50.9666 40.276 51.0964 40.0882C51.2262 39.9003 51.3177 39.6887 51.3657 39.4654C51.4137 39.2422 51.4172 39.0117 51.3761 38.787C51.3351 38.5624 51.2501 38.3481 51.1262 38.1563C51.0023 37.9645 50.8418 37.799 50.6539 37.6692C50.466 37.5394 50.2544 37.4479 50.0312 37.3999L20.6212 31.1439C19.8739 31.0023 19.1009 31.1574 18.4661 31.5764C17.8313 31.9953 17.3848 32.6451 17.2212 33.3879L15.3002 41.9389H8.50018C8.16512 41.9146 7.83037 41.9901 7.5382 42.156C7.24603 42.3218 7.00953 42.5704 6.85857 42.8705C6.7076 43.1706 6.64894 43.5087 6.68998 43.8422C6.73103 44.1756 6.86994 44.4894 7.08918 44.7439L10.9822 49.8439L7.08918 54.9439C6.8654 55.2498 6.74477 55.6189 6.74477 55.9979C6.74477 56.3769 6.8654 56.7461 7.08918 57.0519L10.9822 62.3899L7.08918 67.4899C6.8654 67.7958 6.74477 68.1649 6.74477 68.5439C6.74477 68.9229 6.8654 69.292 7.08918 69.5979L10.9822 74.7999L7.08918 79.8999C6.89334 80.1572 6.77492 80.465 6.74782 80.7871C6.72072 81.1093 6.78606 81.4326 6.93618 81.7189C7.07394 82.0167 7.2949 82.2682 7.57242 82.4431C7.84993 82.6181 8.17214 82.709 8.50018 82.7049H82.3482C83.4348 82.7049 84.4769 82.2733 85.2452 81.5049C86.0135 80.7366 86.4452 79.6945 86.4452 78.6079V69.0029C86.4522 68.7711 86.4118 68.5402 86.3263 68.3246C86.2408 68.1089 86.1121 67.9131 85.9481 67.749C85.784 67.585 85.5882 67.4563 85.3725 67.3708C85.1569 67.2853 84.926 67.2449 84.6942 67.2519Z" fill="white"/>
</svg>
