<svg width="71" height="89" viewBox="0 0 71 89" fill="none" xmlns="http://www.w3.org/2000/svg">
<path d="M53.5532 44.6737C53.5802 44.3952 53.5124 44.1152 53.4104 43.8736L48.7008 33.3748C50.9904 31.2267 52.7018 28.3048 53.5767 25.0396C55.7966 16.7547 52.0248 8.53065 45.1836 6.69755C38.3424 4.86446 30.9417 10.0948 28.7277 18.3576C27.8111 21.7782 27.8914 25.2992 28.9156 28.4066L19.9433 34.8823C19.712 35.0346 19.5296 35.2714 19.4197 35.5038L0.565363 73.3511C0.34558 73.8159 0.319754 74.3566 0.52954 74.8175C0.739328 75.2784 1.16251 75.6537 1.65117 75.7846L48.7845 88.4139C49.6952 88.658 50.6527 88.1051 50.8967 87.1944C50.9384 87.039 50.9578 86.8775 50.9491 86.7324L53.5532 44.6737ZM32.0594 19.2503C33.7854 12.8089 39.277 8.66204 44.2746 10.0012C49.2722 11.3403 51.9546 17.6773 50.2286 24.1187C49.6335 26.3399 48.5675 28.3635 47.1629 29.9631L43.0337 20.7625C42.824 20.3016 42.4008 19.9263 41.9121 19.7954C41.4235 19.6644 40.8753 19.7556 40.4572 20.0721L31.897 26.2535C31.3649 24.0636 31.4167 21.6492 32.0594 19.2503ZM4.5874 73.0004L22.3103 37.4211L31.9883 30.4441C31.9883 30.4441 31.9883 30.4441 32.0164 30.4278L40.7797 24.1104L44.4464 32.2824C44.1588 32.4672 43.8609 32.6017 43.5793 32.7643C42.8437 31.0674 41.3552 29.6925 39.4227 29.1747C36.0688 28.276 32.5825 30.27 31.6778 33.6462C30.7732 37.0224 32.7732 40.4865 36.1494 41.3911C39.5255 42.2958 42.9896 40.2958 43.8943 36.9196C43.9478 36.7197 43.9955 36.542 44.0268 36.3361C44.6611 36.1014 45.285 35.8162 45.8764 35.4748L50.1134 44.8947L47.6722 84.5688L4.58145 73.0226L4.5874 73.0004ZM37.3922 35.1535C37.3112 35.9889 37.8672 36.7568 38.6669 36.9711C38.7557 36.9949 38.8668 37.0247 38.9616 37.0263C39.3126 37.0489 39.6414 37.0656 39.9984 37.066C39.3145 37.9302 38.1586 38.3347 37.0258 38.0312C35.4932 37.6205 34.5827 36.0434 34.9933 34.5108C35.404 32.9782 36.9811 32.0676 38.5137 32.4783C39.1801 32.6568 39.7366 33.0678 40.0959 33.5926C39.8115 33.5878 39.5493 33.589 39.2708 33.562C38.3066 33.5179 37.4748 34.2234 37.3922 35.1535Z" fill="white"/>
<path d="M27.4101 48.5958L40.093 51.9941C41.0037 52.2381 41.9612 51.6853 42.2053 50.7746C42.4493 49.8639 41.8964 48.9064 40.9857 48.6624L28.3028 45.264C27.3922 45.02 26.4346 45.5728 26.1906 46.4835C25.9466 47.3942 26.4772 48.3458 27.4101 48.5958Z" fill="white"/>
<path d="M24.0645 61.7928C27.0186 62.5844 30.0884 60.812 30.88 57.8579C31.6716 54.9037 29.8992 51.8339 26.9451 51.0423C23.9909 50.2508 20.9211 52.0231 20.1295 54.9773C19.338 57.9314 21.1103 61.0013 24.0645 61.7928ZM26.0464 54.3963C27.1792 54.6998 27.8458 55.8545 27.5423 56.9873C27.2388 58.1201 26.0841 58.7868 24.9513 58.4833C23.8185 58.1797 23.1518 57.025 23.4553 55.8922C23.7589 54.7594 24.9358 54.0987 26.0464 54.3963Z" fill="white"/>
<path d="M35.7568 67.3778C32.8027 66.5862 29.7329 68.3586 28.9413 71.3127C28.1497 74.2669 29.9221 77.3367 32.8763 78.1283C35.8304 78.9198 38.9002 77.1475 39.6918 74.1933C40.4833 71.2392 38.711 68.1694 35.7568 67.3778ZM33.7749 74.7743C32.6421 74.4708 31.9755 73.3161 32.279 72.1833C32.5825 71.0505 33.7372 70.3838 34.87 70.6873C36.0028 70.9909 36.6695 72.1456 36.366 73.2784C36.0624 74.4112 34.8855 75.0719 33.7749 74.7743Z" fill="white"/>
<path d="M42.0244 57.2253C41.5529 56.4086 40.4867 56.1229 39.67 56.5945L18.6601 68.7245C17.8434 69.196 17.5577 70.2622 18.0292 71.0789C18.2731 71.5014 18.6535 71.77 19.0755 71.883C19.4975 71.9961 19.9612 71.9537 20.3837 71.7098L41.3935 59.5798C42.2162 59.086 42.4959 58.0421 42.0244 57.2253Z" fill="white"/>
</svg>
