<svg width="13" height="13" viewBox="0 0 13 13" fill="none" xmlns="http://www.w3.org/2000/svg">
<path d="M12.2676 2.47692C12.1859 2.3962 12.0877 2.33208 11.979 2.28846C11.8703 2.24485 11.7534 2.22265 11.6353 2.22323H10.7296V1.58191C10.7317 1.44126 10.7033 1.3017 10.6462 1.17184C10.5891 1.04197 10.5045 0.924561 10.3977 0.826845C10.2944 0.725796 10.1704 0.645845 10.0332 0.591918C9.8961 0.537992 9.74874 0.511234 9.60025 0.513294H9.14898C9.00044 0.511331 8.85304 0.538206 8.71589 0.592263C8.57874 0.646319 8.45475 0.726409 8.35155 0.827594C8.24465 0.925282 8.16004 1.04269 8.10295 1.17256C8.04586 1.30243 8.01749 1.442 8.01961 1.58266V2.22398H5.30961V1.58191C5.31168 1.44126 5.2833 1.3017 5.22621 1.17184C5.16912 1.04197 5.08454 0.924561 4.97767 0.826845C4.8745 0.725889 4.7506 0.645991 4.6136 0.592068C4.4766 0.538145 4.32939 0.511337 4.18103 0.513294H3.72976C3.58122 0.511331 3.43383 0.538206 3.29668 0.592263C3.15953 0.646319 3.03553 0.726409 2.93233 0.827594C2.82547 0.92531 2.74088 1.04272 2.68379 1.17258C2.62671 1.30245 2.59832 1.44201 2.6004 1.58266V2.22398H1.69706C1.579 2.2234 1.46206 2.2456 1.35336 2.28921C1.24466 2.33283 1.14648 2.39695 1.0648 2.47767C0.979557 2.555 0.911836 2.64796 0.865774 2.75089C0.819712 2.85382 0.796273 2.96455 0.796886 3.07633V11.6305C0.799933 11.856 0.89563 12.0715 1.06368 12.2314C1.23173 12.3912 1.45891 12.4827 1.69706 12.4866H11.6322C11.8707 12.4835 12.0986 12.3924 12.2673 12.2327C12.436 12.0729 12.5322 11.8572 12.5355 11.6313V3.07858C12.5365 2.96629 12.5133 2.85499 12.4672 2.75152C12.4212 2.64805 12.3532 2.5546 12.2676 2.47692ZM3.73213 11.6305H1.69706V9.70656H3.72897L3.73213 11.6305ZM3.73213 9.27851H1.69706V7.14053H3.72897L3.73213 9.27851ZM3.73213 6.71248H1.69706V4.78852H3.72897L3.73213 6.71248ZM3.57407 3.65554C3.55268 3.63625 3.53569 3.61302 3.52414 3.58728C3.51259 3.56155 3.50672 3.53384 3.50689 3.50588V1.58191C3.50771 1.52539 3.53178 1.4714 3.574 1.43143C3.61621 1.39146 3.67323 1.36866 3.73292 1.36789H4.18103C4.24073 1.36866 4.29774 1.39146 4.33996 1.43143C4.38217 1.4714 4.40625 1.52539 4.40706 1.58191V3.50662C4.40625 3.56315 4.38217 3.61713 4.33996 3.6571C4.29774 3.69708 4.24073 3.71987 4.18103 3.72065H3.72976C3.69991 3.72088 3.67033 3.71528 3.64286 3.70421C3.6154 3.69314 3.59063 3.67682 3.57012 3.65629L3.57407 3.65554ZM6.44214 11.6298H4.18103V9.70656H6.43897L6.44214 11.6298ZM6.44214 9.27776H4.18103V7.14053H6.43897L6.44214 9.27776ZM6.44214 6.71173H4.18103V4.78852H6.43897L6.44214 6.71173ZM9.15214 11.629H6.89025V9.70656H9.14819L9.15214 11.629ZM9.15214 9.27702H6.89025V7.14053H9.14819L9.15214 9.27702ZM9.15214 6.71098H6.89025V4.78852H9.14819L9.15214 6.71098ZM8.99408 3.65405C8.9723 3.63531 8.95477 3.61259 8.94254 3.58724C8.93031 3.5619 8.92365 3.53448 8.92295 3.50662V1.58191C8.92357 1.52533 8.94758 1.47123 8.98983 1.43122C9.03209 1.39121 9.08922 1.36847 9.14898 1.36789H9.60025C9.66001 1.36847 9.71714 1.39121 9.7594 1.43122C9.80165 1.47123 9.82567 1.52533 9.82628 1.58191V3.50662C9.82567 3.56321 9.80165 3.6173 9.7594 3.65732C9.71714 3.69733 9.66001 3.72006 9.60025 3.72065H9.14898C9.11912 3.72092 9.08953 3.71535 9.06205 3.70427C9.03458 3.6932 9.00982 3.67686 8.98934 3.65629L8.99408 3.65405ZM11.6369 11.6283H9.60025V9.70656H11.6322L11.6369 11.6283ZM11.6369 9.27627H9.60025V7.14053H11.6322L11.6369 9.27627ZM11.6369 6.71024H9.60025V4.78852H11.6322L11.6369 6.71024Z" fill="#53B4FF"/>
</svg>
