<svg width="21" height="20" viewBox="0 0 21 20" fill="none" xmlns="http://www.w3.org/2000/svg">
<path d="M0.34375 10C0.34375 15.3845 4.89111 19.75 10.5 19.75C16.1089 19.75 20.6563 15.3845 20.6563 10C20.6563 4.61547 16.1089 0.250001 10.5 0.250001C4.89111 0.250002 0.343749 4.61547 0.34375 10ZM14.6353 8.34484C14.7071 8.27227 14.7933 8.21423 14.8889 8.17415C14.9844 8.13407 15.0874 8.11277 15.1916 8.11148C15.2959 8.1102 15.3994 8.12897 15.496 8.16669C15.5926 8.20441 15.6803 8.26031 15.7541 8.33109C15.8278 8.40188 15.886 8.48612 15.9253 8.57885C15.9646 8.67158 15.9842 8.77093 15.9828 8.87103C15.9815 8.97112 15.9593 9.06995 15.9176 9.16169C15.8758 9.25342 15.8153 9.33621 15.7397 9.40516L11.0522 13.9052C10.9057 14.0457 10.7071 14.1247 10.5 14.1247C10.2929 14.1247 10.0943 14.0457 9.94775 13.9052L5.26025 9.40516C5.11993 9.26336 5.04285 9.07455 5.04546 8.87898C5.04807 8.68341 5.13015 8.49655 5.27422 8.35825C5.41828 8.21995 5.61292 8.14114 5.81664 8.13864C6.02036 8.13614 6.21704 8.21013 6.36475 8.34484L10.5 12.3142L14.6353 8.34484Z" fill="#46ABF7"/>
</svg>
