<svg width="14" height="15" viewBox="0 0 14 15" fill="none" xmlns="http://www.w3.org/2000/svg">
<path d="M2.60219 2.29292C3.81365 0.934329 5.27336 0.255034 6.98132 0.255034C8.68928 0.255034 10.149 0.934329 11.3605 2.29292C12.5719 3.65151 13.1776 5.28851 13.1776 7.2039C13.1776 9.11929 12.5719 10.7563 11.3605 12.1149C10.149 13.4735 8.68928 14.1528 6.98132 14.1528C5.27336 14.1528 3.81365 13.4735 2.60219 12.1149C1.39073 10.7563 0.785001 9.11929 0.785001 7.2039C0.785001 5.28851 1.39073 3.65151 2.60219 2.29292ZM2.95967 11.714C4.07183 12.9612 5.41238 13.5848 6.98132 13.5848C8.55026 13.5848 9.89081 12.9612 11.003 11.714C12.1151 10.4667 12.6712 8.96339 12.6712 7.2039C12.6712 5.44441 12.1151 3.94105 11.003 2.69382C9.89081 1.44659 8.55026 0.822969 6.98132 0.822969C5.41238 0.822969 4.07183 1.44659 2.95967 2.69382C1.84751 3.94105 1.29143 5.44441 1.29143 7.2039C1.29143 8.96339 1.84751 10.4667 2.95967 11.714ZM6.98132 7.2039V2.92767H7.48775V7.77184H4.12148V7.2039H6.98132Z" fill="#52B4FF"/>
<path fill-rule="evenodd" clip-rule="evenodd" d="M6.98132 0.51C5.33388 0.51 3.93194 1.16226 2.76298 2.4732C1.59401 3.78414 1.01239 5.35634 1.01239 7.20386C1.01239 9.05139 1.59401 10.6236 2.76298 11.9345C3.93194 13.2455 5.33388 13.8977 6.98132 13.8977C8.62877 13.8977 10.0307 13.2455 11.1997 11.9345C12.3686 10.6236 12.9503 9.05139 12.9503 7.20386C12.9503 5.35634 12.3686 3.78414 11.1997 2.4732C10.0307 1.16226 8.62877 0.51 6.98132 0.51ZM2.44141 2.11257C3.69536 0.706328 5.21285 0 6.98132 0C8.7498 0 10.2673 0.706328 11.5212 2.11257C12.7752 3.51882 13.405 5.22061 13.405 7.20386C13.405 9.18712 12.7752 10.8889 11.5212 12.2952C10.2673 13.7014 8.7498 14.4077 6.98132 14.4077C5.21285 14.4077 3.69536 13.7014 2.44141 12.2952C1.18745 10.8889 0.557617 9.18712 0.557617 7.20386C0.557617 5.22061 1.18745 3.51882 2.44141 2.11257ZM2.79889 2.51347C3.95357 1.21855 5.35191 0.567935 6.98132 0.567935C8.61074 0.567935 10.0091 1.21855 11.1638 2.51347C12.3184 3.80839 12.8986 5.37656 12.8986 7.20386C12.8986 9.03117 12.3184 10.5993 11.1638 11.8943C10.0091 13.1892 8.61074 13.8398 6.98132 13.8398C5.35191 13.8398 3.95357 13.1892 2.79889 11.8943C1.6442 10.5993 1.06405 9.03117 1.06405 7.20386C1.06405 5.37656 1.6442 3.80839 2.79889 2.51347ZM6.98132 1.07793C5.47286 1.07793 4.19009 1.67455 3.12046 2.8741C2.05082 4.07364 1.51882 5.51219 1.51882 7.20386C1.51882 8.89554 2.05082 10.3341 3.12046 11.5336C4.19009 12.7332 5.47286 13.3298 6.98132 13.3298C8.48979 13.3298 9.77255 12.7332 10.8422 11.5336C11.9118 10.3341 12.4438 8.89554 12.4438 7.20386C12.4438 5.51219 11.9118 4.07364 10.8422 2.8741C9.77255 1.67455 8.48979 1.07793 6.98132 1.07793ZM6.75394 2.67264H7.71514V8.0268H3.8941V6.94886H6.75394V2.67264ZM7.20871 3.18264V7.45886H4.34887V7.5168H7.26037V3.18264H7.20871Z" fill="#52B4FF"/>
</svg>
