<svg width="15" height="15" viewBox="0 0 15 15" fill="none" xmlns="http://www.w3.org/2000/svg">
<path fill-rule="evenodd" clip-rule="evenodd" d="M14.7301 1.57214C14.8156 1.48672 14.8834 1.38531 14.9298 1.27367C14.9761 1.16203 15 1.04237 15 0.921502C15.0001 0.800637 14.9764 0.680941 14.9302 0.569248C14.884 0.457555 14.8163 0.356052 14.7309 0.270536C14.6455 0.185019 14.544 0.117163 14.4324 0.0708412C14.3208 0.0245197 14.2011 0.000640007 14.0802 0.00056572C13.9594 0.000491433 13.8397 0.024224 13.728 0.0704082C13.6163 0.116593 13.5148 0.184324 13.4293 0.269736L7.87887 5.82014L2.33007 0.269736C2.15736 0.0970267 1.92312 -1.81979e-09 1.67887 0C1.43462 1.81978e-09 1.20038 0.0970267 1.02767 0.269736C0.854961 0.442445 0.757935 0.676688 0.757935 0.920936C0.757935 1.16518 0.854961 1.39943 1.02767 1.57214L6.57807 7.12094L1.02767 12.6697C0.942153 12.7553 0.874318 12.8568 0.828037 12.9685C0.781755 13.0802 0.757935 13.2 0.757935 13.3209C0.757935 13.4419 0.781755 13.5616 0.828037 13.6734C0.874318 13.7851 0.942153 13.8866 1.02767 13.9721C1.20038 14.1448 1.43462 14.2419 1.67887 14.2419C1.79981 14.2419 1.91956 14.2181 2.0313 14.1718C2.14303 14.1255 2.24455 14.0577 2.33007 13.9721L7.87887 8.42174L13.4293 13.9721C13.602 14.1446 13.8361 14.2415 14.0802 14.2413C14.3243 14.2412 14.5584 14.144 14.7309 13.9713C14.9034 13.7986 15.0002 13.5645 15 13.3204C14.9999 13.0763 14.9028 12.8422 14.7301 12.6697L9.17967 7.12094L14.7301 1.57214Z" fill="black"/>
</svg>
