<svg width="32" height="32" viewBox="0 0 32 32" fill="none" xmlns="http://www.w3.org/2000/svg">
<rect width="32" height="32" rx="4" fill="#EBF4F6"/>
<path d="M24.25 11.2857C24.25 10.6605 24.0017 10.061 23.5596 9.61891C23.1176 9.17686 22.518 8.92852 21.8929 8.92852H21.3036V8.35581C21.3036 8.0387 21.0598 7.76652 20.7426 7.75068C20.663 7.74684 20.5833 7.75922 20.5086 7.78707C20.4338 7.81491 20.3655 7.85764 20.3078 7.91267C20.25 7.9677 20.204 8.03388 20.1726 8.1072C20.1412 8.18052 20.125 8.25946 20.125 8.33923V8.92852H11.875V8.35581C11.875 8.0387 11.6312 7.76652 11.3141 7.75068C11.2344 7.74684 11.1548 7.75922 11.08 7.78707C11.0053 7.81491 10.9369 7.85764 10.8792 7.91267C10.8214 7.9677 10.7755 8.03388 10.7441 8.1072C10.7126 8.18052 10.6964 8.25946 10.6964 8.33923V8.92852H10.1071C9.48199 8.92852 8.88244 9.17686 8.44039 9.61891C7.99834 10.061 7.75 10.6605 7.75 11.2857V11.7276C7.75 11.7667 7.76552 11.8042 7.79315 11.8318C7.82078 11.8594 7.85825 11.8749 7.89732 11.8749H24.1027C24.1418 11.8749 24.1792 11.8594 24.2069 11.8318C24.2345 11.8042 24.25 11.7667 24.25 11.7276V11.2857ZM7.75 21.8928C7.75 22.518 7.99834 23.1175 8.44039 23.5596C8.88244 24.0016 9.48199 24.2499 10.1071 24.2499H21.8929C22.518 24.2499 23.1176 24.0016 23.5596 23.5596C24.0017 23.1175 24.25 22.518 24.25 21.8928V13.164C24.25 13.1347 24.2384 13.1066 24.2176 13.0859C24.1969 13.0652 24.1688 13.0535 24.1395 13.0535H7.86049C7.83119 13.0535 7.80308 13.0652 7.78236 13.0859C7.76164 13.1066 7.75 13.1347 7.75 13.164V21.8928ZM20.4196 14.2321C20.5945 14.2321 20.7654 14.2839 20.9107 14.3811C21.0561 14.4782 21.1694 14.6162 21.2363 14.7778C21.3032 14.9393 21.3207 15.117 21.2866 15.2885C21.2525 15.4599 21.1683 15.6174 21.0447 15.741C20.9211 15.8647 20.7636 15.9489 20.5921 15.983C20.4206 16.0171 20.2429 15.9996 20.0814 15.9327C19.9199 15.8658 19.7818 15.7525 19.6847 15.6071C19.5876 15.4617 19.5357 15.2908 19.5357 15.116C19.5357 14.8816 19.6288 14.6568 19.7946 14.491C19.9604 14.3252 20.1852 14.2321 20.4196 14.2321ZM20.4196 17.1785C20.5945 17.1785 20.7654 17.2304 20.9107 17.3275C21.0561 17.4246 21.1694 17.5627 21.2363 17.7242C21.3032 17.8857 21.3207 18.0634 21.2866 18.2349C21.2525 18.4064 21.1683 18.5639 21.0447 18.6875C20.9211 18.8111 20.7636 18.8953 20.5921 18.9294C20.4206 18.9635 20.2429 18.946 20.0814 18.8791C19.9199 18.8122 19.7818 18.6989 19.6847 18.5535C19.5876 18.4082 19.5357 18.2373 19.5357 18.0624C19.5357 17.828 19.6288 17.6032 19.7946 17.4374C19.9604 17.2716 20.1852 17.1785 20.4196 17.1785ZM17.4732 14.2321C17.648 14.2321 17.8189 14.2839 17.9643 14.3811C18.1097 14.4782 18.223 14.6162 18.2899 14.7778C18.3568 14.9393 18.3743 15.117 18.3402 15.2885C18.3061 15.4599 18.2219 15.6174 18.0982 15.741C17.9746 15.8647 17.8171 15.9489 17.6457 15.983C17.4742 16.0171 17.2965 15.9996 17.135 15.9327C16.9734 15.8658 16.8354 15.7525 16.7383 15.6071C16.6411 15.4617 16.5893 15.2908 16.5893 15.116C16.5893 14.8816 16.6824 14.6568 16.8482 14.491C17.014 14.3252 17.2388 14.2321 17.4732 14.2321ZM17.4732 17.1785C17.648 17.1785 17.8189 17.2304 17.9643 17.3275C18.1097 17.4246 18.223 17.5627 18.2899 17.7242C18.3568 17.8857 18.3743 18.0634 18.3402 18.2349C18.3061 18.4064 18.2219 18.5639 18.0982 18.6875C17.9746 18.8111 17.8171 18.8953 17.6457 18.9294C17.4742 18.9635 17.2965 18.946 17.135 18.8791C16.9734 18.8122 16.8354 18.6989 16.7383 18.5535C16.6411 18.4082 16.5893 18.2373 16.5893 18.0624C16.5893 17.828 16.6824 17.6032 16.8482 17.4374C17.014 17.2716 17.2388 17.1785 17.4732 17.1785ZM17.4732 20.1249C17.648 20.1249 17.8189 20.1768 17.9643 20.2739C18.1097 20.371 18.223 20.5091 18.2899 20.6706C18.3568 20.8321 18.3743 21.0099 18.3402 21.1813C18.3061 21.3528 18.2219 21.5103 18.0982 21.6339C17.9746 21.7575 17.8171 21.8417 17.6457 21.8758C17.4742 21.9099 17.2965 21.8924 17.135 21.8255C16.9734 21.7586 16.8354 21.6453 16.7383 21.5C16.6411 21.3546 16.5893 21.1837 16.5893 21.0089C16.5893 20.7744 16.6824 20.5496 16.8482 20.3838C17.014 20.2181 17.2388 20.1249 17.4732 20.1249ZM14.5268 17.1785C14.7016 17.1785 14.8725 17.2304 15.0179 17.3275C15.1632 17.4246 15.2765 17.5627 15.3434 17.7242C15.4103 17.8857 15.4278 18.0634 15.3937 18.2349C15.3596 18.4064 15.2754 18.5639 15.1518 18.6875C15.0282 18.8111 14.8707 18.8953 14.6992 18.9294C14.5278 18.9635 14.35 18.946 14.1885 18.8791C14.027 18.8122 13.889 18.6989 13.7918 18.5535C13.6947 18.4082 13.6429 18.2373 13.6429 18.0624C13.6429 17.828 13.736 17.6032 13.9018 17.4374C14.0675 17.2716 14.2924 17.1785 14.5268 17.1785ZM14.5268 20.1249C14.7016 20.1249 14.8725 20.1768 15.0179 20.2739C15.1632 20.371 15.2765 20.5091 15.3434 20.6706C15.4103 20.8321 15.4278 21.0099 15.3937 21.1813C15.3596 21.3528 15.2754 21.5103 15.1518 21.6339C15.0282 21.7575 14.8707 21.8417 14.6992 21.8758C14.5278 21.9099 14.35 21.8924 14.1885 21.8255C14.027 21.7586 13.889 21.6453 13.7918 21.5C13.6947 21.3546 13.6429 21.1837 13.6429 21.0089C13.6429 20.7744 13.736 20.5496 13.9018 20.3838C14.0675 20.2181 14.2924 20.1249 14.5268 20.1249ZM11.5804 17.1785C11.7552 17.1785 11.9261 17.2304 12.0714 17.3275C12.2168 17.4246 12.3301 17.5627 12.397 17.7242C12.4639 17.8857 12.4814 18.0634 12.4473 18.2349C12.4132 18.4064 12.329 18.5639 12.2054 18.6875C12.0818 18.8111 11.9243 18.8953 11.7528 18.9294C11.5813 18.9635 11.4036 18.946 11.2421 18.8791C11.0806 18.8122 10.9425 18.6989 10.8454 18.5535C10.7483 18.4082 10.6964 18.2373 10.6964 18.0624C10.6964 17.828 10.7896 17.6032 10.9553 17.4374C11.1211 17.2716 11.3459 17.1785 11.5804 17.1785ZM11.5804 20.1249C11.7552 20.1249 11.9261 20.1768 12.0714 20.2739C12.2168 20.371 12.3301 20.5091 12.397 20.6706C12.4639 20.8321 12.4814 21.0099 12.4473 21.1813C12.4132 21.3528 12.329 21.5103 12.2054 21.6339C12.0818 21.7575 11.9243 21.8417 11.7528 21.8758C11.5813 21.9099 11.4036 21.8924 11.2421 21.8255C11.0806 21.7586 10.9425 21.6453 10.8454 21.5C10.7483 21.3546 10.6964 21.1837 10.6964 21.0089C10.6964 20.7744 10.7896 20.5496 10.9553 20.3838C11.1211 20.2181 11.3459 20.1249 11.5804 20.1249Z" fill="#4BAEFA"/>
</svg>
