<svg version="1.2" xmlns="http://www.w3.org/2000/svg" viewBox="0 0 45 42" width="45" height="42">
	<title>exchange-svg</title>
	<style>
		.s0 { fill: #ffffff } 
	</style>
	<path id="Layer" fill-rule="evenodd" class="s0" d="m32.5 19.5c0.8-0.7 1.9-0.7 2.6 0l7.4 6.8c0.7 0.7 0.7 1.7 0 2.4l-7.4 6.8c-0.7 0.7-1.8 0.7-2.6 0-0.7-0.7-0.7-1.7 0-2.4l6.1-5.6-6.1-5.6c-0.7-0.7-0.7-1.7 0-2.4z"/>
	<path id="Layer" fill-rule="evenodd" class="s0" d="m15 27.5c0-0.8 0.8-1.5 1.7-1.5h24.6c0.9 0 1.7 0.7 1.7 1.5 0 0.8-0.8 1.5-1.7 1.5h-24.6c-0.9 0-1.7-0.7-1.7-1.5z"/>
	<path id="Layer" fill-rule="evenodd" class="s0" d="m14.5 5.5c0.7 0.7 0.7 1.7 0 2.4l-5.5 5.6 5.5 5.6c0.7 0.7 0.7 1.7 0 2.4-0.6 0.7-1.7 0.7-2.3 0l-6.7-6.8c-0.7-0.7-0.7-1.7 0-2.4l6.7-6.8c0.6-0.7 1.7-0.7 2.3 0z"/>
	<path id="Layer" fill-rule="evenodd" class="s0" d="m5 13.5c0-0.8 0.8-1.5 1.7-1.5h24.6c0.9 0 1.7 0.7 1.7 1.5 0 0.8-0.8 1.5-1.7 1.5h-24.6c-0.9 0-1.7-0.7-1.7-1.5z"/>
</svg>