<svg width="24" height="25" viewBox="0 0 24 25" fill="none" xmlns="http://www.w3.org/2000/svg">
<path d="M17.25 6.49976H17.2542H17.25ZM22.4789 4.99976H18.2105L18.6286 3.3282L20.4248 2.71648C20.8069 2.58663 21.0342 2.1807 20.9241 1.79257C20.896 1.69494 20.8485 1.60401 20.7842 1.52531C20.72 1.44662 20.6405 1.38179 20.5504 1.33475C20.4604 1.28772 20.3618 1.25947 20.2605 1.2517C20.1592 1.24394 20.0574 1.25684 19.9612 1.2896L17.7581 2.0396C17.6395 2.08006 17.5329 2.14961 17.448 2.2419C17.3632 2.33418 17.3028 2.44626 17.2725 2.56788L16.6645 4.99976H10.5211C10.1175 4.99976 9.77109 5.31007 9.75093 5.71367C9.74604 5.81507 9.7618 5.91642 9.79724 6.01155C9.83267 6.10669 9.88706 6.19365 9.9571 6.26715C10.0271 6.34064 10.1114 6.39916 10.2047 6.43914C10.298 6.47913 10.3985 6.49975 10.5 6.49976H10.6289L10.6758 6.9057C10.6868 7.00049 10.7323 7.08793 10.8036 7.15137C10.8749 7.21481 10.9671 7.24982 11.0625 7.24976C12.8906 7.24976 14.5153 7.7607 15.7556 8.72726C16.4455 9.25881 17.0047 9.94103 17.3906 10.7218C17.6066 11.161 17.766 11.6258 17.865 12.1051C17.8847 12.1985 17.94 12.2805 18.0192 12.3338C18.6569 12.7665 19.1273 13.4043 19.3522 14.1414C19.5772 14.8784 19.5431 15.6702 19.2558 16.3852C19.2223 16.468 19.2199 16.56 19.2487 16.6444C19.4148 17.1203 19.4997 17.6207 19.5 18.1248C19.5 19.1719 19.1437 20.1699 18.4969 20.9349C18.1301 21.3715 17.6688 21.7189 17.1478 21.9507C17.0577 21.9904 16.9868 22.064 16.9505 22.1555C16.7558 22.6627 16.4809 23.1353 16.1362 23.5552C16.1219 23.5723 16.1127 23.593 16.1097 23.6151C16.1068 23.6372 16.1102 23.6597 16.1195 23.6799C16.1289 23.7001 16.1438 23.7172 16.1625 23.7293C16.1813 23.7413 16.203 23.7478 16.2253 23.7479H18.532C19.0968 23.7456 19.6402 23.5319 20.0554 23.149C20.4705 22.766 20.7272 22.2416 20.775 21.6788L22.3781 6.49976H22.5C22.6016 6.49988 22.7022 6.47935 22.7956 6.43942C22.889 6.39949 22.9734 6.341 23.0435 6.26748C23.1136 6.19397 23.1681 6.10698 23.2036 6.01177C23.2391 5.91657 23.2549 5.81515 23.25 5.71367C23.2303 5.31007 22.8825 4.99976 22.4789 4.99976Z" fill="#062D4A"/>
<path d="M5.09484 15.5C5.24277 15.4993 5.38936 15.5279 5.52614 15.5843C5.66292 15.6406 5.78718 15.7235 5.89172 15.8281L6.61875 16.5552C6.63616 16.5726 6.65684 16.5864 6.67961 16.5959C6.70237 16.6053 6.72677 16.6101 6.75141 16.6101C6.77605 16.6101 6.80045 16.6053 6.82321 16.5959C6.84597 16.5864 6.86665 16.5726 6.88406 16.5552L7.60969 15.8281C7.71423 15.7235 7.83849 15.6406 7.97527 15.5843C8.11205 15.5279 8.25864 15.4993 8.40656 15.5H17.6213C17.6705 15.5005 17.7194 15.4913 17.765 15.4729C17.8107 15.4545 17.8523 15.4273 17.8875 15.3928C17.9227 15.3583 17.9507 15.3173 17.97 15.272C17.9893 15.2267 17.9995 15.178 18 15.1287V15.125C17.9995 14.6929 17.85 14.2742 17.5768 13.9395C17.3035 13.6048 16.9232 13.3745 16.5 13.2875C16.4616 11.8958 15.8906 10.7309 14.8355 9.9125C13.8595 9.15125 12.5555 8.75 11.0625 8.75H7.6875C4.48969 8.75 2.32359 10.5673 2.25 13.2875C1.82677 13.3745 1.44649 13.6048 1.17325 13.9395C0.90001 14.2742 0.750528 14.6929 0.75 15.125C0.75 15.2245 0.789509 15.3198 0.859835 15.3902C0.930161 15.4605 1.02554 15.5 1.125 15.5H5.09484ZM8.71594 17C8.66668 17 8.61789 17.0096 8.57237 17.0284C8.52685 17.0473 8.48548 17.0749 8.45063 17.1097L7.41281 18.148C7.23701 18.3237 6.99859 18.4225 6.75 18.4225C6.50141 18.4225 6.263 18.3237 6.08719 18.148L5.04938 17.1097C5.01452 17.0749 4.97315 17.0473 4.92763 17.0284C4.88211 17.0096 4.83332 17 4.78406 17H1.53094C1.35476 16.9992 1.18398 17.0608 1.04879 17.1737C0.913601 17.2867 0.82271 17.4438 0.792188 17.6173C0.764027 17.7851 0.749916 17.9549 0.75 18.125C0.75 19.5589 1.74047 20.727 2.96531 20.75C3.07922 21.4587 3.35484 22.0991 3.76969 22.6002C4.38328 23.3413 5.27531 23.75 6.28125 23.75H12.4688C13.4747 23.75 14.3667 23.3413 14.9803 22.5992C15.3952 22.0981 15.6708 21.4578 15.7847 20.7491C17.0095 20.727 18 19.5589 18 18.1241C18.0001 17.954 17.986 17.7842 17.9578 17.6164C17.9271 17.4431 17.8361 17.2861 17.7009 17.1734C17.5658 17.0606 17.3951 16.9992 17.2191 17H8.71594Z" fill="#062D4A"/>
</svg>
