<svg width="102" height="102" viewBox="0 0 102 102" fill="none" xmlns="http://www.w3.org/2000/svg">
<path d="M25.0921 63.6652C24.6412 63.6652 24.2088 63.8443 23.89 64.1631C23.5712 64.482 23.3921 64.9144 23.3921 65.3652V71.4512C23.3921 71.9156 23.5766 72.361 23.9049 72.6894C24.2333 73.0177 24.6787 73.2022 25.1431 73.2022C25.6075 73.2022 26.0529 73.0177 26.3812 72.6894C26.7096 72.361 26.8941 71.9156 26.8941 71.4512V65.4162C26.9016 65.1799 26.8598 64.9446 26.7712 64.7253C26.6826 64.506 26.5492 64.3077 26.3797 64.1429C26.2101 63.9781 26.008 63.8505 25.7863 63.7683C25.5646 63.686 25.3281 63.6509 25.0921 63.6652Z" fill="white"/>
<path d="M26.8431 53.2608C26.8431 52.7964 26.6586 52.351 26.3302 52.0226C26.0018 51.6942 25.5565 51.5098 25.0921 51.5098C24.6277 51.5098 24.1823 51.6942 23.8539 52.0226C23.5255 52.351 23.3411 52.7964 23.3411 53.2608V59.3468C23.3411 59.8112 23.5255 60.2565 23.8539 60.5849C24.1823 60.9133 24.6277 61.0978 25.0921 61.0978C25.5565 61.0978 26.0018 60.9133 26.3302 60.5849C26.6586 60.2565 26.8431 59.8112 26.8431 59.3468V53.2608Z" fill="white"/>
<path d="M36.584 54.5528H43.792C44.2564 54.5528 44.7018 54.3683 45.0302 54.0399C45.3585 53.7115 45.543 53.2662 45.543 52.8018C45.543 52.3374 45.3585 51.892 45.0302 51.5636C44.7018 51.2353 44.2564 51.0508 43.792 51.0508H36.584C36.1196 51.0508 35.6742 51.2353 35.3459 51.5636C35.0175 51.892 34.833 52.3374 34.833 52.8018C34.833 53.2662 35.0175 53.7115 35.3459 54.0399C35.6742 54.3683 36.1196 54.5528 36.584 54.5528Z" fill="white"/>
<path d="M36.584 70.21C36.1196 70.21 35.6742 70.3944 35.3459 70.7228C35.0175 71.0512 34.833 71.4966 34.833 71.961C34.833 72.4254 35.0175 72.8707 35.3459 73.1991C35.6742 73.5275 36.1196 73.712 36.584 73.712H53.584C54.0484 73.712 54.4938 73.5275 54.8222 73.1991C55.1505 72.8707 55.335 72.4254 55.335 71.961C55.335 71.4966 55.1505 71.0512 54.8222 70.7228C54.4938 70.3944 54.0484 70.21 53.584 70.21H36.584Z" fill="white"/>
<path d="M59.9722 68.5001L81.0862 60.2041L85.8972 65.1001C87.1753 66.37 88.8614 67.1468 90.6572 67.2931C91.422 67.3753 92.1954 67.2834 92.9196 67.0243C93.6438 66.7652 94.3001 66.3457 94.8392 65.7971C95.3894 65.2536 95.8132 64.5957 96.0805 63.87C96.3479 63.1443 96.4522 62.3687 96.3862 61.5981C96.2293 59.8151 95.4534 58.1432 94.1932 56.8721L89.2632 51.9421L97.4912 30.9131C97.6246 30.596 97.6587 30.2458 97.5889 29.9089C97.5191 29.572 97.3487 29.2641 97.1002 29.0261L93.2582 25.1841C93.0851 25.0063 92.8752 24.8684 92.6432 24.7803C92.4112 24.6922 92.1627 24.656 91.9152 24.6741C91.4869 24.703 91.083 24.8839 90.7762 25.1841C90.7218 25.2329 90.6759 25.2904 90.6402 25.3541L87.3762 29.5531L86.8492 29.0261C86.5201 28.697 86.0737 28.5121 85.6082 28.5121C85.1427 28.5121 84.6963 28.697 84.3672 29.0261C84.0381 29.3553 83.8532 29.8017 83.8532 30.2671C83.8532 30.7326 84.0381 31.179 84.3672 31.5081L85.2002 32.3411L82.8882 35.3161L82.3442 34.7721C82.0151 34.443 81.5687 34.2581 81.1032 34.2581C80.6377 34.2581 80.1913 34.443 79.8622 34.7721C79.5331 35.1013 79.3482 35.5477 79.3482 36.0131C79.3482 36.4786 79.5331 36.925 79.8622 37.2541L80.7122 38.1041L78.4002 41.0791L72.5862 35.3331L71.6172 34.4321L73.7592 28.8731C73.8868 28.5565 73.9161 28.2088 73.8434 27.8753C73.7706 27.5417 73.5991 27.2378 73.3512 27.0031L70.8862 24.5381C70.7272 24.3683 70.535 24.2329 70.3215 24.1403C70.1081 24.0478 69.8779 24 69.6452 24C69.4125 24 69.1823 24.0478 68.9689 24.1403C68.7554 24.2329 68.5632 24.3683 68.4042 24.5381L63.1852 29.7571C62.8792 29.6721 62.5732 29.5701 62.2672 29.5021C61.7458 29.3715 61.1994 29.3781 60.6813 29.5214C60.1633 29.6648 59.6912 29.9399 59.3111 30.32C58.931 30.7001 58.6558 31.1722 58.5125 31.6903C58.3692 32.2083 58.3625 32.7547 58.4932 33.2761L58.7482 34.1771L53.5292 39.4131C53.362 39.572 53.2289 39.7631 53.1379 39.975C53.047 40.1869 53.0001 40.4151 53.0001 40.6456C53.0001 40.8762 53.047 41.1044 53.1379 41.3163C53.2289 41.5282 53.362 41.7193 53.5292 41.8781L56.0112 44.3601C56.2479 44.6052 56.5527 44.7734 56.8861 44.8432C57.2195 44.9129 57.5662 44.8808 57.8812 44.7511L63.4402 42.6261C63.7292 42.9491 64.0182 43.2721 64.3242 43.5781L70.0872 49.3241L67.0952 51.6531L66.2622 50.8031C66.1032 50.6333 65.911 50.4979 65.6975 50.4053C65.4841 50.3128 65.2539 50.265 65.0212 50.265C64.7885 50.265 64.5583 50.3128 64.3449 50.4053C64.1314 50.4979 63.9392 50.6333 63.7802 50.8031C63.6104 50.9622 63.475 51.1543 63.3824 51.3678C63.2898 51.5813 63.2421 51.8115 63.2421 52.0441C63.2421 52.2768 63.2898 52.507 63.3824 52.7205C63.475 52.9339 63.6104 53.1261 63.7802 53.2851L64.3072 53.8121L61.3322 56.1411L60.4992 55.3081C60.3362 55.1452 60.1428 55.0159 59.9298 54.9277C59.7169 54.8395 59.4887 54.7941 59.2582 54.7941C59.0277 54.7941 58.7995 54.8395 58.5866 54.9277C58.3736 55.0159 58.1802 55.1452 58.0172 55.3081C57.8542 55.4711 57.725 55.6646 57.6368 55.8775C57.5486 56.0904 57.5032 56.3187 57.5032 56.5491C57.5032 56.7796 57.5486 57.0078 57.6368 57.2208C57.725 57.4337 57.8542 57.6272 58.0172 57.7901L58.5442 58.3001L54.3452 61.5641L54.1752 61.7171C53.8822 62.022 53.7022 62.4179 53.6652 62.8391C53.6445 63.0894 53.6795 63.3412 53.7676 63.5763C53.8558 63.8115 53.995 64.0242 54.1752 64.1991L58.0342 68.0411C58.2679 68.3117 58.581 68.5017 58.9289 68.5842C59.2769 68.6666 59.6419 68.6372 59.9722 68.5001ZM66.8062 31.1001L69.7132 28.1931L70.1382 28.6351L68.7782 32.2051C68.1399 31.8039 67.4817 31.4351 66.8062 31.1001ZM92.1872 29.0601L93.8872 30.7601L86.6282 49.3071L80.9672 43.6461L92.1872 29.0601ZM57.2862 40.6371L60.1762 37.7471C60.5162 38.4101 60.8902 39.0731 61.2812 39.7021L57.7112 41.0791L57.2862 40.6371ZM66.8402 41.0961C64.6114 38.8615 62.9803 36.1022 62.0972 33.0721C65.1563 33.967 67.936 35.6289 70.1722 37.9001L91.7112 59.3541C92.3953 60.0378 92.8166 60.9407 92.9012 61.9041C92.9245 62.1572 92.8908 62.4122 92.8025 62.6505C92.7143 62.8888 92.5737 63.1043 92.3912 63.2811C92.1985 63.4749 91.9619 63.6193 91.7014 63.7022C91.441 63.785 91.1645 63.8039 90.8952 63.7571C89.9485 63.6785 89.0616 63.2622 88.3962 62.5841L66.8402 41.0961ZM58.1362 63.1111L72.5862 51.8231L78.2472 57.5011L59.7002 64.7431L58.1362 63.1111Z" fill="white"/>
<path d="M36.584 54.5528H43.792C44.2564 54.5528 44.7018 54.3683 45.0302 54.0399C45.3585 53.7115 45.543 53.2662 45.543 52.8018C45.543 52.3374 45.3585 51.892 45.0302 51.5636C44.7018 51.2353 44.2564 51.0508 43.792 51.0508H36.584C36.1196 51.0508 35.6742 51.2353 35.3459 51.5636C35.0175 51.892 34.833 52.3374 34.833 52.8018C34.833 53.2662 35.0175 53.7115 35.3459 54.0399C35.6742 54.3683 36.1196 54.5528 36.584 54.5528Z" fill="white"/>
<path d="M36.584 68.5528H43.792C44.2564 68.5528 44.7018 68.3683 45.0302 68.0399C45.3585 67.7115 45.543 67.2662 45.543 66.8018C45.543 66.3374 45.3585 65.892 45.0302 65.5636C44.7018 65.2353 44.2564 65.0508 43.792 65.0508H36.584C36.1196 65.0508 35.6742 65.2353 35.3459 65.5636C35.0175 65.892 34.833 66.3374 34.833 66.8018C34.833 67.2662 35.0175 67.7115 35.3459 68.0399C35.6742 68.3683 36.1196 68.5528 36.584 68.5528Z" fill="white"/>
<path d="M36.584 70.21C36.1196 70.21 35.6742 70.3944 35.3459 70.7228C35.0175 71.0512 34.833 71.4966 34.833 71.961C34.833 72.4254 35.0175 72.8707 35.3459 73.1991C35.6742 73.5275 36.1196 73.712 36.584 73.712H53.584C54.0484 73.712 54.4938 73.5275 54.8222 73.1991C55.1505 72.8707 55.335 72.4254 55.335 71.961C55.335 71.4966 55.1505 71.0512 54.8222 70.7228C54.4938 70.3944 54.0484 70.21 53.584 70.21H36.584Z" fill="white"/>
<path d="M84.6939 67.2519C84.2431 67.2519 83.8107 67.431 83.4919 67.7498C83.173 68.0686 82.9939 68.501 82.9939 68.9519V78.6929C82.9895 78.8478 82.9249 78.9948 82.8138 79.1027C82.7027 79.2106 82.5538 79.271 82.3989 79.2709H12.0019L14.5689 75.8709C14.8061 75.5708 14.9351 75.1994 14.9351 74.8169C14.9351 74.4344 14.8061 74.063 14.5689 73.7629L10.6929 68.6629L14.5689 63.5629C14.8019 63.2642 14.9284 62.8962 14.9284 62.5174C14.9284 62.1386 14.8019 61.7706 14.5689 61.4719L10.6929 56.0999L14.5689 50.9999C14.8019 50.7012 14.9284 50.3332 14.9284 49.9544C14.9284 49.5756 14.8019 49.2076 14.5689 48.9089L12.0019 45.5089H42.3299C42.7943 45.5089 43.2397 45.3244 43.5681 44.9961C43.8965 44.6677 44.0809 44.2223 44.0809 43.7579C44.0809 43.2935 43.8965 42.8481 43.5681 42.5198C43.2397 42.1914 42.7943 42.0069 42.3299 42.0069H18.8529L20.3829 34.8159L49.2999 40.7999C49.5232 40.8479 49.7537 40.8515 49.9783 40.8104C50.2029 40.7693 50.4173 40.6844 50.6091 40.5604C50.8009 40.4365 50.9664 40.276 51.0962 40.0882C51.2259 39.9003 51.3174 39.6887 51.3654 39.4654C51.4134 39.2422 51.417 39.0117 51.3759 38.787C51.3348 38.5624 51.2499 38.3481 51.126 38.1563C51.002 37.9645 50.8416 37.799 50.6537 37.6692C50.4658 37.5394 50.2542 37.4479 50.0309 37.3999L20.6209 31.1439C19.8737 31.0023 19.1006 31.1574 18.4658 31.5764C17.8311 31.9953 17.3845 32.6451 17.2209 33.3879L15.2999 41.9389H8.49994C8.16487 41.9146 7.83013 41.9901 7.53795 42.156C7.24578 42.3218 7.00929 42.5704 6.85832 42.8705C6.70736 43.1706 6.64869 43.5087 6.68974 43.8422C6.73078 44.1756 6.86969 44.4894 7.08894 44.7439L10.9819 49.8439L7.08894 54.9439C6.86515 55.2498 6.74453 55.6189 6.74453 55.9979C6.74453 56.3769 6.86515 56.7461 7.08894 57.0519L10.9819 62.3899L7.08894 67.4899C6.86515 67.7958 6.74453 68.1649 6.74453 68.5439C6.74453 68.9229 6.86515 69.292 7.08894 69.5979L10.9819 74.7999L7.08894 79.8999C6.8931 80.1572 6.77468 80.465 6.74758 80.7871C6.72048 81.1093 6.78582 81.4326 6.93594 81.7189C7.0737 82.0167 7.29466 82.2682 7.57218 82.4431C7.84969 82.6181 8.1719 82.709 8.49994 82.7049H82.3479C83.4345 82.7049 84.4766 82.2733 85.2449 81.5049C86.0133 80.7366 86.4449 79.6945 86.4449 78.6079V69.0029C86.452 68.7711 86.4115 68.5402 86.326 68.3246C86.2406 68.1089 86.1118 67.9131 85.9478 67.749C85.7838 67.585 85.5879 67.4563 85.3723 67.3708C85.1566 67.2853 84.9258 67.2449 84.6939 67.2519Z" fill="white"/>
</svg>
