<svg width="102" height="102" viewBox="0 0 102 102" fill="none" xmlns="http://www.w3.org/2000/svg">
<path d="M25.0921 63.6652C24.6412 63.6652 24.2088 63.8443 23.89 64.1631C23.5712 64.482 23.3921 64.9144 23.3921 65.3652V71.4512C23.3921 71.9156 23.5766 72.361 23.9049 72.6894C24.2333 73.0177 24.6787 73.2022 25.1431 73.2022C25.6075 73.2022 26.0529 73.0177 26.3812 72.6894C26.7096 72.361 26.8941 71.9156 26.8941 71.4512V65.4162C26.9016 65.1799 26.8598 64.9446 26.7712 64.7253C26.6826 64.506 26.5492 64.3077 26.3797 64.1429C26.2101 63.9781 26.008 63.8505 25.7863 63.7683C25.5646 63.686 25.3281 63.6509 25.0921 63.6652Z" fill="white"/>
<path d="M26.8428 53.2608C26.8428 52.7964 26.6583 52.351 26.33 52.0226C26.0016 51.6942 25.5562 51.5098 25.0918 51.5098C24.6274 51.5098 24.1821 51.6942 23.8537 52.0226C23.5253 52.351 23.3408 52.7964 23.3408 53.2608V59.3468C23.3408 59.8112 23.5253 60.2565 23.8537 60.5849C24.1821 60.9133 24.6274 61.0978 25.0918 61.0978C25.5562 61.0978 26.0016 60.9133 26.33 60.5849C26.6583 60.2565 26.8428 59.8112 26.8428 59.3468V53.2608Z" fill="white"/>
<path d="M36.584 54.5528H43.792C44.2564 54.5528 44.7018 54.3683 45.0302 54.0399C45.3585 53.7115 45.543 53.2662 45.543 52.8018C45.543 52.3374 45.3585 51.892 45.0302 51.5636C44.7018 51.2353 44.2564 51.0508 43.792 51.0508H36.584C36.1196 51.0508 35.6742 51.2353 35.3459 51.5636C35.0175 51.892 34.833 52.3374 34.833 52.8018C34.833 53.2662 35.0175 53.7115 35.3459 54.0399C35.6742 54.3683 36.1196 54.5528 36.584 54.5528Z" fill="white"/>
<path d="M61.081 65.2122C61.081 64.7613 60.9019 64.3289 60.5831 64.0101C60.2643 63.6913 59.8319 63.5122 59.381 63.5122H36.584C36.1196 63.5122 35.6742 63.6967 35.3459 64.0251C35.0175 64.3534 34.833 64.7988 34.833 65.2632C34.833 65.7276 35.0175 66.173 35.3459 66.5014C35.6742 66.8297 36.1196 67.0142 36.584 67.0142H59.33C59.5664 67.0217 59.8017 66.9799 60.0209 66.8913C60.2402 66.8027 60.4385 66.6694 60.6033 66.4998C60.7681 66.3302 60.8957 66.1281 60.978 65.9064C61.0602 65.6847 61.0953 65.4482 61.081 65.2122Z" fill="white"/>
<path d="M36.584 70.21C36.1196 70.21 35.6742 70.3944 35.3459 70.7228C35.0175 71.0512 34.833 71.4966 34.833 71.961C34.833 72.4254 35.0175 72.8707 35.3459 73.1991C35.6742 73.5275 36.1196 73.712 36.584 73.712H53.584C54.0484 73.712 54.4938 73.5275 54.8222 73.1991C55.1505 72.8707 55.335 72.4254 55.335 71.961C55.335 71.4966 55.1505 71.0512 54.8222 70.7228C54.4938 70.3944 54.0484 70.21 53.584 70.21H36.584Z" fill="white"/>
<path d="M95.1998 56.8142L86.9038 35.7002L91.7998 30.8892C93.0697 29.6111 93.8465 27.9249 93.9928 26.1292C94.075 25.3644 93.9831 24.591 93.724 23.8668C93.4649 23.1426 93.0454 22.4863 92.4968 21.9472C91.9533 21.397 91.2954 20.9732 90.5697 20.7059C89.844 20.4385 89.0684 20.3341 88.2978 20.4002C86.5148 20.5571 84.8429 21.3329 83.5718 22.5932L78.6418 27.5232L57.6128 19.2952C57.2957 19.1617 56.9455 19.1277 56.6086 19.1975C56.2717 19.2673 55.9639 19.4377 55.7258 19.6862L51.8838 23.5282C51.706 23.7012 51.5681 23.9111 51.48 24.1432C51.3919 24.3752 51.3557 24.6237 51.3738 24.8712C51.4028 25.2995 51.5836 25.7034 51.8838 26.0102C51.9326 26.0646 51.9901 26.1105 52.0538 26.1462L56.2528 29.4102L55.7258 29.9372C55.3967 30.2663 55.2118 30.7127 55.2118 31.1782C55.2118 31.6436 55.3967 32.09 55.7258 32.4192C56.055 32.7483 56.5014 32.9332 56.9668 32.9332C57.4323 32.9332 57.8787 32.7483 58.2079 32.4192L59.0408 31.5862L62.0158 33.8982L61.4718 34.4422C61.1427 34.7713 60.9578 35.2177 60.9578 35.6832C60.9578 36.1486 61.1427 36.595 61.4718 36.9242C61.801 37.2533 62.2474 37.4382 62.7128 37.4382C63.1783 37.4382 63.6247 37.2533 63.9538 36.9242L64.8038 36.0742L67.7788 38.3862L62.0329 44.2002L61.1318 45.1692L55.5728 43.0272C55.2562 42.8996 54.9085 42.8702 54.575 42.943C54.2414 43.0158 53.9375 43.1873 53.7028 43.4352L51.2378 45.9002C51.068 46.0592 50.9326 46.2514 50.84 46.4648C50.7475 46.6783 50.6997 46.9085 50.6997 47.1412C50.6997 47.3738 50.7475 47.604 50.84 47.8175C50.9326 48.031 51.068 48.2232 51.2378 48.3822L56.4568 53.6012C56.3718 53.9072 56.2699 54.2132 56.2019 54.5192C56.0712 55.0406 56.0778 55.587 56.2211 56.105C56.3645 56.6231 56.6396 57.0952 57.0197 57.4753C57.3998 57.8554 57.8719 58.1306 58.39 58.2739C58.9081 58.4172 59.4544 58.4239 59.9758 58.2932L60.8769 58.0382L66.1128 63.2572C66.2717 63.4243 66.4628 63.5575 66.6747 63.6484C66.8866 63.7394 67.1148 63.7863 67.3454 63.7863C67.5759 63.7863 67.8041 63.7394 68.016 63.6484C68.2279 63.5575 68.419 63.4243 68.5778 63.2572L71.0598 60.7752C71.3049 60.5385 71.4732 60.2337 71.5429 59.9003C71.6126 59.5669 71.5805 59.2202 71.4508 58.9052L69.3258 53.3462C69.6488 53.0572 69.9718 52.7682 70.2778 52.4622L76.0238 46.6992L78.3528 49.6912L77.5028 50.5242C77.333 50.6832 77.1976 50.8754 77.105 51.0888C77.0125 51.3023 76.9647 51.5325 76.9647 51.7652C76.9647 51.9978 77.0125 52.228 77.105 52.4415C77.1976 52.655 77.333 52.8472 77.5028 53.0062C77.6619 53.176 77.8541 53.3114 78.0675 53.404C78.281 53.4966 78.5112 53.5443 78.7438 53.5443C78.9765 53.5443 79.2067 53.4966 79.4202 53.404C79.6336 53.3114 79.8258 53.176 79.9848 53.0062L80.5118 52.4792L82.8408 55.4542L82.0079 56.2872C81.8449 56.4501 81.7156 56.6436 81.6274 56.8565C81.5392 57.0695 81.4938 57.2977 81.4938 57.5282C81.4938 57.7586 81.5392 57.9869 81.6274 58.1998C81.7156 58.4127 81.8449 58.6062 82.0079 58.7692C82.1708 58.9321 82.3643 59.0614 82.5772 59.1496C82.7902 59.2378 83.0184 59.2832 83.2488 59.2832C83.4793 59.2832 83.7075 59.2378 83.9205 59.1496C84.1334 59.0614 84.3269 58.9321 84.4898 58.7692L84.9998 58.2422L88.2638 62.4412L88.4168 62.6112C88.7217 62.9042 89.1176 63.0842 89.5388 63.1212C89.7891 63.1419 90.0409 63.1069 90.2761 63.0187C90.5112 62.9305 90.7239 62.7914 90.8988 62.6112L94.7408 58.7522C95.0114 58.5185 95.2015 58.2054 95.2839 57.8574C95.3663 57.5095 95.3369 57.1444 95.1998 56.8142ZM57.7998 49.9802L54.8928 47.0732L55.3348 46.6482L58.9049 48.0082C58.5036 48.6465 58.1348 49.3047 57.7998 49.9802ZM55.7598 24.5992L57.4598 22.8992L76.0068 30.1582L70.3458 35.8192L55.7598 24.5992ZM67.3368 59.5002L64.4468 56.6102C65.1098 56.2702 65.7729 55.8962 66.4018 55.5052L67.7788 59.0752L67.3368 59.5002ZM67.7958 49.9462C65.5612 52.175 62.8019 53.806 59.7718 54.6892C60.6667 51.63 62.3286 48.8504 64.5998 46.6142L86.0538 25.0752C86.7375 24.3911 87.6404 23.9698 88.6038 23.8852C88.8569 23.8619 89.112 23.8956 89.3503 23.9838C89.5886 24.0721 89.804 24.2127 89.9808 24.3952C90.1746 24.5879 90.319 24.8245 90.4019 25.0849C90.4847 25.3454 90.5036 25.6219 90.4568 25.8912C90.3782 26.8379 89.9619 27.7248 89.2838 28.3902L67.7958 49.9462ZM89.8108 58.6502L78.5228 44.2002L84.2008 38.5392L91.4428 57.0862L89.8108 58.6502Z" fill="white"/>
<path d="M36.584 54.5528H43.792C44.2564 54.5528 44.7018 54.3683 45.0302 54.0399C45.3585 53.7115 45.543 53.2662 45.543 52.8018C45.543 52.3374 45.3585 51.892 45.0302 51.5636C44.7018 51.2353 44.2564 51.0508 43.792 51.0508H36.584C36.1196 51.0508 35.6742 51.2353 35.3459 51.5636C35.0175 51.892 34.833 52.3374 34.833 52.8018C34.833 53.2662 35.0175 53.7115 35.3459 54.0399C35.6742 54.3683 36.1196 54.5528 36.584 54.5528Z" fill="white"/>
<path d="M34.8332 65.212C34.8332 65.6629 35.0123 66.0953 35.3311 66.4141C35.6499 66.7329 36.0823 66.912 36.5332 66.912H59.3132C59.7776 66.912 60.223 66.7276 60.5513 66.3992C60.8797 66.0708 61.0642 65.6254 61.0642 65.161C61.0642 64.6967 60.8797 64.2513 60.5513 63.9229C60.223 63.5945 59.7776 63.41 59.3132 63.41H36.5842C36.3478 63.4025 36.1125 63.4444 35.8933 63.533C35.674 63.6215 35.4757 63.7549 35.3109 63.9245C35.1461 64.0941 35.0185 64.2962 34.9362 64.5179C34.854 64.7396 34.8189 64.976 34.8332 65.212Z" fill="white"/>
<path d="M36.584 70.21C36.1196 70.21 35.6742 70.3944 35.3459 70.7228C35.0175 71.0512 34.833 71.4966 34.833 71.961C34.833 72.4254 35.0175 72.8707 35.3459 73.1991C35.6742 73.5275 36.1196 73.712 36.584 73.712H53.584C54.0484 73.712 54.4938 73.5275 54.8222 73.1991C55.1505 72.8707 55.335 72.4254 55.335 71.961C55.335 71.4966 55.1505 71.0512 54.8222 70.7228C54.4938 70.3944 54.0484 70.21 53.584 70.21H36.584Z" fill="white"/>
<path d="M84.6942 67.2519C84.2433 67.2519 83.8109 67.431 83.4921 67.7498C83.1733 68.0686 82.9942 68.501 82.9942 68.9519V78.6929C82.9898 78.8478 82.9251 78.9948 82.814 79.1027C82.7029 79.2106 82.5541 79.271 82.3992 79.2709H12.0022L14.5692 75.8709C14.8063 75.5708 14.9354 75.1994 14.9354 74.8169C14.9354 74.4344 14.8063 74.063 14.5692 73.7629L10.6932 68.6629L14.5692 63.5629C14.8022 63.2642 14.9287 62.8962 14.9287 62.5174C14.9287 62.1386 14.8022 61.7706 14.5692 61.4719L10.6932 56.0999L14.5692 50.9999C14.8022 50.7012 14.9287 50.3332 14.9287 49.9544C14.9287 49.5756 14.8022 49.2076 14.5692 48.9089L12.0022 45.5089H42.3302C42.7946 45.5089 43.2399 45.3244 43.5683 44.9961C43.8967 44.6677 44.0812 44.2223 44.0812 43.7579C44.0812 43.2935 43.8967 42.8481 43.5683 42.5198C43.2399 42.1914 42.7946 42.0069 42.3302 42.0069H18.8532L20.3832 34.8159L49.3002 40.7999C49.5234 40.8479 49.7539 40.8515 49.9786 40.8104C50.2032 40.7693 50.4175 40.6844 50.6093 40.5604C50.8011 40.4365 50.9666 40.276 51.0964 40.0882C51.2262 39.9003 51.3177 39.6887 51.3657 39.4654C51.4137 39.2422 51.4172 39.0117 51.3761 38.787C51.3351 38.5624 51.2501 38.3481 51.1262 38.1563C51.0023 37.9645 50.8418 37.799 50.6539 37.6692C50.466 37.5394 50.2544 37.4479 50.0312 37.3999L20.6212 31.1439C19.8739 31.0023 19.1009 31.1574 18.4661 31.5764C17.8313 31.9953 17.3848 32.6451 17.2212 33.3879L15.3002 41.9389H8.50018C8.16512 41.9146 7.83037 41.9901 7.5382 42.156C7.24603 42.3218 7.00953 42.5704 6.85857 42.8705C6.7076 43.1706 6.64894 43.5087 6.68998 43.8422C6.73103 44.1756 6.86994 44.4894 7.08918 44.7439L10.9822 49.8439L7.08918 54.9439C6.8654 55.2498 6.74477 55.6189 6.74477 55.9979C6.74477 56.3769 6.8654 56.7461 7.08918 57.0519L10.9822 62.3899L7.08918 67.4899C6.8654 67.7958 6.74477 68.1649 6.74477 68.5439C6.74477 68.9229 6.8654 69.292 7.08918 69.5979L10.9822 74.7999L7.08918 79.8999C6.89334 80.1572 6.77492 80.465 6.74782 80.7871C6.72072 81.1093 6.78606 81.4326 6.93618 81.7189C7.07394 82.0167 7.2949 82.2682 7.57242 82.4431C7.84993 82.6181 8.17214 82.709 8.50018 82.7049H82.3482C83.4348 82.7049 84.4769 82.2733 85.2452 81.5049C86.0135 80.7366 86.4452 79.6945 86.4452 78.6079V69.0029C86.4522 68.7711 86.4118 68.5402 86.3263 68.3246C86.2408 68.1089 86.1121 67.9131 85.9481 67.749C85.784 67.585 85.5882 67.4563 85.3725 67.3708C85.1569 67.2853 84.926 67.2449 84.6942 67.2519Z" fill="white"/>
</svg>
