<svg width="41" height="32" viewBox="0 0 41 32" fill="none" xmlns="http://www.w3.org/2000/svg">
<path d="M0.654747 29.3761H40.3448V32H0.654747V29.3761ZM37.0115 3.80692C35.0776 3.27272 33.0217 3.3106 31.2227 3.91352L31.1488 3.93811L25.7658 6.47506L10.0567 0.28209C9.37098 0.00886688 8.62162 -0.0678806 7.89401 0.0605891C7.16641 0.189059 6.48982 0.517581 5.9413 1.00874L3.83822 2.87807C3.61636 3.07532 3.44214 3.31957 3.32848 3.59271C3.21483 3.86584 3.16466 4.16086 3.18169 4.45585C3.19873 4.75084 3.28254 5.03825 3.4269 5.29673C3.57126 5.55521 3.77247 5.77814 4.01559 5.94898L13.7535 12.7922L10.0182 14.7324L7.06006 12.0522C6.49447 11.5408 5.79198 11.2022 5.037 11.0771C4.28202 10.952 3.50667 11.0458 2.80413 11.3471L1.19544 12.0387C0.944008 12.1468 0.717863 12.3053 0.531255 12.5043C0.344647 12.7033 0.20162 12.9384 0.111186 13.1949C0.0207506 13.4514 -0.0151325 13.7237 0.00579689 13.9947C0.0267262 14.2656 0.104014 14.5293 0.232792 14.7692L6.25419 25.9884L39.0466 9.96037C41.0101 9.04391 41.2495 7.57881 40.8177 6.51171C40.3391 5.32868 38.9516 4.34285 37.0115 3.80692ZM37.9128 7.58963L37.9005 7.59537L7.38503 22.5104L2.90534 14.1632L3.85625 13.7543C4.09043 13.6539 4.34889 13.6226 4.60056 13.6643C4.85223 13.706 5.0864 13.8189 5.27492 13.9894L9.60246 17.9103L18.808 13.1285L6.22145 4.28332L7.70743 2.96253C7.89027 2.79883 8.1158 2.68933 8.35832 2.64651C8.60085 2.60369 8.85063 2.62926 9.07921 2.72031L25.8601 9.33581L32.1402 6.37617C33.4182 5.96546 34.9403 5.95267 36.3293 6.34231C37.4732 6.66324 38.0808 7.12947 38.2867 7.37398C38.1704 7.45912 38.0449 7.53126 37.9128 7.58963Z" fill="#44A9F6"/>
</svg>
