<svg width="48" height="47" viewBox="0 0 48 47" fill="none" xmlns="http://www.w3.org/2000/svg">
<path d="M44.0001 38H4.31006V40.6239H44.0001V38Z" fill="#44A9F6"/>
<path d="M42.3229 27.6677C41.2481 25.9735 39.6989 24.6214 37.9608 23.8606L37.8895 23.8292L32.1967 22.0959L24.7108 6.96024C24.3859 6.29737 23.882 5.73743 23.2565 5.34421C22.631 4.95098 21.909 4.74027 21.1727 4.73609L18.359 4.70979C18.0622 4.70705 17.7691 4.77113 17.5015 4.89727C17.2339 5.02342 16.9987 5.2084 16.8133 5.43848C16.6279 5.66856 16.497 5.93784 16.4305 6.22633C16.364 6.51482 16.3635 6.81512 16.429 7.10495L19.0526 18.7141L14.9816 17.6447L14.5883 13.6723C14.5125 12.9136 14.2191 12.191 13.7435 11.5915C13.2679 10.992 12.6303 10.5409 11.9073 10.2927L10.2507 9.72537C9.99177 9.63666 9.71775 9.60233 9.44586 9.62455C9.17396 9.64676 8.91009 9.72504 8.67087 9.85445C8.43164 9.98386 8.22225 10.1616 8.05588 10.3765C7.88951 10.5913 7.76976 10.8387 7.70419 11.1029L4.6356 23.4606L39.7004 33.5947C41.7709 34.2335 42.9319 33.3083 43.3282 32.2275C43.7677 31.0294 43.4011 29.3673 42.3229 27.6677ZM40.4515 31.0764L40.4386 31.0724L7.80856 21.6419L10.0918 12.4479L11.0711 12.7831C11.3121 12.8659 11.5247 13.0162 11.6832 13.2161C11.8417 13.4159 11.9395 13.6568 11.9648 13.9097L12.5401 19.721L22.5731 22.3565L19.1821 7.3512L21.1701 7.36981C21.4155 7.37122 21.6562 7.44147 21.8647 7.57254C22.0732 7.70361 22.2412 7.89024 22.3495 8.11118L30.3461 24.2796L36.9876 26.3018C38.2106 26.8554 39.3473 27.8676 40.1152 29.0889C40.7476 30.0947 40.885 30.8481 40.8734 31.1676C40.7301 31.1526 40.5886 31.1218 40.4515 31.0764Z" fill="#44A9F6"/>
</svg>
