<svg width="20" height="15" viewBox="0 0 20 15" fill="none" xmlns="http://www.w3.org/2000/svg">
<path d="M0.303533 13.7333H18.7034V14.96H0.303533V13.7333ZM17.1581 1.77974C16.2616 1.53 15.3084 1.54771 14.4745 1.82957L14.4402 1.84107L11.9447 3.02709L4.66219 0.131877C4.34427 0.00414527 3.99688 -0.0317342 3.65957 0.0283254C3.32226 0.088385 3.0086 0.241969 2.75431 0.471584L1.77935 1.3455C1.6765 1.43771 1.59573 1.5519 1.54304 1.67959C1.49035 1.80728 1.4671 1.9452 1.47499 2.08311C1.48289 2.22102 1.52175 2.35538 1.58867 2.47622C1.65559 2.59706 1.74887 2.70128 1.86158 2.78115L6.37594 5.98034L4.64432 6.88742L3.27296 5.63443C3.01076 5.39532 2.68509 5.23702 2.33509 5.17854C1.98509 5.12006 1.62565 5.16389 1.29996 5.30476L0.554192 5.6281C0.437631 5.67861 0.332793 5.75271 0.246283 5.84574C0.159774 5.93877 0.0934688 6.04871 0.0515443 6.16862C0.00961973 6.28854 -0.00701522 6.41584 0.00268737 6.54251C0.01239 6.66917 0.0482198 6.79246 0.10792 6.90459L2.89937 12.1496L18.1015 4.65647C19.0118 4.22803 19.1228 3.54309 18.9226 3.04423C18.7007 2.49116 18.0575 2.03028 17.1581 1.77974ZM17.5759 3.54815L17.5702 3.55084L3.42361 10.5236L1.34688 6.62131L1.78771 6.43014C1.89628 6.38318 2.01609 6.36856 2.13276 6.38806C2.24943 6.40756 2.35799 6.46033 2.44539 6.54004L4.45158 8.37309L8.71916 6.13758L2.88419 2.00245L3.57307 1.38498C3.65783 1.30845 3.76238 1.25726 3.87482 1.23724C3.98725 1.21723 4.10304 1.22918 4.20901 1.27175L11.9884 4.36449L14.8998 2.98086C15.4923 2.78885 16.1979 2.78287 16.8418 2.96503C17.3721 3.11507 17.6538 3.33303 17.7493 3.44734C17.6953 3.48714 17.6372 3.52098 17.576 3.54827L17.5759 3.54815Z" fill="white"/>
</svg>
