<svg width="32" height="32" viewBox="0 0 32 32" fill="none" xmlns="http://www.w3.org/2000/svg">
<rect width="32" height="32" rx="4" fill="#EBF4F6"/>
<path d="M20.5222 7.75C20.8302 7.75 21.1255 7.87233 21.3433 8.09008C21.561 8.30783 21.6833 8.60317 21.6833 8.91111V24.0056H23.425C23.579 24.0056 23.7266 24.0667 23.8355 24.1756C23.9444 24.2845 24.0056 24.4321 24.0056 24.5861C24.0056 24.7401 23.9444 24.8878 23.8355 24.9966C23.7266 25.1055 23.579 25.1667 23.425 25.1667H8.33056C8.17658 25.1667 8.02892 25.1055 7.92004 24.9966C7.81117 24.8878 7.75 24.7401 7.75 24.5861C7.75 24.4321 7.81117 24.2845 7.92004 24.1756C8.02892 24.0667 8.17658 24.0056 8.33056 24.0056H10.0722V8.91111C10.0722 8.60317 10.1946 8.30783 10.4123 8.09008C10.6301 7.87233 10.9254 7.75 11.2333 7.75H20.5222ZM18.2 18.2C18.5079 18.2 18.8033 18.0777 19.021 17.8599C19.2388 17.6422 19.3611 17.3468 19.3611 17.0389C19.3611 16.7309 19.2388 16.4356 19.021 16.2179C18.8033 16.0001 18.5079 15.8778 18.2 15.8778C17.8921 15.8778 17.5967 16.0001 17.379 16.2179C17.1612 16.4356 17.0389 16.7309 17.0389 17.0389C17.0389 17.3468 17.1612 17.6422 17.379 17.8599C17.5967 18.0777 17.8921 18.2 18.2 18.2Z" fill="#51B3FF"/>
</svg>
