<svg width="24" height="25" viewBox="0 0 24 25" fill="none" xmlns="http://www.w3.org/2000/svg">
<path d="M11.9995 21.5C11.6985 21.4996 11.4045 21.4086 11.1558 21.2389C7.47189 18.7381 5.87673 17.0234 4.99689 15.9514C3.12189 13.6663 2.22423 11.3202 2.24954 8.77953C2.27908 5.86813 4.61486 3.5 7.45642 3.5C9.52267 3.5 10.9538 4.66391 11.7872 5.63328C11.8136 5.66368 11.8462 5.68805 11.8829 5.70476C11.9195 5.72146 11.9593 5.73011 11.9995 5.73011C12.0398 5.73011 12.0796 5.72146 12.1162 5.70476C12.1529 5.68805 12.1855 5.66368 12.2119 5.63328C13.0453 4.66297 14.4764 3.5 16.5427 3.5C19.3842 3.5 21.72 5.86812 21.7495 8.78C21.7749 11.3211 20.8763 13.6672 19.0022 15.9519C18.1224 17.0239 16.5272 18.7386 12.8433 21.2394C12.5946 21.4089 12.3006 21.4998 11.9995 21.5Z" fill="white"/>
</svg>
