<svg width="19" height="19" viewBox="0 0 19 19" fill="none" xmlns="http://www.w3.org/2000/svg">
<path d="M17.3044 9.91927L17.4712 9.62594C19.2436 6.55694 18.1922 2.63269 15.1232 0.860775C12.0537 -0.911142 8.12946 0.140275 6.35754 3.20927L6.29979 3.30919C6.20864 3.46612 6.18269 3.65255 6.22751 3.82841C6.27233 4.00427 6.38435 4.15553 6.5395 4.24969L10.9954 6.94194L8.52683 11.0294C6.36808 11.2196 4.52329 12.3654 3.531 13.9865C3.73477 13.9678 3.94022 13.9913 4.13452 14.0555C4.32882 14.1197 4.50781 14.2232 4.66033 14.3596C5.56417 13.0598 7.19583 12.1468 9.16483 12.1468C11.1343 12.1468 12.7664 13.0602 13.6702 14.3605C13.8225 14.224 14.0013 14.1203 14.1955 14.0558C14.3896 13.9914 14.5949 13.9677 14.7987 13.9861C13.8155 12.3801 11.9955 11.2406 9.86196 11.0344L11.9758 7.53457L16.3442 10.1736C16.4235 10.2213 16.5116 10.2526 16.6032 10.2657C16.6949 10.2787 16.7882 10.2732 16.8777 10.2495C16.9672 10.2259 17.051 10.1845 17.1242 10.1278C17.1974 10.0712 17.2585 10.0004 17.3039 9.91973L17.3044 9.91927ZM15.433 2.49198C17.2251 4.09523 17.7334 6.77052 16.5367 8.95173L14.3027 7.60194L14.3105 7.58911C14.3655 7.50202 14.4398 7.37782 14.525 7.21923C14.6955 6.90252 14.9105 6.4474 15.0947 5.88548C15.3881 4.99219 15.6072 3.81519 15.433 2.49198ZM13.4823 1.38419C12.4974 1.82694 11.6472 2.55982 11.0165 3.21294C10.5383 3.70967 10.0995 4.24296 9.70429 4.80794L9.6965 4.81848L7.52171 3.50444C8.83025 1.52719 11.2805 0.696233 13.4823 1.38419ZM10.6796 5.41248C11.0307 4.9162 11.4186 4.44707 11.8401 4.00907C12.5175 3.30782 13.3567 2.62948 14.2441 2.3114C14.4783 3.55669 14.2853 4.67777 14.0062 5.52798C13.8766 5.92414 13.7125 6.30816 13.5158 6.67565C13.4552 6.78901 13.3905 6.90015 13.3219 7.00886L10.6796 5.41248ZM14.9852 14.9949C14.8935 14.9331 14.7859 14.8992 14.6754 14.8972H14.6529C14.5348 14.8999 14.4204 14.9389 14.3252 15.0089C14.2301 15.079 14.1588 15.1766 14.1212 15.2886L14.1208 15.29C14.1011 15.3432 13.5268 16.9593 11.9148 16.9593C10.3015 16.9593 9.73087 15.3551 9.70842 15.2882C9.67042 15.1741 9.59747 15.0748 9.49991 15.0045C9.40234 14.9341 9.28511 14.8962 9.16483 14.8962C9.04455 14.8962 8.92732 14.9341 8.82976 15.0045C8.73219 15.0748 8.65924 15.1741 8.62125 15.2882L8.62079 15.2896C8.60108 15.3432 8.02679 16.9593 6.41483 16.9593C4.8015 16.9593 4.23087 15.3551 4.21025 15.2882C4.17308 15.176 4.10197 15.0782 4.00675 15.0082C3.91161 14.9381 3.79715 14.8992 3.67904 14.8968H3.66896C3.55246 14.8963 3.43859 14.9314 3.34254 14.9973C3.24648 15.0632 3.17281 15.1569 3.13133 15.2657C3.12354 15.2864 2.33475 17.303 0.572917 17.303C0.42097 17.303 0.275246 17.3634 0.167803 17.4708C0.0603607 17.5783 0 17.724 0 17.8759C0 18.0279 0.0603607 18.1736 0.167803 18.2811C0.275246 18.3885 0.42097 18.4489 0.572917 18.4489C1.1961 18.4307 1.80499 18.2578 2.34473 17.9458C2.88448 17.6337 3.33813 17.1924 3.66483 16.6614C3.97255 17.1059 4.38339 17.4692 4.86219 17.7202C5.341 17.9712 5.8735 18.1025 6.41411 18.1028C6.95473 18.103 7.48736 17.9723 7.96641 17.7217C8.44547 17.4712 8.85667 17.1083 9.16483 16.6641C9.47299 17.1083 9.8842 17.4712 10.3633 17.7217C10.8423 17.9723 11.3749 18.103 11.9156 18.1028C12.4562 18.1025 12.9887 17.9712 13.4675 17.7202C13.9463 17.4692 14.3571 17.1059 14.6648 16.6614C14.9917 17.1926 15.4456 17.6342 15.9857 17.9463C16.5258 18.2583 17.1351 18.431 17.7586 18.4489C17.9105 18.4489 18.0563 18.3885 18.1637 18.2811C18.2711 18.1736 18.3315 18.0279 18.3315 17.8759C18.3315 17.724 18.2711 17.5783 18.1637 17.4708C18.0563 17.3634 17.9105 17.303 17.7586 17.303C16.6219 17.303 15.8849 16.4492 15.5063 15.8469V15.846C15.3884 15.6615 15.2861 15.4674 15.2006 15.2657C15.1585 15.1552 15.0833 15.0604 14.9852 14.9944V14.9949Z" fill="white"/>
</svg>
