<svg width="11" height="15" viewBox="0 0 11 15" fill="none" xmlns="http://www.w3.org/2000/svg">
<path d="M5.48161 0.387207C7.00223 0.387207 8.30212 0.87141 9.38127 1.83981C10.4604 2.80822 11 3.98255 11 5.36281C11 6.05293 10.8099 6.84881 10.4298 7.75042C10.0496 8.65204 9.58974 9.48688 9.05017 10.2549C8.51059 11.023 7.97101 11.7465 7.43144 12.4255C6.89186 13.1045 6.43813 13.6443 6.07023 14.0451L5.48161 14.6127C5.33445 14.4792 5.13824 14.2788 4.89298 14.0117C4.64771 13.7445 4.21237 13.2269 3.58696 12.4589C2.96154 11.6908 2.40357 10.945 1.91304 10.2215C1.42252 9.49801 0.981048 8.67987 0.588629 7.76712C0.19621 6.85437 0 6.05293 0 5.36281C0 3.98255 0.533445 2.80822 1.60033 1.83981C2.66722 0.87141 3.96098 0.387207 5.48161 0.387207ZM5.48161 7.13265C6.02118 7.13265 6.48718 6.96012 6.8796 6.61505C7.27202 6.26999 7.46823 5.85257 7.46823 5.36281C7.46823 4.87304 7.27202 4.45562 6.8796 4.11056C6.48718 3.76549 6.02118 3.59296 5.48161 3.59296C4.94203 3.59296 4.48216 3.76549 4.10201 4.11056C3.72185 4.45562 3.53177 4.87304 3.53177 5.36281C3.53177 5.85257 3.72185 6.26999 4.10201 6.61505C4.48216 6.96012 4.94203 7.13265 5.48161 7.13265Z" fill="#52B4FF"/>
</svg>
