<svg width="32" height="32" viewBox="0 0 32 32" fill="none" xmlns="http://www.w3.org/2000/svg">
<rect width="32" height="32" rx="4" fill="#EBF4F6"/>
<path d="M11.9573 9.95903C11.2423 9.24403 11.2423 8.07986 11.9573 7.36486C12.6723 6.64986 13.8365 6.64986 14.5515 7.36486C15.2665 8.07986 15.2665 9.24403 14.5515 9.95903C13.8273 10.6832 12.6723 10.6832 11.9573 9.95903ZM10.4998 19.6665V12.3332C10.4998 11.829 10.0873 11.4165 9.58317 11.4165C9.079 11.4165 8.6665 11.829 8.6665 12.3332V19.6665C8.6665 22.1965 10.7198 24.2499 13.2498 24.2499H17.8332C18.3373 24.2499 18.7498 23.8374 18.7498 23.3332C18.7498 22.829 18.3373 22.4165 17.8332 22.4165H13.2498C11.7282 22.4165 10.4998 21.1882 10.4998 19.6665ZM22.6732 22.7374L19.2173 19.2815C18.8782 18.9424 18.4107 18.7499 17.9248 18.7499H15.5415V15.3765C16.5407 16.1924 17.9798 16.9349 19.3915 17.2282C20.0057 17.3565 20.5832 16.8982 20.5832 16.2749C20.5832 15.789 20.2257 15.3949 19.7398 15.3124C18.4382 15.0924 17.0998 14.3865 16.3023 13.5065L15.019 12.0857C14.8448 11.8932 14.6248 11.7374 14.3865 11.6274C14.1207 11.499 13.8182 11.4165 13.5065 11.4165H13.479C12.3423 11.4165 11.4165 12.3424 11.4165 13.479V18.7499C11.4165 20.2715 12.6448 21.4999 14.1665 21.4999H18.814L21.3623 24.0482C21.7198 24.4057 22.3157 24.4057 22.6732 24.0482C23.0398 23.6907 23.0398 23.104 22.6732 22.7374Z" fill="#51B3FF"/>
</svg>
