<svg width="18" height="19" viewBox="0 0 18 19" fill="none" xmlns="http://www.w3.org/2000/svg">
<path d="M9 11.1875C9.93198 11.1875 10.6875 10.432 10.6875 9.5C10.6875 8.56802 9.93198 7.8125 9 7.8125C8.06802 7.8125 7.3125 8.56802 7.3125 9.5C7.3125 10.432 8.06802 11.1875 9 11.1875Z" fill="black"/>
<path d="M16.5371 11.0469L16.5206 11.0335L15.4111 10.1634C15.3408 10.1078 15.2848 10.0364 15.2475 9.95489C15.2102 9.87342 15.1928 9.78427 15.1966 9.69477V9.28836C15.1931 9.19942 15.2108 9.11092 15.2481 9.03012C15.2854 8.94932 15.3414 8.87854 15.4114 8.82359L16.5206 7.95312L16.5371 7.93977C16.7082 7.79726 16.823 7.59856 16.861 7.37919C16.899 7.15982 16.8577 6.93408 16.7446 6.74234L15.243 4.1443C15.2413 4.14185 15.2398 4.13926 15.2385 4.13656C15.1247 3.94748 14.9483 3.80421 14.7399 3.73164C14.5315 3.65907 14.3043 3.66178 14.0977 3.7393L14.0854 3.74387L12.7811 4.26875C12.6987 4.30204 12.6097 4.31528 12.5212 4.3074C12.4328 4.29951 12.3475 4.27072 12.2723 4.2234C12.157 4.15074 12.0398 4.08207 11.9208 4.01738C11.8436 3.97552 11.7773 3.9161 11.7273 3.84392C11.6773 3.77174 11.6449 3.68882 11.6329 3.60184L11.4363 2.21L11.4321 2.18469C11.3893 1.96911 11.2736 1.77483 11.1045 1.63449C10.9354 1.49415 10.7231 1.41632 10.5033 1.41406H7.49672C7.27385 1.41478 7.05838 1.49412 6.88828 1.63811C6.71817 1.78211 6.60434 1.98152 6.56684 2.20121L6.56367 2.2209L6.36785 3.61555C6.35584 3.70228 6.32375 3.78501 6.27413 3.85715C6.2245 3.92929 6.15873 3.98885 6.08203 4.03109C5.96262 4.09541 5.84537 4.16365 5.73047 4.2357C5.65547 4.28274 5.57038 4.31131 5.48219 4.31907C5.394 4.32683 5.30523 4.31356 5.22316 4.28035L3.91781 3.75301L3.90551 3.74809C3.6986 3.67049 3.47103 3.66788 3.2624 3.74072C3.05377 3.81356 2.87728 3.95724 2.76363 4.14676L2.75906 4.15449L1.25543 6.7543C1.1421 6.94623 1.10073 7.17221 1.13873 7.39185C1.17673 7.61148 1.29162 7.81043 1.46285 7.95312L1.47938 7.96648L2.58891 8.8366C2.65917 8.89219 2.71524 8.96365 2.75252 9.04511C2.7898 9.12658 2.80723 9.21573 2.80336 9.30523V9.71164C2.80688 9.80058 2.78924 9.88908 2.7519 9.96988C2.71456 10.0507 2.65858 10.1215 2.58855 10.1764L1.47938 11.0469L1.46285 11.0602C1.29179 11.2027 1.177 11.4014 1.139 11.6208C1.10099 11.8402 1.14227 12.0659 1.25543 12.2577L2.75695 14.8557C2.75868 14.8582 2.76021 14.8607 2.76152 14.8634C2.8753 15.0525 3.0517 15.1958 3.2601 15.2684C3.4685 15.3409 3.69573 15.3382 3.90234 15.2607L3.91465 15.2561L5.21789 14.7312C5.30021 14.698 5.38927 14.6847 5.47771 14.6926C5.56616 14.7005 5.65147 14.7293 5.7266 14.7766C5.84191 14.8495 5.9591 14.9182 6.07816 14.9826C6.15536 15.0245 6.22164 15.0839 6.27165 15.1561C6.32167 15.2283 6.35402 15.3112 6.36609 15.3982L6.56156 16.79L6.56578 16.8153C6.60864 17.0312 6.72463 17.2258 6.89421 17.3662C7.06379 17.5065 7.27658 17.5842 7.49672 17.5859H10.5033C10.7262 17.5852 10.9416 17.5059 11.1117 17.3619C11.2818 17.2179 11.3957 17.0185 11.4332 16.7988L11.4363 16.7791L11.6321 15.3845C11.6443 15.2976 11.6767 15.2147 11.7266 15.1426C11.7766 15.0704 11.8427 15.0109 11.9197 14.9689C12.04 14.9042 12.1574 14.8357 12.2713 14.7643C12.3463 14.7173 12.4314 14.6887 12.5196 14.6809C12.6078 14.6732 12.6965 14.6864 12.7786 14.7196L14.0839 15.2452L14.0962 15.2502C14.3031 15.3279 14.5308 15.3306 14.7394 15.2577C14.9481 15.1849 15.1246 15.0411 15.2381 14.8515C15.2395 14.8488 15.241 14.8462 15.2427 14.8438L16.7442 12.2461C16.8578 12.0541 16.8993 11.8281 16.8613 11.6084C16.8234 11.3886 16.7085 11.1896 16.5371 11.0469ZM11.8093 9.63219C11.7837 10.1766 11.6005 10.7019 11.2819 11.1441C10.9633 11.5863 10.5231 11.9264 10.0148 12.1231C9.50651 12.3198 8.95202 12.3645 8.41876 12.2519C7.8855 12.1392 7.39645 11.8741 7.01108 11.4887C6.62572 11.1033 6.36064 10.6142 6.24807 10.0809C6.13551 9.54765 6.18032 8.99316 6.37705 8.48488C6.57378 7.97661 6.91396 7.53644 7.35621 7.2179C7.79846 6.89937 8.32374 6.7162 8.86816 6.69066C9.25902 6.67346 9.64917 6.73777 10.0138 6.87951C10.3785 7.02125 10.7096 7.23732 10.9863 7.51398C11.2629 7.79064 11.4789 8.12183 11.6206 8.4865C11.7623 8.85117 11.8266 9.24134 11.8093 9.63219Z" fill="black"/>
</svg>
