<svg width="33" height="34" viewBox="0 0 33 34" fill="none" xmlns="http://www.w3.org/2000/svg">
<path d="M8.52632 19.5334C10.1828 19.5668 11.5528 18.251 11.5862 16.5945C11.6196 14.938 10.3039 13.568 8.64734 13.5346C6.99082 13.5012 5.62086 14.817 5.58744 16.4735C5.55402 18.13 6.8698 19.5 8.52632 19.5334Z" stroke="#70C1FE" stroke-width="1.5" stroke-linecap="round" stroke-linejoin="round"/>
<path d="M24.7045 10.8581C26.3611 10.8915 27.731 9.57575 27.7644 7.91924C27.7979 6.26272 26.4821 4.89276 24.8256 4.85934C23.169 4.82592 21.7991 6.1417 21.7657 7.79822C21.7322 9.45473 23.048 10.8247 24.7045 10.8581Z" stroke="#70C1FE" stroke-width="1.5" stroke-linecap="round" stroke-linejoin="round"/>
<path d="M24.3413 28.8542C25.9978 28.8876 27.3677 27.5718 27.4012 25.9153C27.4346 24.2588 26.1188 22.8889 24.4623 22.8554C22.8058 22.822 21.4358 24.1378 21.4024 25.7943C21.369 27.4508 22.6847 28.8208 24.3413 28.8542Z" stroke="#70C1FE" stroke-width="1.5" stroke-linecap="round" stroke-linejoin="round"/>
<path d="M11.171 18.0573L21.8179 24.332M22.1216 9.27634L11.2303 15.1166" stroke="#70C1FE" stroke-width="1.5" stroke-linecap="round" stroke-linejoin="round"/>
</svg>
