<svg width="16" height="20" viewBox="0 0 16 20" fill="none" xmlns="http://www.w3.org/2000/svg">
<path d="M3.59 3.91012C2.81 3.13012 2.81 1.86012 3.59 1.08012C4.37 0.300117 5.64 0.300117 6.42 1.08012C7.2 1.86012 7.2 3.13012 6.42 3.91012C5.63 4.70012 4.37 4.70012 3.59 3.91012ZM2 14.5001V6.50012C2 5.95012 1.55 5.50012 1 5.50012C0.45 5.50012 0 5.95012 0 6.50012V14.5001C0 17.2601 2.24 19.5001 5 19.5001H10C10.55 19.5001 11 19.0501 11 18.5001C11 17.9501 10.55 17.5001 10 17.5001H5C3.34 17.5001 2 16.1601 2 14.5001ZM15.28 17.8501L11.51 14.0801C11.14 13.7101 10.63 13.5001 10.1 13.5001H7.5V9.82012C8.59 10.7101 10.16 11.5201 11.7 11.8401C12.37 11.9801 13 11.4801 13 10.8001C13 10.2701 12.61 9.84012 12.08 9.75012C10.66 9.51012 9.2 8.74012 8.33 7.78012L6.93 6.23012C6.74 6.02012 6.5 5.85012 6.24 5.73012C5.95 5.59012 5.62 5.50012 5.28 5.50012H5.25C4.01 5.50012 3 6.51012 3 7.75012V13.5001C3 15.1601 4.34 16.5001 6 16.5001H11.07L13.85 19.2801C14.24 19.6701 14.89 19.6701 15.28 19.2801C15.68 18.8901 15.68 18.2501 15.28 17.8501Z" fill="#062D4A"/>
</svg>
