<svg width="18" height="21" viewBox="0 0 18 21" fill="none" xmlns="http://www.w3.org/2000/svg">
<path d="M10.125 2.32031V1.875C10.125 1.57663 10.0065 1.29048 9.7955 1.0795C9.58452 0.868526 9.29837 0.75 9 0.75C8.70164 0.75 8.41549 0.868526 8.20451 1.0795C7.99353 1.29048 7.875 1.57663 7.875 1.875V2.32031C6.45433 2.49866 5.09716 3.01513 3.91735 3.82641L3.42188 3.32812C3.21053 3.11678 2.92389 2.99805 2.625 2.99805C2.32612 2.99805 2.03947 3.11678 1.82813 3.32812C1.61678 3.53947 1.49805 3.82611 1.49805 4.125C1.49805 4.42389 1.61678 4.71053 1.82813 4.92188L2.23125 5.325C0.791348 6.96272 -0.00195218 9.0693 3.6077e-06 11.25C3.6077e-06 16.2127 4.03735 20.25 9 20.25C13.9627 20.25 18 16.2127 18 11.25C18 6.66844 14.5584 2.87531 10.125 2.32031ZM9 13.5C8.46935 13.4998 7.95583 13.3121 7.55016 12.9701C7.14449 12.628 6.87279 12.1535 6.78305 11.6305C6.69331 11.1075 6.79131 10.5696 7.05974 10.1118C7.32817 9.65409 7.74975 9.30594 8.25 9.12891V5.625C8.25 5.42609 8.32902 5.23532 8.46967 5.09467C8.61033 4.95402 8.80109 4.875 9 4.875C9.19892 4.875 9.38968 4.95402 9.53033 5.09467C9.67099 5.23532 9.75 5.42609 9.75 5.625V9.12891C10.2503 9.30594 10.6718 9.65409 10.9403 10.1118C11.2087 10.5696 11.3067 11.1075 11.217 11.6305C11.1272 12.1535 10.8555 12.628 10.4498 12.9701C10.0442 13.3121 9.53066 13.4998 9 13.5Z" fill="#062D4A"/>
</svg>
