<svg width="18" height="18" viewBox="0 0 18 18" fill="none" xmlns="http://www.w3.org/2000/svg">
<path d="M14.5687 3.43167C13.8388 2.6945 12.9704 2.10882 12.0134 1.70828C11.0564 1.30774 10.0297 1.10023 8.99228 1.09768C7.95486 1.09513 6.92716 1.29758 5.96822 1.6934C5.00928 2.08923 4.138 2.67062 3.40443 3.40419C2.67087 4.13776 2.08947 5.00904 1.69365 5.96798C1.29782 6.92692 1.09537 7.95462 1.09792 8.99204C1.10048 10.0295 1.30798 11.0561 1.70852 12.0131C2.10906 12.9701 2.69474 13.8385 3.43191 14.5685C4.16186 15.3056 5.03027 15.8913 5.98725 16.2919C6.94423 16.6924 7.97092 16.8999 9.00834 16.9025C10.0458 16.905 11.0735 16.7026 12.0324 16.3067C12.9913 15.9109 13.8626 15.3295 14.5962 14.5959C15.3298 13.8624 15.9112 12.9911 16.307 12.0322C16.7028 11.0732 16.9053 10.0455 16.9027 9.0081C16.9001 7.97068 16.6926 6.94399 16.2921 5.98701C15.8916 5.03003 15.3059 4.16162 14.5687 3.43167ZM6.75488 9.14702C6.72504 8.69047 6.8351 8.23568 7.07037 7.84328C7.30563 7.45089 7.65494 7.13954 8.07169 6.95076C8.48845 6.76197 8.95286 6.70473 9.40298 6.78665C9.85311 6.86858 10.2676 7.08578 10.5911 7.4093C10.9146 7.73281 11.1318 8.14727 11.2137 8.59739C11.2957 9.04752 11.2384 9.51193 11.0496 9.92868C10.8608 10.3454 10.5495 10.6947 10.1571 10.93C9.7647 11.1653 9.30991 11.2753 8.85336 11.2455C8.30869 11.2094 7.79566 10.9767 7.40968 10.5907C7.02369 10.2047 6.791 9.69169 6.75488 9.14702ZM15.1924 6.80421L11.8044 7.00952C11.7812 7.01074 11.7581 7.00629 11.737 6.99655C11.7159 6.98681 11.6975 6.97207 11.6834 6.95362C11.5009 6.7145 11.2873 6.50085 11.0482 6.31835C11.0297 6.30426 11.015 6.28588 11.0052 6.2648C10.9955 6.24373 10.991 6.22059 10.9923 6.19741L11.1976 2.8094C11.1988 2.78732 11.2053 2.76585 11.2164 2.74672C11.2275 2.7276 11.243 2.71137 11.2615 2.69935C11.2801 2.68733 11.3012 2.67985 11.3232 2.67753C11.3452 2.67521 11.3675 2.67812 11.3881 2.686C12.2826 3.02672 13.0948 3.55282 13.7715 4.22974C14.4482 4.90666 14.974 5.71909 15.3144 6.61366C15.3223 6.63432 15.3252 6.65656 15.3228 6.67855C15.3205 6.70055 15.3131 6.72168 15.301 6.74025C15.289 6.75881 15.2728 6.77428 15.2537 6.78539C15.2345 6.79651 15.2131 6.80295 15.191 6.80421H15.1924ZM6.80445 2.8094L7.00976 6.19741C7.01098 6.22059 7.00653 6.24373 6.99679 6.2648C6.98705 6.28588 6.97232 6.30426 6.95387 6.31835C6.71474 6.50085 6.50109 6.7145 6.31859 6.95362C6.3045 6.97207 6.28612 6.98681 6.26505 6.99655C6.24397 7.00629 6.22084 7.01074 6.19765 7.00952L2.80965 6.80421C2.78757 6.80295 2.76609 6.79651 2.74697 6.78539C2.72785 6.77428 2.71161 6.75881 2.69959 6.74025C2.68757 6.72168 2.6801 6.70055 2.67778 6.67855C2.67546 6.65656 2.67836 6.63432 2.68625 6.61366C3.0268 5.71895 3.55282 4.90644 4.22975 4.22951C4.90668 3.55258 5.7192 3.02655 6.6139 2.686C6.63457 2.67812 6.6568 2.67521 6.6788 2.67753C6.70079 2.67985 6.72193 2.68733 6.74049 2.69935C6.75906 2.71137 6.77452 2.7276 6.78564 2.74672C6.79675 2.76585 6.8032 2.78732 6.80445 2.8094ZM2.80965 11.1959L6.19765 10.9906C6.22084 10.9894 6.24397 10.9938 6.26505 11.0036C6.28612 11.0133 6.3045 11.0281 6.31859 11.0465C6.50109 11.2856 6.71474 11.4993 6.95387 11.6818C6.97232 11.6959 6.98705 11.7143 6.99679 11.7353C7.00653 11.7564 7.01098 11.7795 7.00976 11.8027L6.80445 15.1907C6.8032 15.2128 6.79675 15.2343 6.78564 15.2534C6.77452 15.2725 6.75906 15.2888 6.74049 15.3008C6.72193 15.3128 6.70079 15.3203 6.6788 15.3226C6.6568 15.3249 6.63457 15.322 6.6139 15.3141C5.7192 14.9736 4.90668 14.4476 4.22975 13.7706C3.55282 13.0937 3.0268 12.2812 2.68625 11.3865C2.67836 11.3658 2.67546 11.3436 2.67778 11.3216C2.6801 11.2996 2.68757 11.2785 2.69959 11.2599C2.71161 11.2413 2.72785 11.2259 2.74697 11.2147C2.76609 11.2036 2.78757 11.1972 2.80965 11.1959ZM11.1962 15.1907L10.9909 11.8027C10.9896 11.7795 10.9941 11.7564 11.0038 11.7353C11.0136 11.7143 11.0283 11.6959 11.0468 11.6818C11.2859 11.4993 11.4995 11.2856 11.682 11.0465C11.6961 11.0281 11.7145 11.0133 11.7356 11.0036C11.7567 10.9938 11.7798 10.9894 11.803 10.9906L15.191 11.1959C15.2131 11.1972 15.2345 11.2036 15.2537 11.2147C15.2728 11.2259 15.289 11.2413 15.301 11.2599C15.3131 11.2785 15.3205 11.2996 15.3228 11.3216C15.3252 11.3436 15.3223 11.3658 15.3144 11.3865C14.9738 12.2812 14.4478 13.0937 13.7709 13.7706C13.0939 14.4476 12.2814 14.9736 11.3867 15.3141C11.3661 15.322 11.3438 15.3249 11.3218 15.3226C11.2998 15.3203 11.2787 15.3128 11.2601 15.3008C11.2416 15.2888 11.2261 15.2725 11.215 15.2534C11.2039 15.2343 11.1974 15.2128 11.1962 15.1907Z" fill="black"/>
</svg>
