<svg width="32" height="32" viewBox="0 0 32 32" fill="none" xmlns="http://www.w3.org/2000/svg">
<rect width="32" height="32" rx="4" fill="#EBF4F6"/>
<path d="M16 7.75C11.4439 7.75 7.75 11.4439 7.75 16C7.75 20.5561 11.4439 24.25 16 24.25C20.5561 24.25 24.25 20.5561 24.25 16C24.25 11.4439 20.5561 7.75 16 7.75ZM19.8077 17.2692H16C15.8317 17.2692 15.6703 17.2024 15.5513 17.0834C15.4322 16.9643 15.3654 16.8029 15.3654 16.6346V10.9231C15.3654 10.7548 15.4322 10.5933 15.5513 10.4743C15.6703 10.3553 15.8317 10.2885 16 10.2885C16.1683 10.2885 16.3297 10.3553 16.4487 10.4743C16.5678 10.5933 16.6346 10.7548 16.6346 10.9231V16H19.8077C19.976 16 20.1374 16.0669 20.2564 16.1859C20.3754 16.3049 20.4423 16.4663 20.4423 16.6346C20.4423 16.8029 20.3754 16.9643 20.2564 17.0834C20.1374 17.2024 19.976 17.2692 19.8077 17.2692Z" fill="#51B3FF"/>
</svg>
