<svg width="12" height="13" viewBox="0 0 12 13" fill="none" xmlns="http://www.w3.org/2000/svg">
<path d="M8.21071 0.945396C7.64938 0.335735 6.86536 0 6 0C5.13002 0 4.34341 0.333703 3.78468 0.939593C3.21988 1.55216 2.9447 2.38467 3.00931 3.28364C3.13739 5.0572 4.47898 6.49996 6 6.49996C7.52102 6.49996 8.86031 5.05749 8.9904 3.28422C9.05588 2.39338 8.77896 1.5626 8.21071 0.945396ZM11.0768 12.9999H0.923217C0.790316 13.0017 0.658701 12.9736 0.537947 12.9177C0.417194 12.8618 0.31034 12.7796 0.225159 12.677C0.0376639 12.4515 -0.0379109 12.1436 0.0180491 11.8323C0.261504 10.4736 1.02129 9.33238 2.21549 8.5312C3.27642 7.81998 4.62033 7.42853 6 7.42853C7.37967 7.42853 8.72358 7.82027 9.78451 8.5312C10.9787 9.33209 11.7385 10.4734 11.982 11.832C12.0379 12.1433 11.9623 12.4512 11.7748 12.6767C11.6897 12.7794 11.5828 12.8617 11.4621 12.9176C11.3413 12.9735 11.2097 13.0016 11.0768 12.9999Z" fill="#52B4FF"/>
</svg>
